<svg width="292" height="130" viewBox="0 0 292 130" fill="none" xmlns="http://www.w3.org/2000/svg">
<g clip-path="url(#clip0_2010_3295)">
<path d="M291.525 84.7671V420.064C291.525 428.798 284.451 435.872 275.718 435.872H15.3628C6.62895 435.872 -0.444824 428.798 -0.444824 420.064V84.7671C-0.444824 76.0333 6.6373 68.9512 15.3711 68.9512H147.78C149.515 68.9512 150.925 70.3192 151.008 72.0543C152.618 104.195 179.195 129.763 211.744 129.763C244.294 129.763 270.863 104.195 272.481 72.0543C272.564 70.3192 273.974 68.9512 275.709 68.9512C284.443 68.9512 291.525 76.0333 291.525 84.7671Z" fill="white"/>
<path d="M265.174 68.9607C265.174 39.5059 241.208 15.54 211.753 15.54C182.298 15.54 158.341 39.5059 158.341 68.9607C158.341 98.4155 182.307 122.381 211.753 122.381C241.2 122.381 265.174 98.4238 265.174 68.9607Z" fill="white"/>
<path d="M211.753 119.77C183.733 119.77 160.944 96.9806 160.944 68.9606C160.944 40.9406 183.733 18.1509 211.753 18.1509C239.773 18.1509 262.563 40.9406 262.563 68.9606C262.563 96.9806 239.765 119.77 211.753 119.77Z" fill="#F2F2F2"/>
<path d="M265.175 68.9612C265.175 44.5115 248.666 23.8572 226.21 17.5342V20.2536C247.206 26.4932 262.564 45.9713 262.564 68.9612C262.564 91.951 247.206 111.429 226.21 117.669V120.388C248.666 114.065 265.175 93.4108 265.175 68.9612Z" fill="url(#paint0_linear_2010_3295)"/>
<path d="M158.325 68.9612C158.325 44.5115 174.833 23.8572 197.289 17.5342V20.2536C176.293 26.4932 160.936 45.9713 160.936 68.9612C160.936 91.951 176.293 111.429 197.289 117.677V120.396C174.833 114.073 158.325 93.4192 158.325 68.9695V68.9612Z" fill="url(#paint1_linear_2010_3295)"/>
<path d="M256.399 93.2026C247.774 109.019 230.998 119.771 211.754 119.771C192.509 119.771 175.726 109.019 167.109 93.2026H164.164C173.015 110.512 191.025 122.382 211.754 122.382C232.483 122.382 250.501 110.512 259.352 93.2026H256.407H256.399Z" fill="url(#paint2_linear_2010_3295)"/>
<mask id="mask0_2010_3295" style="mask-type:luminance" maskUnits="userSpaceOnUse" x="160" y="-5" width="103" height="125">
<path d="M211.753 119.771C183.733 119.771 160.944 96.981 160.944 68.961C160.944 40.941 183.742 -4.39648 211.753 -4.39648C239.765 -4.39648 262.563 40.9494 262.563 68.961C262.563 96.9726 239.765 119.771 211.753 119.771Z" fill="white"/>
</mask>
<g mask="url(#mask0_2010_3295)">
<path d="M258.701 84.7852C255.039 78.3454 262.197 70.721 259.802 62.4376C257.408 54.1542 245.797 53.7039 240.825 45.7291C235.853 37.7544 239.507 30.9975 236.829 22.3304C231.616 5.18813 209.402 7.99101 209.402 7.99101C208.768 8.16619 208.159 8.36637 207.583 8.59159C203.804 8.75009 199.008 9.54256 194.128 11.9366C180.706 18.3431 183.926 35.2102 183.267 45.946C182.608 56.6819 171.872 66.8504 170.662 75.4758C169.453 84.1012 177.619 89.8153 177.636 95.738C177.653 101.661 171.497 104.522 170.529 115.041C169.561 125.568 180.172 133.142 180.172 133.142L223.741 131.299L220.963 91.7673C221.831 96.8391 223.107 100.977 224.951 103.379C234.101 115.324 261.696 110.394 261.696 110.394C261.696 110.394 266.593 106.849 269.037 100.259C271.481 93.6692 262.355 91.2 258.693 84.7685L258.701 84.7852Z" fill="#F2C15F"/>
<path d="M203.929 64.6812L210.068 84.1174L228.904 81.2562L226.944 44.7944L225.484 45.053L203.929 64.6812Z" fill="#F79262"/>
<path d="M194.203 60.0172C190.475 59.4916 187.029 62.0942 186.512 65.8147C185.987 69.5434 188.589 72.9885 192.31 73.5057C196.039 74.0313 199.484 71.4287 200.001 67.7082C200.527 63.9795 197.924 60.5344 194.203 60.0172ZM192.902 69.9605C191.15 69.7186 189.933 68.1003 190.183 66.3485C190.433 64.5968 192.043 63.3789 193.795 63.6291C195.546 63.871 196.764 65.4893 196.514 67.2411C196.272 68.9928 194.654 70.2107 192.902 69.9605Z" fill="#00BA6B"/>
<path d="M195.955 59.5924C195.83 60.51 194.979 61.144 194.062 61.0189C193.144 60.8937 192.51 60.0429 192.635 59.1253C192.76 58.2077 193.611 57.5737 194.529 57.6989C195.446 57.824 196.08 58.6749 195.955 59.5924Z" fill="#00713E"/>
<mask id="mask1_2010_3295" style="mask-type:luminance" maskUnits="userSpaceOnUse" x="186" y="59" width="15" height="15">
<path d="M194.153 59.96C190.424 59.4345 186.979 62.0372 186.462 65.7576C185.936 69.4864 188.539 72.9315 192.259 73.4487C195.988 73.9742 199.433 71.3715 199.95 67.6511C200.476 63.9223 197.873 60.4772 194.153 59.96ZM192.86 69.9035C191.108 69.6615 189.89 68.0432 190.14 66.2914C190.382 64.5396 192.001 63.3218 193.752 63.5721C195.504 63.814 196.722 65.4323 196.472 67.184C196.23 68.9358 194.612 70.1537 192.86 69.9035Z" fill="white"/>
</mask>
<g mask="url(#mask1_2010_3295)">
<path d="M197.99 60.5521C197.99 60.5521 195.196 61.1778 196.864 63.7805C198.533 66.3831 196.155 69.4362 198.015 70.0368C199.876 70.6374 202.77 66.308 201.185 63.1214C199.6 59.9349 197.99 60.5605 197.99 60.5605V60.5521Z" fill="#00713E"/>
<path d="M189.857 60.5928C189.857 60.5928 191.108 62.5447 189.415 64.3382C187.721 66.1317 187.546 65.0056 186.345 68.1338C185.144 71.2619 180.956 60.6929 189.857 60.5928Z" fill="#00713E"/>
<path d="M187.479 71.513C187.479 71.513 188.939 68.9271 190.332 70.4787C191.725 72.0302 193.936 72.5058 193.16 73.8404C192.384 75.1668 186.837 76.6766 187.479 71.5214V71.513Z" fill="#00713E"/>
</g>
<path d="M233.492 44.4106C233.166 46.7546 231.006 48.3896 228.678 48.0643C226.351 47.739 224.733 45.5702 225.058 43.2345C225.383 40.8904 227.544 39.2555 229.871 39.5808C232.199 39.9061 233.817 42.0749 233.492 44.4106Z" fill="#F79262"/>
<path d="M227.052 47.3473C228.754 46.046 230.463 44.7364 232.165 43.435C232.449 43.2182 232.165 42.7343 231.882 42.9512C230.18 44.2525 228.47 45.5622 226.768 46.8635C226.484 47.0804 226.768 47.5642 227.052 47.3473Z" fill="#411504"/>
<path d="M204.713 67.0248C204.713 67.0248 221.021 70.7119 227.052 48.2558C227.277 45.3529 226.602 43.7847 226.602 43.7847L204.821 66.5744" fill="#411504"/>
<path d="M185.727 41.7331C185.727 41.7331 185.944 66.1243 202.719 67.1253C219.495 68.1264 226.41 49.6327 227.169 40.607C227.261 31.4811 216.074 12.32 197.322 16.9663C191.099 19.1352 184.084 29.3205 185.727 41.7331Z" fill="#F79262"/>
<path d="M218.41 16.1992C204.379 10.677 194.878 15.0981 194.878 15.0981C194.878 15.0981 181.197 19.3274 185.693 34.3426C187.712 25.9424 195.411 18.4431 196.521 17.4004C199.132 20.5619 205.079 26.2094 216.082 29.1624C221.738 31.0559 218.485 38.5552 226.718 40.2152C231.448 40.2819 234.217 33.8254 234.217 33.8254C234.217 33.8254 232.449 21.7298 218.418 16.2159L218.41 16.1992Z" fill="#F2C15F"/>
<path d="M195.362 56.1559C195.362 56.1559 197.523 58.4666 200.826 58.1246C203.295 57.7992 206.215 55.2466 206.215 55.2466L195.362 56.1559Z" fill="#D32E20"/>
<path d="M200.025 54.3539C200.025 54.3539 198.857 53.161 197.672 54.3288C196.48 55.4967 195.679 55.9555 195.253 56.1641C199.09 56.4477 204.538 55.8721 206.323 55.2131C204.913 55.113 203.286 54.4624 202.636 54.0703C201.985 53.6782 201.201 53.0693 200.025 54.3539Z" fill="#FC3827"/>
<path d="M199.834 35.4348C199.175 38.1459 198.457 40.8404 197.682 43.5181C197.49 44.1854 197.29 44.8528 197.089 45.5201C196.906 46.1291 196.631 46.763 196.539 47.397C196.38 48.4564 197.548 48.8151 198.299 49.2488C198.716 49.4908 199.091 48.8484 198.674 48.6065C198.224 48.3479 197.298 48.031 197.298 47.4053C197.298 47.1885 197.44 46.9298 197.507 46.7213C197.607 46.3876 197.707 46.054 197.815 45.7203C198.14 44.6359 198.458 43.5514 198.766 42.4586C199.408 40.1897 200.001 37.9124 200.56 35.6268C200.676 35.1596 199.951 34.9594 199.842 35.4265L199.834 35.4348Z" fill="#411504"/>
<path d="M203.02 34.851L202.812 33.2994C202.812 33.2994 208.851 31.8646 212.179 32.2483C214.432 32.4819 217.443 33.9167 217.443 33.9167C217.443 33.9167 213.214 33.3244 212.179 33.4329C211.145 33.5413 203.012 34.851 203.012 34.851H203.02Z" fill="#411504"/>
<path d="M210.311 38.3211C211.237 38.4546 212.054 38.7049 212.763 39.0636C212.513 37.537 211.179 36.2524 209.41 36.0021C207.283 35.7018 205.331 37.0198 205.064 38.9468C205.039 39.1386 205.031 39.3388 205.039 39.5307C206.39 38.538 208.159 38.0208 210.311 38.3211Z" fill="#FC3827"/>
<path d="M210.544 38.3134C211.42 38.4385 212.204 38.672 212.896 38.9973C212.412 37.9797 211.094 37.1288 209.459 36.9036C207.257 36.5949 205.305 37.5208 205.105 38.9806C205.08 39.1808 205.088 39.3895 205.13 39.5897C206.506 38.5553 208.325 38.0131 210.552 38.3217L210.544 38.3134Z" fill="white"/>
<path d="M205.54 39.6059C207.509 38.63 209.686 39.0554 211.805 39.6644C213.106 40.0398 213.306 38.7468 212.222 38.1795C210.045 37.0284 207.459 37.3287 205.507 38.6967C204.672 39.2806 204.973 39.8896 205.548 39.6059H205.54Z" fill="#411504"/>
<path d="M210.954 39.906C210.912 40.565 210.345 41.0656 209.686 41.0239C209.027 40.9822 208.527 40.4149 208.568 39.7559C208.61 39.0969 209.177 38.5965 209.836 38.6382C210.495 38.6799 210.996 39.247 210.954 39.906Z" fill="#411504"/>
<path opacity="0.32" d="M213.706 48.2892C213.331 50.9586 210.87 52.8104 208.201 52.4351C205.54 52.0597 203.68 49.5989 204.055 46.9295C204.43 44.2601 206.891 42.4083 209.561 42.7837C212.23 43.1591 214.082 45.6199 213.706 48.2892Z" fill="#FC3827"/>
<path opacity="0.32" d="M190.674 44.1431C188.83 43.8845 187.078 44.6936 186.061 46.1033C186.161 46.6372 186.252 47.1711 186.344 47.705C186.745 49.5902 187.153 51.4754 187.771 53.2939C188.246 53.5358 188.763 53.711 189.322 53.7944C191.992 54.1698 194.452 52.3096 194.828 49.6486C195.203 46.9792 193.343 44.5184 190.682 44.1431H190.674Z" fill="#FC3827"/>
<path d="M197.623 33.466C197.623 33.466 191.508 32.4066 188.205 32.9906C187.354 33.1324 186.412 33.4577 185.569 33.7997C185.527 34.0499 185.477 34.2918 185.419 34.5338C186.553 34.3336 187.78 34.15 188.28 34.175C189.314 34.2167 197.514 35.0259 197.514 35.0259L197.623 33.466Z" fill="#411504"/>
<path d="M190.483 39.3971C189.582 39.639 188.806 39.9977 188.139 40.4398C188.197 38.8883 189.365 37.4535 191.092 36.9863C193.169 36.4274 195.263 37.4953 195.772 39.3722C195.822 39.564 195.855 39.7559 195.863 39.9477C194.395 39.1302 192.577 38.8382 190.483 39.4055V39.3971Z" fill="#FC3827"/>
<path d="M190.249 39.4209C189.39 39.6545 188.648 39.9882 188.006 40.3886C188.356 39.3208 189.557 38.3115 191.15 37.8777C193.294 37.2938 195.346 37.9777 195.73 39.3958C195.78 39.596 195.797 39.7963 195.78 40.0049C194.287 39.1457 192.41 38.837 190.241 39.4209H190.249Z" fill="white"/>
<path d="M195.421 40.1307C193.378 39.3216 191.242 39.9306 189.19 40.7064C187.922 41.1818 187.613 39.9222 188.648 39.2549C190.717 37.9286 193.328 38.0119 195.388 39.2132C196.264 39.7303 196.014 40.3559 195.43 40.1224L195.421 40.1307Z" fill="#411504"/>
<path d="M192.235 40.7568C192.327 41.4074 192.936 41.858 193.586 41.7662C194.237 41.6744 194.688 41.0655 194.596 40.4148C194.504 39.7642 193.895 39.3137 193.244 39.4054C192.594 39.4972 192.143 40.1061 192.235 40.7568Z" fill="#411504"/>
<path d="M229.122 49.1744C225.393 48.6489 221.948 51.2515 221.43 54.9719C220.905 58.7006 223.508 62.1458 227.228 62.663C230.957 63.1885 234.402 60.5859 234.919 56.8655C235.445 53.1367 232.842 49.6916 229.122 49.1744ZM227.829 59.1094C226.077 58.8674 224.859 57.2492 225.109 55.4974C225.351 53.7456 226.969 52.5277 228.721 52.778C230.473 53.0282 231.691 54.6382 231.441 56.3899C231.199 58.1417 229.58 59.3596 227.829 59.1094Z" fill="#00BA6B"/>
<path d="M230.874 48.7404C230.749 49.658 229.898 50.2919 228.98 50.1668C228.063 50.0417 227.428 49.1908 227.554 48.2732C227.679 47.3556 228.53 46.7217 229.447 46.8468C230.365 46.9719 230.999 47.8228 230.874 48.7404Z" fill="#00713E"/>
<mask id="mask2_2010_3295" style="mask-type:luminance" maskUnits="userSpaceOnUse" x="221" y="49" width="14" height="14">
<path d="M229.071 49.1065C225.343 48.581 221.897 51.1837 221.38 54.9041C220.855 58.6329 223.457 62.078 227.178 62.5952C230.906 63.1207 234.352 60.518 234.869 56.7976C235.394 53.0688 232.792 49.6237 229.071 49.1065ZM227.778 59.0499C226.027 58.808 224.809 57.1898 225.059 55.438C225.301 53.6862 226.919 52.4683 228.671 52.7186C230.423 52.9605 231.641 54.5787 231.39 56.3305C231.148 58.0823 229.53 59.3002 227.778 59.0499Z" fill="white"/>
</mask>
<g mask="url(#mask2_2010_3295)">
<path d="M232.908 49.6987C232.908 49.6987 230.114 50.3243 231.782 52.927C233.451 55.5296 231.073 58.5827 232.933 59.1833C234.794 59.7839 237.688 55.4545 236.103 52.2679C234.518 49.0814 232.908 49.707 232.908 49.707V49.6987Z" fill="#00713E"/>
<path d="M224.784 49.7485C224.784 49.7485 226.035 51.7005 224.342 53.494C222.649 55.2875 222.473 54.1614 221.272 57.2895C220.071 60.4177 215.883 49.8486 224.784 49.7485Z" fill="#00713E"/>
<path d="M222.407 60.6595C222.407 60.6595 223.867 58.0736 225.26 59.6252C226.653 61.1767 228.863 61.6522 228.088 62.9869C227.312 64.3216 221.765 65.8231 222.407 60.6679V60.6595Z" fill="#00713E"/>
</g>
<path d="M208.809 79.9053C207.975 79.9053 198.424 83.7592 198.424 83.7592C198.424 83.7592 200.1 98.3405 203.279 100.851C206.632 89.7902 208.976 83.4255 208.976 83.4255L210.486 82.5913L208.809 79.9136V79.9053Z" fill="#B994D1"/>
<path d="M203.17 100.409C203.671 99.3997 208.033 83.4836 208.868 82.9831C209.702 82.4826 215.065 80.8059 215.065 80.8059L244.887 74.1074L233.492 142.969L183.392 140.958C183.392 140.958 181.548 114.824 184.568 109.46C187.588 104.096 197.473 86.6702 198.307 83.3251C199.984 92.5428 203.162 100.417 203.162 100.417L203.17 100.409Z" fill="#DAC1E6"/>
<mask id="mask3_2010_3295" style="mask-type:luminance" maskUnits="userSpaceOnUse" x="182" y="74" width="63" height="70">
<path d="M203.002 100.66C203.503 99.6506 207.857 83.7345 208.7 83.234C209.534 82.7335 214.898 81.0569 214.898 81.0569L244.72 74.3584L233.325 143.22L183.224 141.209C183.224 141.209 181.381 115.075 184.4 109.711C187.42 104.347 197.305 86.9211 198.139 83.5761C199.816 92.7937 203.002 100.668 203.002 100.668V100.66Z" fill="white"/>
</mask>
<g mask="url(#mask3_2010_3295)">
<path d="M187.88 58.4935C186.303 72.0655 184.893 85.6626 183.608 99.268C182.324 112.915 181.164 126.579 180.097 140.243C179.02 153.998 178.044 167.762 177.119 181.526C176.201 195.223 175.342 208.92 174.499 222.618C173.657 236.281 172.839 249.954 172.005 263.617C171.905 265.319 171.796 267.029 171.688 268.731C171.655 269.248 172.456 269.24 172.489 268.731C173.323 255.067 174.149 241.412 174.983 227.748C175.817 214.051 176.676 200.353 177.577 186.665C178.487 172.892 179.446 159.128 180.497 145.373C181.54 131.701 182.674 118.037 183.934 104.381C185.185 90.7677 186.562 77.1624 188.105 63.5737C188.297 61.8803 188.488 60.1868 188.689 58.4935C188.747 57.9846 187.946 57.9846 187.888 58.4935H187.88Z" fill="white"/>
<path d="M193.527 56.324C191.951 69.8961 190.541 83.4931 189.256 97.0985C187.972 110.746 186.812 124.409 185.744 138.073C184.668 151.829 183.692 165.593 182.766 179.357C181.849 193.054 180.99 206.751 180.147 220.448C179.304 234.112 178.487 247.784 177.653 261.448C177.553 263.15 177.444 264.86 177.336 266.561C177.302 267.079 178.103 267.07 178.137 266.561C178.971 252.898 179.797 239.242 180.631 225.578C181.465 211.881 182.324 198.184 183.225 184.495C184.134 170.723 185.094 156.959 186.145 143.203C187.187 129.531 188.322 115.868 189.582 102.212C190.833 88.5983 192.209 74.9928 193.752 61.4041C193.944 59.7107 194.136 58.0174 194.336 56.324C194.395 55.8152 193.594 55.8152 193.536 56.324H193.527Z" fill="white"/>
<path d="M200 58.9017C198.423 72.4737 197.013 86.0708 195.729 99.6762C194.444 113.323 193.285 126.987 192.217 140.651C191.141 154.407 190.165 168.17 189.239 181.934C188.321 195.631 187.462 209.329 186.62 223.026C185.777 236.69 184.96 250.362 184.125 264.026C184.025 265.727 183.917 267.437 183.808 269.139C183.775 269.656 184.576 269.648 184.609 269.139C185.443 255.475 186.269 241.82 187.103 228.156C187.938 214.459 188.797 200.762 189.698 187.073C190.607 173.301 191.566 159.537 192.617 145.781C193.66 132.109 194.795 118.445 196.054 104.79C197.306 91.1759 198.682 77.5706 200.225 63.9819C200.417 62.2885 200.609 60.595 200.809 58.9017C200.867 58.3928 200.067 58.3928 200.008 58.9017H200Z" fill="white"/>
<path d="M207.599 57.8758C206.023 71.4478 204.613 85.0449 203.328 98.6503C202.044 112.297 200.884 125.961 199.816 139.625C198.74 153.381 197.764 167.144 196.838 180.908C195.921 194.606 195.062 208.303 194.219 222C193.377 235.664 192.559 249.336 191.725 263C191.625 264.701 191.516 266.411 191.408 268.113C191.375 268.63 192.175 268.622 192.209 268.113C193.043 254.449 193.869 240.794 194.703 227.13C195.537 213.433 196.396 199.736 197.297 186.047C198.207 172.275 199.166 158.511 200.217 144.755C201.26 131.083 202.394 117.419 203.654 103.764C204.905 90.1501 206.281 76.5446 207.825 62.9559C208.016 61.2625 208.208 59.5692 208.408 57.8758C208.467 57.3669 207.666 57.3669 207.608 57.8758H207.599Z" fill="white"/>
<path d="M213.189 57.1004C211.612 70.6724 210.202 84.2695 208.918 97.8749C207.633 111.522 206.474 125.186 205.406 138.85C204.33 152.605 203.354 166.369 202.428 180.133C201.51 193.83 200.651 207.527 199.809 221.224C198.966 234.888 198.148 248.56 197.314 262.224C197.214 263.926 197.106 265.636 196.997 267.338C196.964 267.855 197.765 267.847 197.798 267.338C198.632 253.674 199.458 240.018 200.292 226.355C201.126 212.657 201.986 198.96 202.887 185.272C203.796 171.499 204.755 157.735 205.806 143.98C206.849 130.308 207.983 116.644 209.243 102.988C210.494 89.3746 211.871 75.7692 213.414 62.1805C213.606 60.4871 213.798 58.7938 213.998 57.1004C214.056 56.5915 213.255 56.5915 213.197 57.1004H213.189Z" fill="white"/>
<path d="M219.662 57.8758C218.085 71.4478 216.676 85.0449 215.391 98.6503C214.106 112.297 212.947 125.961 211.879 139.625C210.803 153.381 209.827 167.144 208.901 180.908C207.975 194.672 207.124 208.303 206.282 222C205.439 235.664 204.622 249.336 203.787 263C203.687 264.701 203.579 266.411 203.47 268.113C203.437 268.63 204.238 268.622 204.271 268.113C205.105 254.449 205.931 240.794 206.765 227.13C207.6 213.433 208.459 199.736 209.36 186.047C210.269 172.275 211.228 158.511 212.279 144.755C213.322 131.083 214.457 117.419 215.716 103.764C216.967 90.1501 218.344 76.5446 219.887 62.9559C220.079 61.2625 220.271 59.5692 220.471 57.8758C220.529 57.3669 219.729 57.3669 219.67 57.8758H219.662Z" fill="white"/>
<path d="M224.799 58.1258C223.223 71.6978 221.813 85.2948 220.528 98.9003C219.244 112.547 218.084 126.211 217.017 139.875C215.94 153.631 214.964 167.394 214.038 181.158C213.121 194.856 212.262 208.553 211.419 222.25C210.577 235.914 209.759 249.586 208.925 263.25C208.825 264.951 208.716 266.661 208.608 268.363C208.575 268.88 209.375 268.872 209.409 268.363C210.243 254.699 211.069 241.044 211.903 227.38C212.737 213.683 213.596 199.986 214.497 186.297C215.407 172.525 216.366 158.761 217.417 145.005C218.46 131.333 219.594 117.669 220.854 104.014C222.105 90.4 223.481 76.7946 225.025 63.2059C225.217 61.5125 225.408 59.8192 225.609 58.1258C225.667 57.6169 224.866 57.6169 224.808 58.1258H224.799Z" fill="white"/>
</g>
<path d="M211.83 81.9161L218.528 91.3839L249.109 78.9881L249.943 69.103L211.83 81.9161Z" fill="#CEABE8"/>
<mask id="mask4_2010_3295" style="mask-type:luminance" maskUnits="userSpaceOnUse" x="211" y="69" width="39" height="23">
<path d="M211.829 82.04L218.527 91.5079L249.108 79.112L249.942 69.2271L211.829 82.04Z" fill="white"/>
</mask>
<g mask="url(#mask4_2010_3295)">
<path d="M209.076 85.4935C223.716 80.3049 238.497 75.5418 253.229 70.6285C253.679 70.4784 253.488 69.761 253.029 69.9112C238.297 74.8245 223.516 79.5876 208.876 84.7761C208.425 84.9346 208.617 85.652 209.076 85.4935Z" fill="white"/>
<path d="M208.242 88.5636C220.504 84.6179 232.683 80.4053 244.912 76.3345C248.324 75.2001 251.736 74.0739 255.164 72.9728C255.615 72.8226 255.423 72.1052 254.964 72.2554C242.702 76.2011 230.523 80.4137 218.294 84.4845C214.882 85.6189 211.47 86.7451 208.042 87.8462C207.591 87.9964 207.783 88.7137 208.242 88.5636Z" fill="white"/>
<path d="M208.242 91.5756C223.015 87.0127 237.58 81.724 252.12 76.477C253.496 75.9849 254.873 75.4843 256.249 74.9838C256.699 74.8253 256.499 74.0996 256.049 74.2664C244.195 78.5791 232.308 82.8 220.354 86.8374C216.267 88.2222 212.163 89.5819 208.042 90.8582C207.583 91 207.783 91.7174 208.242 91.5756Z" fill="white"/>
</g>
<path d="M183.4 136.862C183.4 136.862 192.784 129.262 201.051 126.81C209.318 124.349 226.293 118.994 226.293 118.994L265.95 140.332C265.95 140.332 275.835 175.351 274.325 185.402C272.815 195.454 278.12 261.304 278.12 261.304H164.239L182.332 178.362C182.332 178.362 174.791 174.341 174.791 170.321C174.791 166.3 175.292 161.27 172.28 160.269C169.261 159.259 181.94 154.179 183.391 136.87L183.4 136.862Z" fill="#F0412F"/>
<path d="M171.78 159.16C171.78 159.16 174.624 158.15 177.978 159.493C179.988 160.67 183.508 158.826 187.362 156.307C191.216 153.796 195.237 151.953 199.091 153.796C202.945 155.64 203.779 153.963 206.632 151.452C209.476 148.941 215.174 149.108 220.371 147.765C225.567 146.422 226.402 144.578 226.402 144.578L225.734 118.777C225.734 118.777 203.62 124.642 197.247 128.329C190.882 132.016 183.4 136.762 183.4 136.762C183.4 136.762 181.498 150.276 171.78 159.16Z" fill="#D93124"/>
<path d="M215.015 234.895C215.015 234.895 213.505 97.6647 236.629 79.5715C247.69 72.531 267.293 83.5922 267.293 114.757C267.293 145.922 255.731 243.946 255.731 243.946L215.015 234.895Z" fill="#B994D1"/>
<mask id="mask5_2010_3295" style="mask-type:luminance" maskUnits="userSpaceOnUse" x="215" y="77" width="53" height="168">
<path d="M215.041 235.145C215.041 235.145 213.531 97.9143 236.654 79.821C247.715 72.7805 267.319 83.8417 267.319 115.006C267.319 146.171 255.757 244.195 255.757 244.195L215.041 235.145Z" fill="white"/>
</mask>
<g mask="url(#mask5_2010_3295)">
<path d="M232.033 57.8313C230.457 71.4034 229.047 85.0004 227.762 98.6058C226.478 112.211 225.318 125.917 224.25 139.581C223.174 153.336 222.199 167.1 221.273 180.864C220.355 194.561 219.496 208.258 218.653 221.955C217.811 235.619 216.993 249.291 216.159 262.955C216.059 264.657 215.951 266.367 215.842 268.069C215.809 268.586 216.609 268.578 216.643 268.069C217.477 254.405 218.303 240.749 219.137 227.086C219.971 213.388 220.83 199.691 221.731 186.002C222.64 172.23 223.6 158.466 224.651 144.711C225.694 131.039 226.828 117.375 228.088 103.719C229.339 90.1056 230.715 76.5002 232.259 62.9114C232.45 61.2181 232.642 59.5247 232.842 57.8313C232.901 57.3225 232.1 57.3225 232.042 57.8313H232.033Z" fill="white"/>
<path d="M237.672 55.6634C236.095 69.2354 234.685 82.8325 233.401 96.4379C232.116 110.085 230.957 123.749 229.889 137.413C228.813 151.168 227.837 164.932 226.911 178.696C225.993 192.393 225.134 206.09 224.292 219.788C223.449 233.451 222.632 247.123 221.797 260.787C221.697 262.489 221.589 264.199 221.481 265.901C221.447 266.418 222.248 266.41 222.281 265.901C223.115 252.237 223.941 238.581 224.775 224.918C225.61 211.221 226.469 197.523 227.37 183.835C228.279 170.062 229.238 156.298 230.289 142.543C231.332 128.871 232.467 115.207 233.726 101.551C234.977 87.9377 236.354 74.3323 237.897 60.7436C238.089 59.0502 238.281 57.3568 238.481 55.6634C238.539 55.1545 237.739 55.1545 237.68 55.6634H237.672Z" fill="white"/>
<path d="M244.154 58.2405C242.577 71.8126 241.168 85.4096 239.883 99.015C238.598 112.662 237.439 126.326 236.371 139.99C235.295 153.745 234.319 167.509 233.393 181.273C232.475 194.97 231.616 208.667 230.774 222.365C229.931 236.028 229.114 249.701 228.28 263.364C228.179 265.066 228.071 266.776 227.963 268.478C227.929 268.995 228.73 268.987 228.763 268.478C229.598 254.814 230.423 241.159 231.258 227.495C232.092 213.798 232.951 200.1 233.852 186.412C234.761 172.639 235.72 158.875 236.771 145.12C237.814 131.448 238.949 117.784 240.208 104.129C241.46 90.5147 242.836 76.9094 244.379 63.3206C244.571 61.6272 244.763 59.9339 244.963 58.2405C245.021 57.7317 244.221 57.7317 244.162 58.2405H244.154Z" fill="white"/>
<path d="M251.754 57.2146C250.177 70.7867 248.767 84.3838 247.483 97.9892C246.198 111.636 245.039 125.3 243.971 138.964C242.895 152.719 241.919 166.483 240.993 180.247C240.075 193.944 239.216 207.642 238.374 221.339C237.531 235.003 236.714 248.675 235.879 262.339C235.779 264.04 235.671 265.75 235.562 267.452C235.529 267.969 236.33 267.961 236.363 267.452C237.197 253.788 238.023 240.133 238.857 226.469C239.691 212.772 240.551 199.075 241.452 185.386C242.361 171.614 243.32 157.85 244.371 144.094C245.414 130.422 246.548 116.758 247.808 103.103C249.059 89.489 250.436 75.8836 251.979 62.2948C252.171 60.6015 252.363 58.908 252.563 57.2146C252.621 56.7058 251.82 56.7058 251.762 57.2146H251.754Z" fill="white"/>
<path d="M257.334 56.4388C255.757 70.0108 254.347 83.6079 253.063 97.2133C251.778 110.86 250.619 124.524 249.551 138.188C248.475 151.944 247.499 165.707 246.573 179.471C245.655 193.169 244.796 206.866 243.954 220.563C243.111 234.227 242.294 247.899 241.459 261.563C241.359 263.264 241.251 264.974 241.142 266.676C241.109 267.193 241.91 267.185 241.943 266.676C242.777 253.012 243.603 239.357 244.438 225.693C245.272 211.996 246.131 198.299 247.032 184.61C247.941 170.838 248.9 157.074 249.951 143.318C250.994 129.646 252.129 115.982 253.388 102.327C254.639 88.713 256.016 75.1076 257.559 61.5189C257.751 59.8255 257.943 58.1321 258.143 56.4388C258.201 55.9299 257.401 55.9299 257.342 56.4388H257.334Z" fill="white"/>
<path d="M263.816 57.2146C262.239 70.7867 260.83 84.3838 259.545 97.9892C258.26 111.636 257.101 125.3 256.033 138.964C254.957 152.719 253.981 166.483 253.055 180.247C252.137 193.944 251.278 207.642 250.436 221.339C249.593 235.003 248.776 248.675 247.942 262.339C247.842 264.04 247.733 265.75 247.625 267.452C247.591 267.969 248.392 267.961 248.425 267.452C249.26 253.788 250.085 240.133 250.92 226.469C251.754 212.772 252.613 199.075 253.514 185.386C254.423 171.614 255.382 157.85 256.433 144.094C257.476 130.422 258.611 116.758 259.87 103.103C261.122 89.489 262.498 75.8836 264.041 62.2948C264.233 60.6015 264.425 58.908 264.625 57.2146C264.684 56.7058 263.883 56.7058 263.824 57.2146H263.816Z" fill="white"/>
<path d="M268.955 57.4725C267.378 71.0445 265.968 84.6416 264.684 98.247C263.399 111.894 262.24 125.558 261.172 139.222C260.096 152.977 259.12 166.741 258.194 180.505C257.268 194.269 256.417 207.899 255.575 221.597C254.732 235.26 253.915 248.933 253.08 262.596C252.98 264.298 252.872 266.008 252.763 267.71C252.73 268.227 253.531 268.219 253.564 267.71C254.398 254.046 255.224 240.391 256.058 226.727C256.893 213.03 257.752 199.332 258.653 185.644C259.562 171.871 260.521 158.107 261.572 144.352C262.615 130.68 263.75 117.016 265.009 103.36C266.26 89.7467 267.637 76.1413 269.18 62.5526C269.372 60.8592 269.564 59.1658 269.764 57.4725C269.822 56.9636 269.021 56.9636 268.963 57.4725H268.955Z" fill="white"/>
</g>
</g>
</g>
<defs>
<linearGradient id="paint0_linear_2010_3295" x1="226.21" y1="68.9611" x2="265.175" y2="68.9611" gradientUnits="userSpaceOnUse">
<stop stop-color="white"/>
<stop offset="1" stop-color="#DDDEE0"/>
</linearGradient>
<linearGradient id="paint1_linear_2010_3295" x1="197.289" y1="68.9611" x2="158.333" y2="68.9611" gradientUnits="userSpaceOnUse">
<stop stop-color="white"/>
<stop offset="1" stop-color="#DDDEE0"/>
</linearGradient>
<linearGradient id="paint2_linear_2010_3295" x1="145.095" y1="107.792" x2="281.299" y2="107.792" gradientUnits="userSpaceOnUse">
<stop offset="0.01" stop-color="white"/>
<stop offset="0.48" stop-color="#BBBCBE"/>
<stop offset="1" stop-color="white"/>
</linearGradient>
<clipPath id="clip0_2010_3295">
<rect width="292" height="130" fill="white"/>
</clipPath>
</defs>
</svg>
