<svg width="292" height="130" viewBox="0 0 292 130" fill="none" xmlns="http://www.w3.org/2000/svg">
<g clip-path="url(#clip0_2010_8709)">
<path d="M291.527 84.7671V569.398C291.527 578.132 284.453 585.206 275.719 585.206H15.3643C6.63051 585.206 -0.443359 578.132 -0.443359 569.398V84.7671C-0.443359 76.0333 6.63886 68.9512 15.3727 68.9512H147.781C149.517 68.9512 150.926 70.3192 151.01 72.0543C152.62 104.195 179.196 129.763 211.746 129.763C244.296 129.763 270.864 104.195 272.482 72.0543C272.566 70.3192 273.976 68.9512 275.711 68.9512C284.444 68.9512 291.527 76.0333 291.527 84.7671Z" fill="white"/>
<path d="M265.167 68.9607C265.167 39.5059 241.202 15.54 211.747 15.54C182.292 15.54 158.334 39.5059 158.334 68.9607C158.334 98.4155 182.3 122.381 211.747 122.381C241.193 122.381 265.167 98.4238 265.167 68.9607Z" fill="white"/>
<path d="M211.747 119.77C183.727 119.77 160.937 96.9806 160.937 68.9606C160.937 40.9406 183.727 18.1509 211.747 18.1509C239.767 18.1509 262.556 40.9406 262.556 68.9606C262.556 96.9806 239.758 119.77 211.747 119.77Z" fill="#F2F2F2"/>
<path d="M265.167 68.9612C265.167 44.5115 248.659 23.8572 226.203 17.5342V20.2536C247.199 26.4932 262.556 45.9713 262.556 68.9612C262.556 91.951 247.199 111.429 226.203 117.669V120.388C248.659 114.065 265.167 93.4108 265.167 68.9612Z" fill="url(#paint0_linear_2010_8709)"/>
<path d="M158.326 68.9612C158.326 44.5115 174.834 23.8572 197.291 17.5342V20.2536C176.294 26.4932 160.937 45.9713 160.937 68.9612C160.937 91.951 176.294 111.429 197.291 117.677V120.396C174.834 114.073 158.326 93.4192 158.326 68.9695V68.9612Z" fill="url(#paint1_linear_2010_8709)"/>
<path d="M256.392 93.2026C247.766 109.019 230.991 119.771 211.746 119.771C192.502 119.771 175.718 109.019 167.101 93.2026H164.157C173.007 110.512 191.017 122.382 211.746 122.382C232.476 122.382 250.494 110.512 259.345 93.2026H256.4H256.392Z" fill="url(#paint2_linear_2010_8709)"/>
<mask id="mask0_2010_8709" style="mask-type:luminance" maskUnits="userSpaceOnUse" x="160" y="-5" width="103" height="125">
<path d="M211.746 119.771C183.726 119.771 160.937 96.981 160.937 68.961C160.937 40.941 183.734 -4.39648 211.746 -4.39648C239.758 -4.39648 262.556 40.9494 262.556 68.961C262.556 96.9726 239.758 119.771 211.746 119.771Z" fill="white"/>
</mask>
<g mask="url(#mask0_2010_8709)">
<path d="M139.414 97.5807C139.69 99.2907 140.857 100.951 142.618 102.144C148.282 108.917 150.526 117.209 151.76 121.555C153.062 126.109 158.475 129.571 161.512 123.941C164.548 118.302 174.517 97.7141 181.882 96.4128C189.248 95.1115 201.602 89.9146 200.735 83.408C199.867 76.9098 202.47 69.1019 203.771 64.5556C205.072 60.001 201.168 49.1651 197.923 47.8638C194.67 46.5624 190.991 44.3936 190.991 44.3936C190.991 44.3936 191.092 45.8868 190.958 47.9055C190.307 49.5572 188.823 51.1254 187.838 52.0513C186.17 53.6112 184.026 54.5289 181.957 55.4214L174.099 58.7914C172.773 59.3587 171.271 60.0093 170.137 61.0938C169.244 61.9446 168.535 63.1041 167.96 64.639C167.192 66.7078 166.892 68.8434 167.051 70.8704C166.709 73.7233 166.058 76.6929 164.49 79.0536C162.93 80.2882 160.719 80.9138 158.701 81.4727L157.966 81.6813C152.628 83.1995 147.614 85.9439 143.452 89.6143C140.349 92.3504 138.989 95.0365 139.406 97.589L139.414 97.5807ZM168.452 64.7224C168.994 63.3043 169.653 62.2199 170.471 61.4358C171.538 60.4098 172.94 59.8092 174.291 59.2336L182.149 55.8635C184.16 55.0043 186.437 54.02 188.164 52.4101C188.939 51.6843 190.024 50.5748 190.833 49.3152C190.399 52.9439 189.106 57.4067 185.361 58.2743C179.972 59.5339 171.447 60.9436 168.452 64.7224ZM143.769 89.9647C147.873 86.3443 152.828 83.6333 158.092 82.1318L158.826 81.9232C160.427 81.4728 162.146 80.9972 163.589 80.2048C162.363 81.5728 160.719 82.6322 158.475 83.1911C151.235 85.0013 137.654 92.976 140.766 99.6578C140.307 98.9737 139.998 98.2397 139.873 97.4972C139.481 95.1115 140.791 92.5756 143.76 89.9563L143.769 89.9647Z" fill="#411504"/>
<path d="M237.105 15.9573C237.105 15.9573 227.186 7.01494 213.214 9.9429C199.233 12.8709 188.998 27.4939 189.649 40.0149C190.299 52.5275 195.012 58.7088 199.725 58.2167C204.439 57.7328 205.74 54.9634 205.74 54.9634C205.74 54.9634 205.414 34.3175 207.366 30.4219C209.318 26.5179 229.639 11.8948 237.113 15.9573H237.105Z" fill="#411504"/>
<path d="M220.195 66.1833L217.651 82.8751L219.495 99.9924L196.413 79.8388L201.018 47.6562L220.195 66.1833Z" fill="#FDC0A3"/>
<path d="M220.195 67.1598L200.041 50.5013C199.583 50.176 200.358 66.6509 214.022 69.1117C216.208 69.5038 220.52 68.7864 220.195 67.1598Z" fill="#411504"/>
<path d="M227.428 66.8759C227.879 72.7402 230.131 77.3532 232.45 77.1696C234.777 76.9945 236.296 72.0895 235.845 66.2253C235.395 60.361 233.142 55.748 230.823 55.9316C228.496 56.1067 226.978 61.0117 227.428 66.8759Z" fill="#C4F4F4"/>
<mask id="mask1_2010_8709" style="mask-type:luminance" maskUnits="userSpaceOnUse" x="227" y="55" width="9" height="23">
<path d="M227.428 66.8759C227.879 72.7402 230.131 77.3532 232.45 77.1696C234.777 76.9945 236.296 72.0895 235.845 66.2253C235.395 60.361 233.142 55.748 230.823 55.9316C228.496 56.1067 226.978 61.0117 227.428 66.8759Z" fill="white"/>
</mask>
<g mask="url(#mask1_2010_8709)">
<path d="M235.703 70.354C235.845 70.7127 235.586 70.3124 235.803 70.5459C235.72 70.4542 235.628 70.3707 235.536 70.2873C235.778 70.4958 235.47 70.254 235.411 70.2123C235.294 70.1372 235.169 70.0704 235.036 70.0037C234.986 69.9787 234.627 69.8119 234.869 69.912C234.735 69.8536 234.602 69.8035 234.46 69.7618C234.21 69.67 233.951 69.5949 233.693 69.5365C232.45 69.2446 231.19 69.0611 229.989 68.6189C227.32 67.643 225.585 65.4991 224.809 62.7964C224.267 60.9028 227.22 60.0937 227.762 61.9873C227.854 62.321 227.954 62.6462 228.087 62.9632C228.004 62.763 228.179 63.1551 228.196 63.1885C228.262 63.3303 228.337 63.4637 228.421 63.6055C228.496 63.739 228.579 63.8642 228.663 63.9893C228.663 63.9977 228.946 64.373 228.771 64.1561C228.946 64.3814 229.147 64.5899 229.355 64.7818C229.455 64.8735 229.564 64.9652 229.672 65.057C229.43 64.8651 229.781 65.1321 229.806 65.1404C230.031 65.2905 230.273 65.4158 230.515 65.5492C230.882 65.7494 230.248 65.4658 230.665 65.6159C230.815 65.6743 230.957 65.7243 231.107 65.7744C231.432 65.8828 231.757 65.9747 232.091 66.0581C234.485 66.6837 237.597 66.8838 238.664 69.5365C238.973 70.304 238.331 71.2132 237.597 71.4218C236.721 71.6637 236.02 71.1214 235.711 70.354H235.703Z" fill="#1B9E9F"/>
<path d="M237.597 66.0494C237.18 65.674 236.579 65.624 236.045 65.5906C235.361 65.5572 234.677 65.5739 234.001 65.4821C232.633 65.307 231.232 64.6897 230.323 63.6219C229.614 62.7961 229.146 61.8201 228.579 60.9025C228.095 60.1101 227.553 59.3926 226.611 59.2008C225.409 58.9589 225.918 57.1154 227.119 57.3573C229.572 57.8494 230.231 60.3686 231.557 62.1204C232.341 63.1548 233.601 63.5969 234.861 63.647C236.337 63.7054 237.78 63.6553 238.956 64.6981C239.874 65.5156 238.523 66.8586 237.605 66.0494H237.597Z" fill="#1B9E9F"/>
<path d="M235.37 75.5012C234.878 73.0904 232.025 72.4398 230.006 71.9059C228.73 71.5639 227.412 71.1802 226.302 70.4378C225.193 69.6953 224.309 68.6609 223.767 67.443C223.558 66.9759 223.633 66.417 224.109 66.1334C224.517 65.8915 225.201 65.9999 225.418 66.4754C225.944 67.6599 226.778 68.5775 227.929 69.1698C229.147 69.7954 230.523 70.0373 231.825 70.4127C234.135 71.0717 236.688 72.4231 237.213 74.984C237.455 76.1852 235.62 76.694 235.37 75.4928V75.5012Z" fill="#1B9E9F"/>
</g>
<path d="M240.842 46.6797C240.842 46.6797 235.745 67.1587 222.315 68.4601C208.876 69.7614 199.884 58.5417 201.018 43.7518C202.053 30.3299 203.129 21.646 208.985 17.0914C214.832 12.5368 235.862 11.027 240.842 26.843C245.83 42.6673 240.842 46.6714 240.842 46.6714V46.6797Z" fill="#FDC0A3"/>
<path d="M186.303 42.2086C191.667 39.1222 194.678 39.606 198.416 39.9314C202.153 40.2567 208.751 38.1962 209.96 31.8815C210.111 31.0974 210.344 30.3133 210.628 29.5376C210.811 29.4958 210.987 29.4625 211.17 29.4291C212.597 29.354 214.031 29.4541 215.416 29.7294C216.309 29.9046 217.201 30.1549 218.06 30.3968C219.128 30.6971 220.229 30.9973 221.339 31.1725C222.098 31.2893 222.857 31.3478 223.608 31.3478C224.5 31.3478 225.393 31.2643 226.285 31.0975C229.263 30.5469 232.008 29.062 234.41 27.5105C235.203 27.2102 235.945 26.9015 236.612 26.6096C236.704 26.8932 236.788 27.1852 236.846 27.4939C237.956 32.8993 238.122 35.4935 237.68 39.7312C237.538 40.3985 237.38 41.0742 237.23 41.7332C236.596 44.4192 235.945 47.197 236.446 49.9498C236.713 51.4096 237.288 52.7944 237.855 54.129C237.989 54.4377 238.114 54.7463 238.239 55.055C239.974 59.326 241 63.8138 241.301 68.4101C241.276 70.2036 241.017 71.8052 240.425 73.0899C244.162 68.7855 247.74 63.989 244.896 57.8078C242.051 51.6349 243.92 48.1397 245.38 44.803C246.839 41.4747 253.671 23.1061 231.399 12.779C222.949 9.12529 205.631 13.5131 203.437 20.5035C201.243 27.4939 203.521 32.2904 197.59 32.6908C191.659 33.0995 186.862 40.5736 186.295 42.2003L186.303 42.2086ZM237.105 44.6194C236.579 49.8914 237.872 49.9248 239.374 55.9476C239.599 56.8568 239.816 57.766 240.024 58.6753C239.632 57.3906 239.198 56.1227 238.69 54.8715C238.564 54.5628 238.431 54.2542 238.306 53.9456C237.755 52.6359 237.18 51.2762 236.929 49.8664C236.612 48.1313 236.788 46.3712 237.113 44.6194H237.105ZM213.981 29.0371C216.125 28.8369 218.386 28.8869 220.605 29.3708C224.408 30.1966 228.679 29.4041 232.275 28.2696C230.398 29.3373 228.362 30.2466 226.21 30.647C224.625 30.9389 223.015 30.964 221.422 30.7138C220.329 30.5469 219.245 30.2383 218.194 29.9463C217.318 29.7044 216.417 29.4541 215.508 29.2706C214.999 29.1705 214.49 29.0955 213.973 29.0454L213.981 29.0371Z" fill="#411504"/>
<path d="M198.09 45.6533C200.366 45.6533 202.211 43.8084 202.211 41.5325C202.211 39.2566 200.366 37.4116 198.09 37.4116C195.814 37.4116 193.969 39.2566 193.969 41.5325C193.969 43.8084 195.814 45.6533 198.09 45.6533Z" fill="#FDC0A3"/>
<path d="M201.21 44.1268C199.709 42.6086 198.124 41.1738 196.622 39.6556C196.372 39.4054 195.988 39.7891 196.239 40.0393C197.74 41.5575 199.325 42.9923 200.827 44.5105C201.077 44.7607 201.461 44.377 201.21 44.1268Z" fill="#411504"/>
<path d="M216.166 40.6C214.54 39.2236 212.388 39.1235 210.252 39.1985C208.943 39.2486 209.051 37.9891 210.202 37.6971C212.521 37.1215 214.89 38.0057 216.408 39.7491C217.059 40.4915 216.634 41.0004 216.158 40.6H216.166Z" fill="#411504"/>
<path d="M210.745 39.5403C210.628 40.1659 211.045 40.7749 211.679 40.8917C212.305 41.0084 212.914 40.5914 213.03 39.9574C213.147 39.3318 212.73 38.7228 212.096 38.606C211.47 38.4892 210.861 38.9063 210.745 39.5403Z" fill="#411504"/>
<path d="M222.782 58.9517C222.782 58.9517 220.671 60.912 218.077 60.2113C216.158 59.619 214.248 56.8579 214.248 56.8579L222.782 58.9517Z" fill="#D32E20"/>
<path d="M219.353 56.6988C219.353 56.6988 220.488 55.6978 221.238 56.9491C221.997 58.2004 222.556 58.7259 222.873 58.9762C219.754 58.8177 215.499 57.6414 214.173 56.8156C215.316 56.874 216.725 56.4486 217.309 56.1483C217.893 55.848 218.619 55.3558 219.353 56.7155V56.6988Z" fill="#FC3827"/>
<path opacity="0.14" d="M229.814 58.8266C232.97 58.8266 235.528 56.2683 235.528 53.1125C235.528 49.9567 232.97 47.3984 229.814 47.3984C226.658 47.3984 224.1 49.9567 224.1 53.1125C224.1 56.2683 226.658 58.8266 229.814 58.8266Z" fill="#FC3827"/>
<path opacity="0.14" d="M210.394 52.8207C213.402 52.8207 215.841 50.3819 215.841 47.3735C215.841 44.3651 213.402 41.9263 210.394 41.9263C207.386 41.9263 204.947 44.3651 204.947 47.3735C204.947 50.3819 207.386 52.8207 210.394 52.8207Z" fill="#FC3827"/>
<path d="M226.936 43.928C229.046 43.6194 230.923 44.6788 232.692 45.88C233.776 46.6141 234.352 45.4879 233.526 44.6371C231.866 42.9187 229.388 42.4098 227.178 43.0772C226.235 43.3608 226.327 44.0198 226.936 43.928Z" fill="#411504"/>
<path d="M227.754 44.0696C227.462 44.6368 227.695 45.3375 228.262 45.6295C228.83 45.9215 229.53 45.6878 229.822 45.1206C230.114 44.5533 229.881 43.8526 229.313 43.5607C228.746 43.2687 228.046 43.5024 227.754 44.0696Z" fill="#411504"/>
<path d="M221.823 38.3383C221.748 40.7491 221.665 43.1682 221.589 45.5789C221.548 46.7885 221.514 47.9897 221.473 49.1992C221.439 50.2086 221.347 52.194 219.879 52.0855C219.429 52.0522 219.429 52.7528 219.879 52.7862C222.532 52.9864 222.182 48.8656 222.232 47.2473C222.324 44.2776 222.424 41.308 222.515 38.3383C222.532 37.8879 221.831 37.8879 221.815 38.3383H221.823Z" fill="#411504"/>
<path d="M236.128 41.0742C236.128 41.0742 233.935 39.3642 231.824 39.0389C229.714 38.7136 227.028 38.555 226.619 37.7375C226.21 36.92 226.21 36.1943 227.103 36.1943C227.995 36.1943 232.224 36.6781 234.093 38.0629C235.962 39.4476 237.997 42.2087 236.128 41.0659V41.0742Z" fill="#411504"/>
<path d="M209.034 35.1603C209.034 35.1603 211.737 34.5179 213.798 35.1102C215.858 35.6941 218.361 36.6618 219.07 36.0945C219.779 35.5273 220.079 34.8599 219.27 34.4845C218.461 34.1091 214.415 32.7995 212.138 33.275C209.86 33.7505 206.866 35.4189 209.034 35.1603Z" fill="#411504"/>
<path d="M198.394 67.1737C200.725 67.1566 202.579 62.3736 202.536 56.4906C202.493 50.6075 200.568 45.8524 198.237 45.8695C195.906 45.8865 194.052 50.6694 194.095 56.5524C194.138 62.4355 196.062 67.1907 198.394 67.1737Z" fill="#C4F4F4"/>
<mask id="mask2_2010_8709" style="mask-type:luminance" maskUnits="userSpaceOnUse" x="194" y="45" width="9" height="23">
<path d="M194.07 56.5231C194.112 62.4041 196.039 67.1589 198.366 67.1422C200.693 67.1255 202.554 62.3457 202.512 56.4648C202.47 50.5838 200.543 45.8291 198.216 45.8457C195.889 45.8624 194.028 50.6422 194.07 56.5231Z" fill="white"/>
</mask>
<g mask="url(#mask2_2010_8709)">
<path d="M202.112 60.6694C202.011 60.3608 202.162 60.9448 202.086 60.6445C202.212 60.7946 202.22 60.8112 202.112 60.6778C202.07 60.6277 202.028 60.5861 201.978 60.5444C201.936 60.5026 201.886 60.4526 201.836 60.4192C201.953 60.511 201.97 60.5192 201.886 60.4525C201.753 60.3607 201.619 60.269 201.478 60.1856C201.236 60.0438 200.985 59.9187 200.727 59.8019C201.019 59.9354 200.618 59.7685 200.593 59.7518C200.476 59.7101 200.36 59.6684 200.235 59.635C198.925 59.2346 197.624 58.9176 196.364 58.3671C193.887 57.2826 192.318 54.972 191.768 52.3694C191.601 51.5602 192.01 50.7177 192.835 50.4841C193.595 50.2756 194.546 50.7428 194.721 51.5519C194.796 51.9023 194.879 52.2443 194.988 52.5863C195.038 52.7364 195.088 52.8783 195.146 53.0284C195.188 53.1285 195.179 53.1202 195.146 53.0117C195.188 53.1035 195.23 53.1869 195.271 53.2786C195.396 53.5372 195.538 53.7791 195.697 54.021C195.713 54.0461 195.98 54.4048 195.78 54.1545C195.863 54.263 195.955 54.3631 196.047 54.4632C196.231 54.655 196.422 54.8302 196.623 55.0054C196.881 55.239 196.456 54.9136 196.731 55.0805C196.856 55.1639 196.981 55.2473 197.115 55.3224C197.232 55.3891 197.34 55.4475 197.457 55.5143C197.498 55.5393 197.932 55.7395 197.69 55.631C197.991 55.7562 198.299 55.8645 198.608 55.973C200.902 56.7571 204.205 57.1575 205.073 59.8519C205.323 60.6361 204.781 61.5203 204.005 61.7372C203.179 61.9624 202.378 61.4619 202.12 60.6694H202.112Z" fill="#1B9E9F"/>
<path d="M204.322 56.4485C203.496 55.606 201.953 55.8062 200.877 55.6227C199.476 55.3891 198.099 54.6467 197.224 53.5122C196.565 52.6614 196.172 51.6604 195.672 50.7094C195.246 49.8836 194.763 49.0828 193.845 48.8325C192.661 48.5072 193.161 46.6637 194.354 46.989C196.823 47.6647 197.315 50.2339 198.55 52.1108C199.226 53.1368 200.452 53.6874 201.67 53.8125C203.096 53.9627 204.598 53.9961 205.674 55.0888C206.533 55.9731 205.182 57.3244 204.322 56.4402V56.4485Z" fill="#1B9E9F"/>
<path d="M201.377 65.4907C201.235 64.4396 200.351 63.6137 199.508 63.0799C198.466 62.4125 197.29 62.0706 196.13 61.6702C194.862 61.2281 193.619 60.7275 192.568 59.8934C191.517 59.0592 190.775 57.9331 190.316 56.6735C190.141 56.1896 190.516 55.6307 190.983 55.4972C191.517 55.3471 191.984 55.6808 192.159 56.1646C193.135 58.834 195.796 59.4846 198.199 60.3605C200.601 61.2363 202.937 62.7629 203.296 65.4907C203.362 65.9995 202.812 66.4416 202.345 66.4416C201.769 66.4416 201.46 65.9995 201.394 65.4907H201.377Z" fill="#1B9E9F"/>
</g>
<path d="M197.223 45.1956C197.173 45.8879 197.698 46.4885 198.391 46.5386C199.083 46.5886 199.684 46.0631 199.734 45.3707C199.784 44.6784 199.258 44.0778 198.566 44.0277C197.874 43.9777 197.273 44.5032 197.223 45.1956Z" fill="#EFEFF1"/>
<path d="M247.665 180.615L254.923 233.91H177.937L155.989 233.443C155.989 233.443 152.578 158.993 154.038 144.203C155.497 129.413 160.052 93.0011 177.928 77.2351C180.206 76.426 188.981 75.2832 188.981 75.2832L220.029 101.451L217.643 83.9503L232.058 107.14C232.058 107.14 239.699 121.605 243.92 128.595C248.149 135.586 248.308 148.424 247.657 156.882C247.006 165.333 247.657 180.615 247.657 180.615H247.665Z" fill="#C4F4F4"/>
<path d="M219.604 98.8823C221.247 104.304 222.807 109.743 224.15 115.241C225.535 120.729 226.786 126.243 227.879 131.791C230.098 142.877 231.891 154.055 233.335 165.274C234.094 170.88 234.761 176.494 235.353 182.125C235.954 187.747 236.413 193.386 236.896 199.025C237.355 204.664 237.731 210.312 238.023 215.967C238.356 221.615 238.573 227.279 238.782 232.934C238.857 227.27 238.765 221.606 238.632 215.942C238.456 210.278 238.189 204.614 237.847 198.958C237.138 187.647 236.004 176.361 234.569 165.116C233.802 159.502 232.968 153.888 232.017 148.299C231.066 142.71 230.048 137.129 228.813 131.599C227.604 126.06 226.244 120.554 224.743 115.09C223.199 109.635 221.514 104.221 219.612 98.8907L219.604 98.8823Z" fill="#6EB8B6"/>
<mask id="mask3_2010_8709" style="mask-type:luminance" maskUnits="userSpaceOnUse" x="153" y="75" width="103" height="161">
<path d="M232.141 106.982C232.141 106.982 239.782 121.446 244.003 128.437C248.232 135.427 248.391 148.265 247.74 156.724C247.09 165.174 247.74 180.456 247.74 180.456L255.214 235.395L156.056 233.284C156.056 233.284 152.644 158.834 154.104 144.044C155.564 129.254 160.118 92.8424 177.995 77.0765C180.272 76.2673 189.048 75.1245 189.048 75.1245L220.096 101.293L217.71 83.7916L232.124 106.982H232.141Z" fill="white"/>
</mask>
<g mask="url(#mask3_2010_8709)">
<path d="M170.371 83.7749C171.022 88.4797 172.874 93.0343 175.71 96.8464C177.128 98.7484 178.738 100.467 180.573 101.977C182.625 103.662 184.861 105.13 186.738 107.015C188.356 108.642 189.799 110.76 189.941 113.113C190.066 115.198 189.065 117.267 187.355 118.477C182.859 121.663 177.37 117.784 174.05 114.731C171.973 112.821 169.988 110.961 167.185 110.185C164.382 109.409 161.571 109.601 158.776 109.81C157.066 109.935 157.049 112.621 158.776 112.487C161.437 112.287 164.215 112.062 166.801 112.863C169.387 113.663 171.214 115.841 173.224 117.584C177.111 120.946 182.525 123.79 187.647 121.38C192.252 119.211 193.653 113.713 191.618 109.292C189.274 104.212 183.91 101.818 180.164 97.9809C176.202 93.9268 173.716 88.6548 172.94 83.0492C172.84 82.3235 171.923 81.9481 171.289 82.1149C170.513 82.3151 170.254 83.0492 170.354 83.7666L170.371 83.7749Z" fill="#ECA5BB"/>
<path d="M192.202 87.5367C194.012 89.8391 195.213 92.6836 195.547 95.5949C195.822 97.9556 195.288 100.934 192.285 100.625C189.541 100.341 188.039 97.747 187.13 95.4197C186.129 92.8504 185.487 90.0726 183.86 87.8036C183.376 87.128 182.834 86.5274 182.208 85.9768C181.691 85.518 180.99 85.0509 180.965 84.2918C180.907 82.6985 182.717 81.7141 183.877 81.0134C185.345 80.1209 184.002 77.8018 182.525 78.7027C181.049 79.6037 179.439 80.6631 178.705 82.3648C177.929 84.1583 178.321 85.9685 179.706 87.3282C180.331 87.9371 181.024 88.4543 181.549 89.155C182.075 89.8557 182.483 90.6482 182.842 91.449C183.585 93.1257 184.052 94.9108 184.744 96.6042C186.054 99.8074 188.206 102.785 191.876 103.261C195.547 103.736 198.124 100.959 198.308 97.3717C198.525 93.1591 196.656 88.8964 194.104 85.6431C193.036 84.2918 191.151 86.1937 192.21 87.5367H192.202Z" fill="#ECA5BB"/>
<path d="M215.75 104.829C217.56 107.857 218.745 111.252 219.079 114.764C219.337 117.45 219.312 122.138 215.859 122.848C214.307 123.165 212.555 122.222 211.279 121.421C209.961 120.595 208.91 119.477 208.468 117.959C207.984 116.299 207.951 114.556 207.459 112.896C206.966 111.236 206.241 109.676 205.298 108.258C204.355 106.84 203.171 105.438 203.847 103.561C204.464 101.843 206.124 100.75 207.734 100.075C208.41 99.7909 208.868 99.1903 208.668 98.4229C208.501 97.7889 207.684 97.2133 207.016 97.4886C203.513 98.9484 199.776 102.302 201.202 106.548C201.886 108.575 203.505 110.135 204.339 112.112C205.19 114.13 205.265 116.249 205.782 118.343C206.741 122.214 210.804 125.175 214.708 125.559C219.195 126.001 221.615 121.53 221.831 117.659C222.107 112.746 220.547 107.666 218.053 103.486C217.168 102.01 214.849 103.353 215.742 104.838L215.75 104.829Z" fill="#ECA5BB"/>
<path d="M231.808 115.116C231.933 115.141 232.192 115.174 232.292 115.258C232.275 115.241 232.017 115.124 232.242 115.241C232.3 115.274 232.359 115.299 232.417 115.333C232.551 115.408 232.667 115.491 232.801 115.575C232.976 115.675 232.567 115.366 232.801 115.575C232.868 115.633 232.926 115.683 232.993 115.741C233.218 115.95 233.418 116.175 233.618 116.417C233.752 116.576 233.443 116.159 233.627 116.434C233.668 116.492 233.71 116.542 233.744 116.601C233.844 116.742 233.935 116.884 234.019 117.034C234.102 117.168 234.177 117.31 234.244 117.443C234.277 117.51 234.302 117.577 234.336 117.635C234.436 117.819 234.244 117.343 234.352 117.668C234.394 117.802 234.444 117.944 234.486 118.085C234.486 118.094 234.569 118.436 234.528 118.219C234.486 118.027 234.528 118.352 234.528 118.402C234.528 118.452 234.528 118.678 234.528 118.478C234.528 118.269 234.503 118.569 234.494 118.603C234.453 118.82 234.494 118.544 234.519 118.569C234.528 118.578 234.436 118.711 234.428 118.736C234.311 118.97 234.586 118.611 234.453 118.694C234.411 118.719 234.369 118.77 234.336 118.811C234.227 118.928 234.611 118.661 234.378 118.769L234.302 118.811C234.177 118.878 234.202 118.861 234.394 118.778C234.344 118.761 234.136 118.853 234.069 118.878C233.802 118.961 234.311 118.878 234.127 118.878C234.069 118.878 234.01 118.886 233.952 118.886C233.902 118.886 233.593 118.845 233.56 118.87C233.635 118.803 233.844 118.928 233.66 118.87C233.577 118.845 233.493 118.828 233.41 118.803C233.36 118.786 233.151 118.669 233.326 118.778C233.502 118.886 233.326 118.769 233.268 118.744C233.126 118.669 233.001 118.586 232.868 118.503C232.659 118.361 232.868 118.503 232.893 118.528C232.826 118.494 232.751 118.411 232.701 118.361C232.576 118.244 232.451 118.119 232.334 117.994C232.225 117.877 232.125 117.76 232.025 117.635C231.983 117.577 231.933 117.527 231.892 117.468C231.675 117.201 232 117.618 231.875 117.443C231.666 117.16 231.458 116.884 231.258 116.601C231.057 116.317 230.866 116.033 230.691 115.741C230.615 115.608 230.54 115.474 230.474 115.341C230.474 115.341 230.315 115.007 230.398 115.191C230.474 115.358 230.348 115.066 230.34 115.032C230.307 114.941 230.282 114.857 230.257 114.765C230.24 114.699 230.223 114.407 230.215 114.59C230.198 114.866 230.315 114.248 230.198 114.715C230.248 114.507 230.148 114.732 230.115 114.815L230.065 114.874C230.165 114.774 230.148 114.782 229.998 114.907L230.073 114.857C230.207 114.79 230.182 114.799 230.006 114.882C230.006 114.866 230.198 114.832 230.19 114.832C230.24 114.824 230.282 114.815 230.332 114.807C230.432 114.79 230.398 114.799 230.215 114.824C230.265 114.874 230.699 114.799 230.791 114.807C230.991 114.807 231.191 114.824 231.4 114.841C231.775 114.874 231.241 114.799 231.466 114.849C231.566 114.874 231.666 114.882 231.767 114.907C232 114.957 232.234 115.024 232.467 115.099C233.135 115.316 233.96 114.849 234.119 114.165C234.286 113.431 233.894 112.755 233.185 112.513C232.234 112.205 231.174 112.046 230.182 112.146C229.039 112.255 227.854 112.797 227.629 114.048C227.421 115.149 227.904 116.259 228.463 117.185C228.939 117.969 229.514 118.728 230.098 119.437C231.258 120.872 232.926 121.881 234.82 121.456C235.704 121.255 236.521 120.655 236.905 119.829C237.372 118.845 237.28 117.743 236.88 116.759C236.113 114.874 234.594 113.022 232.534 112.53C231.85 112.371 231.049 112.747 230.882 113.464C230.716 114.182 231.091 114.941 231.817 115.116H231.808Z" fill="#ECA5BB"/>
<path d="M200.101 117.967C200.151 118.126 200.193 118.276 200.234 118.443C200.276 118.609 200.243 118.459 200.234 118.434C200.243 118.501 200.243 118.576 200.251 118.643C200.251 118.81 200.251 118.968 200.251 119.135C200.251 119.135 200.226 119.36 200.251 119.235C200.268 119.127 200.226 119.385 200.218 119.41C200.076 120.103 199.926 120.47 199.625 121.028C199.558 121.154 199.484 121.287 199.4 121.412C199.367 121.462 199.333 121.521 199.292 121.571C199.292 121.571 199.166 121.746 199.242 121.637C199.317 121.529 199.192 121.696 199.192 121.696C199.133 121.754 199.083 121.821 199.016 121.879C198.975 121.921 198.925 121.963 198.883 122.004C198.733 122.146 199.033 121.913 198.866 122.021C198.783 122.071 198.474 122.188 198.708 122.121C198.649 122.138 198.591 122.146 198.533 122.171C198.382 122.221 198.566 122.146 198.591 122.171C198.566 122.155 198.374 122.188 198.541 122.188C198.749 122.188 198.441 122.196 198.441 122.163C198.441 122.163 198.374 122.138 198.499 122.205C198.432 122.171 198.366 122.13 198.299 122.096C198.224 122.063 198.149 121.946 198.299 122.096C198.257 122.055 198.215 122.021 198.174 121.979C198.132 121.938 198.099 121.896 198.057 121.854C198.074 121.871 198.174 122.021 198.09 121.888C198.015 121.771 197.949 121.654 197.89 121.529C197.99 121.746 197.874 121.429 197.849 121.345C197.849 121.312 197.807 121.079 197.823 121.22C197.84 121.362 197.823 121.112 197.823 121.112C197.823 120.962 197.823 120.803 197.84 120.653C197.832 120.795 197.89 120.386 197.899 120.328C197.94 120.153 197.99 119.977 198.04 119.802C198.14 119.477 198.257 119.16 198.382 118.843C198.482 118.584 198.649 118.151 198.716 117.992C198.716 117.992 198.833 117.725 198.883 117.633C198.941 117.508 199.008 117.383 199.075 117.258C199.158 117.116 199.242 116.974 199.333 116.841C199.375 116.783 199.408 116.724 199.45 116.666C199.367 116.774 199.475 116.641 199.509 116.607C199.567 116.549 199.625 116.482 199.684 116.424C199.8 116.307 199.784 116.399 199.709 116.399C199.659 116.399 199.609 116.424 199.55 116.432C199.425 116.432 199.317 116.324 199.492 116.432C199.325 116.324 199.317 116.324 199.458 116.474C199.5 116.516 199.55 116.566 199.592 116.616C199.442 116.449 199.634 116.682 199.659 116.716C199.859 117.008 200.034 117.316 200.176 117.642C200.176 117.642 200.259 117.85 200.218 117.742C200.184 117.658 200.268 117.892 200.276 117.909C200.343 118.109 200.401 118.309 200.459 118.518C200.635 119.193 201.427 119.669 202.111 119.452C202.795 119.235 203.229 118.534 203.045 117.8C202.603 116.057 201.352 113.496 199.192 113.779C198.115 113.921 197.34 114.889 196.822 115.773C196.355 116.574 196.03 117.467 195.696 118.334C195.004 120.178 194.779 122.33 196.272 123.856C196.948 124.549 197.907 124.932 198.875 124.807C199.842 124.682 200.635 124.14 201.227 123.389C202.528 121.729 203.371 119.335 202.67 117.258C202.445 116.591 201.736 116.09 201.018 116.324C200.359 116.541 199.842 117.258 200.084 117.975L200.101 117.967Z" fill="#ECA5BB"/>
</g>
<path d="M220.254 100.317C220.254 100.317 214.874 91.7664 213.214 89.3723C208.334 82.3319 201.077 77.6688 196.739 74.9577C186.337 71.1622 177.127 77.3435 177.127 77.3435C177.127 77.3435 197.39 90.7821 203.571 96.7381C209.744 102.694 217.118 112.779 217.118 112.779L220.263 100.317H220.254Z" fill="#6EB8B6"/>
<path d="M217.652 83.1997C217.652 83.1997 217.001 87.7543 219.061 100.325C226.152 104.93 233.059 108.809 232.608 108.992L230.873 98.4818C230.873 98.4818 226.102 88.405 217.652 83.1997Z" fill="#6EB8B6"/>
</g>
</g>
<defs>
<linearGradient id="paint0_linear_2010_8709" x1="226.203" y1="68.9611" x2="265.167" y2="68.9611" gradientUnits="userSpaceOnUse">
<stop stop-color="white"/>
<stop offset="1" stop-color="#DDDEE0"/>
</linearGradient>
<linearGradient id="paint1_linear_2010_8709" x1="197.282" y1="68.9611" x2="158.326" y2="68.9611" gradientUnits="userSpaceOnUse">
<stop stop-color="white"/>
<stop offset="1" stop-color="#DDDEE0"/>
</linearGradient>
<linearGradient id="paint2_linear_2010_8709" x1="145.096" y1="107.792" x2="281.292" y2="107.792" gradientUnits="userSpaceOnUse">
<stop offset="0.01" stop-color="white"/>
<stop offset="0.48" stop-color="#BBBCBE"/>
<stop offset="1" stop-color="white"/>
</linearGradient>
<clipPath id="clip0_2010_8709">
<rect width="292" height="130" fill="white"/>
</clipPath>
</defs>
</svg>
