<svg width="292" height="130" viewBox="0 0 292 130" fill="none" xmlns="http://www.w3.org/2000/svg">
<g clip-path="url(#clip0_2010_6317)">
<path d="M291.519 84.7671V394.697C291.519 403.431 284.445 410.505 275.712 410.505H15.357C6.62314 410.505 -0.450684 403.431 -0.450684 394.697V84.7671C-0.450684 76.0333 6.63149 68.9512 15.3653 68.9512H147.774C149.509 68.9512 150.919 70.3192 151.002 72.0543C152.612 104.195 179.189 129.763 211.739 129.763C244.288 129.763 270.857 104.195 272.475 72.0543C272.558 70.3192 273.968 68.9512 275.703 68.9512C284.437 68.9512 291.519 76.0333 291.519 84.7671Z" fill="white"/>
<path d="M265.167 68.9607C265.167 39.5059 241.202 15.54 211.747 15.54C182.292 15.54 158.334 39.5059 158.334 68.9607C158.334 98.4155 182.3 122.381 211.747 122.381C241.193 122.381 265.167 98.4238 265.167 68.9607Z" fill="white"/>
<path d="M211.746 119.77C183.726 119.77 160.937 96.9806 160.937 68.9606C160.937 40.9406 183.726 18.1509 211.746 18.1509C239.766 18.1509 262.556 40.9406 262.556 68.9606C262.556 96.9806 239.758 119.77 211.746 119.77Z" fill="#F2F2F2"/>
<path d="M265.167 68.9612C265.167 44.5115 248.659 23.8572 226.203 17.5342V20.2536C247.199 26.4932 262.556 45.9713 262.556 68.9612C262.556 91.951 247.199 111.429 226.203 117.669V120.388C248.659 114.065 265.167 93.4108 265.167 68.9612Z" fill="url(#paint0_linear_2010_6317)"/>
<path d="M158.326 68.9612C158.326 44.5115 174.834 23.8572 197.29 17.5342V20.2536C176.294 26.4932 160.937 45.9713 160.937 68.9612C160.937 91.951 176.294 111.429 197.29 117.677V120.396C174.834 114.073 158.326 93.4192 158.326 68.9695V68.9612Z" fill="url(#paint1_linear_2010_6317)"/>
<path d="M256.392 93.2026C247.766 109.019 230.991 119.771 211.746 119.771C192.502 119.771 175.718 109.019 167.101 93.2026H164.157C173.007 110.512 191.017 122.382 211.746 122.382C232.476 122.382 250.494 110.512 259.345 93.2026H256.4H256.392Z" fill="url(#paint2_linear_2010_6317)"/>
<mask id="mask0_2010_6317" style="mask-type:luminance" maskUnits="userSpaceOnUse" x="160" y="-5" width="103" height="125">
<path d="M211.747 119.771C183.727 119.771 160.937 96.981 160.937 68.961C160.937 40.941 183.735 -4.39648 211.747 -4.39648C239.758 -4.39648 262.556 40.9494 262.556 68.961C262.556 96.9726 239.758 119.771 211.747 119.771Z" fill="white"/>
</mask>
<g mask="url(#mask0_2010_6317)">
<path d="M280.032 87.621C275.87 83.9507 270.856 81.2062 265.517 79.688L264.783 79.4795C262.765 78.9122 260.554 78.2949 258.994 77.0603C257.426 74.6996 256.775 71.73 256.433 68.8771C256.592 66.8501 256.291 64.7145 255.524 62.6458C254.948 61.1109 254.239 59.9514 253.347 59.1005C252.212 58.0161 250.711 57.3738 249.384 56.7982L241.527 53.4282C239.458 52.5356 237.314 51.618 235.646 50.0581C234.661 49.1321 233.168 47.5639 232.526 45.9122C232.392 43.9019 232.492 42.4004 232.492 42.4004C232.492 42.4004 228.805 44.5692 225.56 45.8705C222.307 47.1718 218.412 58.0078 219.713 62.5624C221.014 67.117 223.617 74.9165 222.749 81.4147C221.882 87.9129 234.236 93.1182 241.602 94.4195C248.967 95.7209 258.944 116.308 261.972 121.947C265.009 127.586 270.422 124.116 271.724 119.562C272.967 115.216 275.202 106.924 280.866 100.15C282.626 98.9575 283.794 97.2975 284.07 95.5874C284.487 93.0348 283.127 90.3488 280.024 87.6127L280.032 87.621ZM238.131 56.281C234.394 55.4051 233.093 50.9506 232.659 47.3219C233.468 48.5816 234.553 49.6911 235.329 50.4168C237.055 52.0351 239.333 53.0111 241.343 53.8703L249.201 57.2403C250.552 57.8242 251.954 58.4165 253.021 59.4425C253.839 60.2267 254.498 61.3028 255.04 62.7293C252.045 58.9504 243.52 57.5406 238.131 56.281ZM283.602 95.5123C283.486 96.2547 283.169 96.9888 282.71 97.6728C285.821 90.9911 272.241 83.0163 265 81.2062C262.765 80.6473 261.113 79.5879 259.887 78.2199C261.338 79.0123 263.048 79.4962 264.65 79.9383L265.384 80.1469C270.648 81.6484 275.603 84.351 279.707 87.9797C282.676 90.599 283.986 93.1349 283.594 95.5207L283.602 95.5123Z" fill="#411504"/>
<path d="M186.388 13.9709C186.388 13.9709 196.306 5.02861 210.279 7.95657C224.259 10.8845 234.495 25.5076 233.844 38.0286C233.193 50.5412 228.48 56.7225 223.767 56.2303C219.054 55.7465 217.753 52.977 217.753 52.977C217.753 52.977 218.078 32.3311 216.126 28.4355C214.174 24.5316 193.854 9.90851 186.379 13.9709H186.388Z" fill="#411504"/>
<path d="M203.288 64.1961L205.84 80.8796L203.997 98.0052L227.078 77.8516L222.474 45.6606L203.288 64.1961Z" fill="#FDC0A3"/>
<path d="M203.288 65.172L223.442 48.5135C223.9 48.1882 223.125 64.6631 209.461 67.124C207.275 67.516 202.963 66.7987 203.288 65.172Z" fill="#411504"/>
<path d="M196.056 64.8808C195.605 70.7451 193.353 75.3581 191.034 75.1745C188.706 74.9994 187.188 70.0944 187.639 64.2301C188.089 58.3659 190.341 53.7529 192.66 53.9364C194.988 54.1116 196.506 59.0166 196.056 64.8808Z" fill="#C4F4F4"/>
<mask id="mask1_2010_6317" style="mask-type:luminance" maskUnits="userSpaceOnUse" x="187" y="53" width="10" height="23">
<path d="M196.064 64.8808C195.614 70.7451 193.362 75.3581 191.043 75.1745C188.715 74.9994 187.197 70.0944 187.647 64.2301C188.098 58.3659 190.35 53.7529 192.669 53.9364C194.997 54.1116 196.515 59.0166 196.064 64.8808Z" fill="white"/>
</mask>
<g mask="url(#mask1_2010_6317)">
<path d="M187.781 68.359C187.639 68.7177 187.898 68.3173 187.681 68.5508C187.764 68.4591 187.856 68.3756 187.948 68.2922C187.706 68.5007 188.014 68.2588 188.073 68.2171C188.19 68.1421 188.315 68.0753 188.448 68.0086C188.498 67.9836 188.857 67.8167 188.615 67.9168C188.748 67.8585 188.882 67.8084 189.024 67.7666C189.274 67.6749 189.533 67.5998 189.791 67.5414C191.034 67.2494 192.294 67.0659 193.495 66.6238C196.164 65.6478 197.899 63.504 198.675 60.8013C199.217 58.9077 196.264 58.0986 195.722 59.9922C195.63 60.3258 195.53 60.6511 195.397 60.9681C195.48 60.7679 195.305 61.16 195.288 61.1933C195.222 61.3351 195.147 61.4686 195.063 61.6104C194.988 61.7439 194.905 61.8691 194.821 61.9942C194.821 62.0026 194.538 62.3779 194.713 62.161C194.538 62.3862 194.337 62.5948 194.129 62.7866C194.029 62.8784 193.92 62.9701 193.812 63.0619C194.054 62.87 193.703 63.137 193.678 63.1454C193.453 63.2955 193.211 63.4207 192.969 63.5541C192.602 63.7543 193.236 63.4707 192.819 63.6208C192.669 63.6792 192.527 63.7293 192.377 63.7794C192.052 63.8878 191.726 63.9795 191.393 64.063C188.999 64.6886 185.887 64.8887 184.82 67.5414C184.511 68.3088 185.153 69.2181 185.887 69.4267C186.763 69.6686 187.464 69.1264 187.773 68.359H187.781Z" fill="#1B9E9F"/>
<path d="M185.887 64.0543C186.305 63.6789 186.905 63.6288 187.439 63.5955C188.123 63.5621 188.807 63.5788 189.483 63.487C190.851 63.3118 192.252 62.6946 193.161 61.6268C193.871 60.801 194.338 59.825 194.905 58.9074C195.389 58.1149 195.931 57.3976 196.874 57.2058C198.075 56.9638 197.566 55.1202 196.365 55.3622C193.912 55.8543 193.253 58.3736 191.927 60.1254C191.143 61.1598 189.883 61.6018 188.624 61.6519C187.147 61.7103 185.704 61.6602 184.528 62.7029C183.61 63.5204 184.962 64.8635 185.879 64.0543H185.887Z" fill="#1B9E9F"/>
<path d="M188.123 73.5143C188.615 71.1036 191.468 70.453 193.487 69.9191C194.763 69.5771 196.081 69.1934 197.191 68.4509C198.3 67.7085 199.184 66.6741 199.727 65.4562C199.935 64.989 199.86 64.4302 199.385 64.1466C198.976 63.9047 198.292 64.0131 198.075 64.4886C197.549 65.6731 196.715 66.5907 195.564 67.183C194.346 67.8086 192.97 68.0505 191.668 68.4259C189.358 69.0849 186.805 70.4362 186.28 72.9972C186.038 74.1984 187.873 74.7072 188.123 73.506V73.5143Z" fill="#1B9E9F"/>
</g>
<path d="M182.651 44.6856C182.651 44.6856 187.747 65.1646 201.178 66.4659C214.616 67.7672 223.609 56.5476 222.474 41.7576C221.44 28.3357 220.364 19.6519 214.508 15.0973C208.66 10.5427 187.631 9.03289 182.651 24.8489C177.662 40.6732 182.651 44.6772 182.651 44.6772V44.6856Z" fill="#FDC0A3"/>
<path d="M225.886 30.7127C219.955 30.304 222.232 25.5075 220.038 18.5254C217.844 11.535 200.535 7.14727 192.077 10.801C169.804 21.1197 176.636 39.4882 178.096 42.8249C179.556 46.1532 181.424 49.6485 178.58 55.8298C175.735 62.0027 179.314 66.7991 183.051 71.1118C182.459 69.8272 182.2 68.2256 182.175 66.4321C182.475 61.8358 183.501 57.3479 185.236 53.0769C185.361 52.7683 185.495 52.4597 185.62 52.151C186.179 50.8163 186.763 49.4316 187.03 47.9718C187.53 45.2273 186.871 42.4496 186.246 39.7552C186.087 39.0962 185.937 38.4205 185.795 37.7531C185.361 33.5072 185.528 30.9212 186.629 25.5157C186.688 25.2071 186.771 24.9152 186.863 24.6316C187.53 24.9235 188.273 25.2321 189.065 25.5324C191.468 27.084 194.212 28.5689 197.19 29.1194C198.074 29.2863 198.967 29.3697 199.868 29.3697C200.627 29.3697 201.386 29.3113 202.137 29.1945C203.255 29.0193 204.356 28.7107 205.415 28.4188C206.283 28.1768 207.175 27.9265 208.059 27.7514C209.444 27.4761 210.887 27.3843 212.305 27.4511C212.489 27.4844 212.672 27.5262 212.848 27.5595C213.14 28.327 213.365 29.111 213.515 29.9035C214.724 36.2182 221.314 38.2787 225.06 37.9533C228.797 37.628 231.808 37.1442 237.172 40.2306C236.605 38.604 231.808 31.1298 225.877 30.7211L225.886 30.7127ZM186.563 47.88C186.304 49.2898 185.737 50.6412 185.186 51.9592C185.053 52.2678 184.928 52.5765 184.803 52.8851C184.294 54.1364 183.852 55.4044 183.468 56.689C183.668 55.7797 183.893 54.8705 184.119 53.9612C185.628 47.9385 186.921 47.905 186.387 42.633C186.713 44.3848 186.88 46.1533 186.571 47.88H186.563ZM207.976 27.2676C207.067 27.4428 206.166 27.7013 205.29 27.9432C204.239 28.2352 203.154 28.5439 202.062 28.7107C200.468 28.9609 198.858 28.9359 197.273 28.6439C195.121 28.2435 193.086 27.3343 191.209 26.2665C194.804 27.4093 199.075 28.1935 202.879 27.3677C205.098 26.8839 207.359 26.8338 209.502 27.034C208.985 27.0924 208.476 27.1591 207.968 27.2592L207.976 27.2676Z" fill="#411504"/>
<path d="M225.393 43.659C227.669 43.659 229.514 41.8141 229.514 39.5383C229.514 37.2624 227.669 35.4175 225.393 35.4175C223.117 35.4175 221.272 37.2624 221.272 39.5383C221.272 41.8141 223.117 43.659 225.393 43.659Z" fill="#FDC0A3"/>
<path d="M222.665 42.5246C224.167 41.0064 225.752 39.5717 227.253 38.0535C227.504 37.8032 227.12 37.4195 226.87 37.6698C225.368 39.188 223.783 40.6228 222.282 42.141C222.031 42.3912 222.415 42.7749 222.665 42.5246Z" fill="#411504"/>
<path d="M207.325 38.6029C208.951 37.2265 211.104 37.1264 213.239 37.2015C214.549 37.2515 214.44 35.992 213.289 35.7C210.97 35.1244 208.601 36.0086 207.083 37.7521C206.432 38.4945 206.858 39.0033 207.333 38.6029H207.325Z" fill="#411504"/>
<path d="M212.738 37.5515C212.855 38.1772 212.438 38.7861 211.804 38.9029C211.178 39.0197 210.569 38.6026 210.453 37.9686C210.336 37.343 210.753 36.734 211.387 36.6173C212.013 36.5005 212.622 36.9176 212.738 37.5515Z" fill="#411504"/>
<path d="M200.702 56.9551C200.702 56.9551 202.812 58.9154 205.406 58.2147C207.325 57.6225 209.235 54.8613 209.235 54.8613L200.702 56.9551Z" fill="#D32E20"/>
<path d="M204.138 54.7028C204.138 54.7028 203.004 53.7017 202.253 54.953C201.494 56.2043 200.935 56.7298 200.618 56.9801C203.738 56.8216 207.992 55.6453 209.319 54.8195C208.176 54.8779 206.766 54.4525 206.182 54.1522C205.598 53.8519 204.872 53.3597 204.138 54.7194V54.7028Z" fill="#FC3827"/>
<path opacity="0.14" d="M193.67 56.8378C196.825 56.8378 199.384 54.2796 199.384 51.1238C199.384 47.9679 196.825 45.4097 193.67 45.4097C190.514 45.4097 187.956 47.9679 187.956 51.1238C187.956 54.2796 190.514 56.8378 193.67 56.8378Z" fill="#FC3827"/>
<path opacity="0.14" d="M213.098 50.8236C216.106 50.8236 218.545 48.3848 218.545 45.3764C218.545 42.368 216.106 39.9292 213.098 39.9292C210.089 39.9292 207.65 42.368 207.65 45.3764C207.65 48.3848 210.089 50.8236 213.098 50.8236Z" fill="#FC3827"/>
<path d="M196.556 41.931C194.446 41.6223 192.569 42.6817 190.8 43.8829C189.716 44.617 189.14 43.4909 189.966 42.64C191.626 40.9216 194.104 40.4128 196.314 41.0801C197.257 41.3637 197.165 42.0227 196.556 41.931Z" fill="#411504"/>
<path d="M195.731 42.0724C196.022 42.6397 195.789 43.3404 195.222 43.6324C194.654 43.9243 193.954 43.6908 193.662 43.1235C193.37 42.5563 193.603 41.8556 194.171 41.5636C194.738 41.2717 195.439 41.5052 195.731 42.0724Z" fill="#411504"/>
<path d="M200.96 36.3417C201.052 39.3114 201.152 42.281 201.244 45.2507C201.294 46.8606 200.944 50.9898 203.596 50.7896C204.047 50.7563 204.047 50.0556 203.596 50.089C202.136 50.1974 202.045 48.2203 202.003 47.2026C201.961 45.9931 201.928 44.7919 201.886 43.5823C201.811 41.1716 201.728 38.7525 201.653 36.3417C201.636 35.8913 200.935 35.8913 200.952 36.3417H200.96Z" fill="#411504"/>
<path d="M187.363 39.0791C187.363 39.0791 189.557 37.3691 191.668 37.0438C193.778 36.7185 196.464 36.5599 196.873 35.7424C197.282 34.9249 197.282 34.1992 196.389 34.1992C195.496 34.1992 191.267 34.683 189.399 36.0678C187.53 37.4525 185.495 40.2136 187.363 39.0708V39.0791Z" fill="#411504"/>
<path d="M214.457 33.1729C214.457 33.1729 211.755 32.5307 209.694 33.123C207.634 33.7069 205.131 34.6745 204.422 34.1072C203.713 33.54 203.413 32.8727 204.222 32.4973C205.031 32.1219 209.077 30.8122 211.354 31.2877C213.632 31.7632 216.626 33.4315 214.457 33.1729Z" fill="#411504"/>
<path d="M229.42 54.5494C229.463 48.6664 227.608 43.8834 225.277 43.8663C222.946 43.8492 221.021 48.6045 220.978 54.4875C220.935 60.3705 222.79 65.1535 225.121 65.1706C227.452 65.1877 229.376 60.4324 229.42 54.5494Z" fill="#C4F4F4"/>
<mask id="mask2_2010_6317" style="mask-type:luminance" maskUnits="userSpaceOnUse" x="220" y="43" width="10" height="23">
<path d="M229.414 54.529C229.373 60.4099 227.446 65.1647 225.118 65.148C222.791 65.1314 220.931 60.3516 220.972 54.4706C221.014 48.5897 222.941 43.8349 225.268 43.8516C227.596 43.8683 229.456 48.6481 229.414 54.529Z" fill="white"/>
</mask>
<g mask="url(#mask2_2010_6317)">
<path d="M221.373 58.6757C221.473 58.3671 221.323 58.9511 221.398 58.6508C221.273 58.801 221.265 58.8176 221.373 58.6841C221.415 58.634 221.457 58.5924 221.507 58.5507C221.548 58.509 221.598 58.4589 221.648 58.4256C221.532 58.5173 221.515 58.5257 221.598 58.459C221.732 58.3672 221.865 58.2754 222.007 58.192C222.249 58.0502 222.499 57.9251 222.758 57.8083C222.466 57.9417 222.866 57.7749 222.891 57.7582C223.008 57.7165 223.125 57.6747 223.25 57.6414C224.56 57.241 225.861 56.9241 227.121 56.3735C229.598 55.2891 231.166 52.9784 231.717 50.3757C231.884 49.5666 231.475 48.7241 230.649 48.4905C229.89 48.2819 228.939 48.7491 228.764 49.5583C228.689 49.9086 228.605 50.2506 228.497 50.5926C228.447 50.7428 228.397 50.8846 228.338 51.0348C228.297 51.1349 228.305 51.1265 228.338 51.0181C228.297 51.1098 228.255 51.1932 228.213 51.285C228.088 51.5436 227.946 51.7855 227.788 52.0274C227.771 52.0524 227.504 52.4111 227.705 52.1609C227.621 52.2693 227.529 52.3694 227.438 52.4695C227.254 52.6614 227.062 52.8366 226.862 53.0118C226.603 53.2453 227.029 52.92 226.754 53.0868C226.628 53.1702 226.503 53.2537 226.37 53.3288C226.253 53.3955 226.145 53.4539 226.028 53.5206C225.986 53.5456 225.552 53.7458 225.794 53.6374C225.494 53.7625 225.185 53.871 224.877 53.9794C222.583 54.7636 219.279 55.1639 218.412 57.8583C218.162 58.6424 218.704 59.5266 219.48 59.7435C220.305 59.9687 221.106 59.4682 221.365 58.6757H221.373Z" fill="#1B9E9F"/>
<path d="M219.171 54.4544C219.997 53.6119 221.54 53.8121 222.616 53.6286C224.017 53.395 225.394 52.6526 226.27 51.5181C226.929 50.6672 227.321 49.6662 227.821 48.7153C228.247 47.8894 228.73 47.0886 229.648 46.8384C230.833 46.513 230.332 44.6695 229.139 44.9949C226.67 45.6706 226.178 48.2398 224.943 50.1167C224.268 51.1428 223.041 51.6932 221.824 51.8184C220.397 51.9685 218.896 52.0019 217.819 53.0947C216.96 53.9789 218.312 55.3303 219.171 54.446V54.4544Z" fill="#1B9E9F"/>
<path d="M222.107 63.5053C222.249 62.4542 223.133 61.6284 223.975 61.0945C225.018 60.4272 226.194 60.0852 227.354 59.6848C228.622 59.2427 229.865 58.7422 230.916 57.908C231.967 57.0738 232.709 55.9477 233.168 54.6881C233.343 54.2043 232.968 53.6454 232.501 53.5119C231.967 53.3617 231.5 53.6955 231.324 54.1793C230.348 56.8486 227.687 57.4992 225.285 58.3751C222.883 59.251 220.547 60.7775 220.188 63.5053C220.121 64.0142 220.672 64.4563 221.139 64.4563C221.715 64.4563 222.023 64.0142 222.09 63.5053H222.107Z" fill="#1B9E9F"/>
</g>
<path d="M226.27 43.2005C226.32 43.8928 225.794 44.4934 225.102 44.5435C224.409 44.5935 223.809 44.068 223.759 43.3756C223.709 42.6832 224.234 42.0826 224.927 42.0326C225.619 41.9825 226.219 42.5081 226.27 43.2005Z" fill="#EFEFF1"/>
<path d="M175.818 178.629L168.561 231.925H245.547L267.494 231.458C267.494 231.458 270.906 157.007 269.446 142.218C267.986 127.428 263.432 91.0158 245.555 75.2499C243.278 74.4407 234.503 73.2979 234.503 73.2979L203.455 99.466L205.84 81.965L191.426 105.155C191.426 105.155 183.785 119.62 179.564 126.61C175.335 133.6 175.176 146.438 175.827 154.897C176.477 163.347 175.827 178.629 175.827 178.629H175.818Z" fill="#C4F4F4"/>
<path d="M203.889 96.8882C202.245 102.31 200.686 107.749 199.343 113.246C197.958 118.735 196.707 124.249 195.614 129.796C193.395 140.883 191.601 152.061 190.158 163.28C189.399 168.886 188.732 174.5 188.14 180.131C187.539 185.753 187.08 191.392 186.596 197.031C186.138 202.67 185.762 208.317 185.47 213.973C185.136 219.62 184.92 225.285 184.711 230.94C184.636 225.276 184.728 219.612 184.861 213.948C185.036 208.284 185.303 202.62 185.645 196.964C186.354 185.653 187.489 174.366 188.924 163.122C189.691 157.508 190.525 151.894 191.476 146.305C192.427 140.716 193.445 135.135 194.679 129.605C195.889 124.066 197.249 118.56 198.75 113.096C200.293 107.641 201.979 102.227 203.88 96.8965L203.889 96.8882Z" fill="#6EB8B6"/>
<mask id="mask3_2010_6317" style="mask-type:luminance" maskUnits="userSpaceOnUse" x="168" y="73" width="102" height="161">
<path d="M191.343 104.997C191.343 104.997 183.702 119.461 179.481 126.452C175.252 133.442 175.093 146.28 175.744 154.739C176.394 163.189 175.744 178.471 175.744 178.471L168.27 233.41L267.428 231.299C267.428 231.299 270.84 156.849 269.38 142.059C267.92 127.269 263.366 90.8575 245.489 75.0916C243.212 74.2824 234.436 73.1396 234.436 73.1396L203.388 99.3077L205.774 81.8067L191.36 104.997H191.343Z" fill="white"/>
</mask>
<g mask="url(#mask3_2010_6317)">
<path d="M250.536 81.0734C249.844 86.1118 247.766 90.925 244.438 94.7872C241.11 98.6494 235.854 101.152 232.843 105.59C230.065 109.686 230.174 115.225 234.269 118.428C238.791 121.965 244.78 119.913 248.859 116.759C251.136 114.999 253.063 112.447 255.716 111.254C258.502 110.003 261.756 110.303 264.709 110.52C266.427 110.645 266.419 107.967 264.709 107.842C262.131 107.65 259.52 107.5 256.976 108.051C254.431 108.601 252.546 109.894 250.728 111.563C247.266 114.724 242.82 118.945 237.673 117.268C235.612 116.601 234.069 114.741 233.652 112.639C233.21 110.395 234.219 108.151 235.554 106.407C237.131 104.347 239.308 102.82 241.343 101.252C243.379 99.6838 245.18 98.1239 246.765 96.1886C250.144 92.0678 252.396 87.0878 253.13 81.7991C253.23 81.0734 252.955 80.3727 252.196 80.1475C251.57 79.9723 250.644 80.3644 250.544 81.0817L250.536 81.0734Z" fill="#ECA5BB"/>
<path d="M229.39 83.6587C227.012 86.6784 225.502 90.2487 225.21 94.1026C224.952 97.5644 226.562 101.035 230.366 101.318C233.911 101.585 236.689 98.9909 238.14 96.0045C239.692 92.8013 240.134 88.7555 242.811 86.2113C244.321 84.7765 245.648 83.4335 245.064 81.1562C244.53 79.0374 242.728 77.7862 240.96 76.7101C239.483 75.8092 238.132 78.1281 239.608 79.0207C240.684 79.6713 242.044 80.4138 242.428 81.7068C242.861 83.1749 241.16 83.959 240.334 84.9016C238.482 87.0204 237.665 89.7232 236.747 92.3341C235.913 94.7115 234.728 97.6312 232.092 98.4403C231.1 98.7406 229.907 98.7907 229.031 98.1317C228.005 97.3559 227.83 95.9294 227.846 94.7366C227.905 91.4582 229.256 88.1132 231.275 85.5523C232.326 84.2093 230.449 82.299 229.381 83.6587H229.39Z" fill="#ECA5BB"/>
<path d="M205.424 101.493C203.155 105.297 201.82 109.618 201.637 114.047C201.478 117.859 202.838 122.722 207.201 123.507C209.269 123.874 211.38 123.014 213.148 121.997C214.917 120.979 216.368 119.653 217.169 117.851C218.045 115.882 218.003 113.68 218.604 111.628C219.246 109.459 220.522 107.849 221.632 105.939C222.741 104.029 222.791 101.668 221.69 99.6492C220.589 97.6305 218.545 96.3709 216.452 95.495C215.776 95.2114 214.984 95.7953 214.8 96.4293C214.583 97.1967 215.075 97.7973 215.734 98.0809C217.119 98.6565 218.52 99.5324 219.288 100.859C220.164 102.369 219.88 103.753 218.946 105.146C218.012 106.539 217.111 107.949 216.477 109.559C215.843 111.169 215.592 112.863 215.309 114.573C215.025 116.283 214.491 117.584 213.198 118.702C212.047 119.694 210.446 120.545 208.944 120.837C205.199 121.571 204.214 116.958 204.306 114.222C204.431 110.202 205.674 106.281 207.735 102.836C208.619 101.351 206.308 99.9995 205.424 101.484V101.493Z" fill="#ECA5BB"/>
<path d="M190.968 110.545C189.183 110.97 187.807 112.438 186.972 114.006C186.463 114.966 186.138 116.033 186.347 117.126C186.555 118.219 187.314 118.945 188.282 119.337C190.025 120.037 191.877 119.153 193.062 117.852C193.671 117.176 194.213 116.425 194.722 115.675C195.231 114.924 195.723 114.048 195.873 113.13C195.998 112.355 195.873 111.579 195.314 110.987C194.922 110.57 194.371 110.311 193.813 110.219C192.653 110.027 191.427 110.152 190.309 110.52C189.642 110.736 189.141 111.454 189.375 112.171C189.592 112.83 190.309 113.339 191.026 113.105C191.377 112.989 191.727 112.914 192.086 112.847C192.036 112.847 191.836 112.897 192.086 112.847C192.186 112.847 192.286 112.83 192.386 112.822C192.586 112.813 192.787 112.805 192.995 112.822C193.062 112.822 193.212 112.805 193.27 112.838C193.262 112.838 192.937 112.772 193.195 112.83C193.254 112.847 193.32 112.864 193.379 112.872C193.662 112.914 193.229 112.763 193.362 112.855C193.437 112.905 193.604 113.03 193.354 112.822C193.429 112.88 193.454 112.997 193.312 112.763C193.287 112.722 193.22 112.496 193.279 112.73C193.262 112.555 193.245 112.522 193.254 112.63C193.254 112.73 193.254 112.697 193.279 112.53C193.312 112.555 193.162 112.972 193.154 112.997C193.129 113.072 193.104 113.139 193.078 113.214C193.003 113.414 193.22 112.947 193.053 113.256C192.887 113.564 192.711 113.89 192.511 114.19C192.328 114.465 192.136 114.724 191.944 114.991C191.852 115.124 191.752 115.249 191.66 115.383C191.619 115.441 191.469 115.633 191.644 115.408C191.577 115.491 191.51 115.575 191.444 115.658C191.252 115.892 191.051 116.108 190.843 116.317C190.776 116.375 190.709 116.434 190.651 116.492C190.593 116.551 190.534 116.659 190.676 116.475C190.584 116.592 190.367 116.684 190.242 116.759C190.217 116.776 189.934 116.951 190.134 116.818C190.292 116.717 190.159 116.809 190.092 116.826C190.067 116.826 189.717 116.909 189.717 116.926C189.733 116.868 190.017 116.909 189.817 116.909C189.742 116.909 189.675 116.918 189.6 116.918C189.542 116.918 189.483 116.918 189.425 116.918C189.383 116.918 189.341 116.918 189.3 116.909C189.5 116.934 189.55 116.943 189.441 116.926C189.416 116.909 189.108 116.809 189.074 116.818C189.191 116.767 189.316 116.943 189.166 116.851L189.091 116.809C188.999 116.742 188.999 116.751 189.091 116.818C189.175 116.976 189.15 116.818 189.066 116.792C188.824 116.726 189.2 116.617 189.083 116.851C189.083 116.851 188.983 116.701 188.991 116.709C188.833 116.476 189.024 116.918 188.966 116.651C188.966 116.617 188.916 116.501 188.924 116.45C188.874 116.692 188.933 116.601 188.941 116.501C188.941 116.417 188.941 116.325 188.949 116.242C188.949 116.05 188.858 116.551 188.958 116.234C188.999 116.1 189.033 115.958 189.074 115.817C189.074 115.817 189.208 115.483 189.125 115.675C189.049 115.85 189.175 115.566 189.191 115.541C189.35 115.216 189.542 114.907 189.75 114.607C189.8 114.54 189.842 114.457 189.9 114.398C189.742 114.549 189.859 114.448 189.942 114.348C190.05 114.215 190.167 114.09 190.284 113.973C190.401 113.856 190.526 113.739 190.659 113.631C190.851 113.464 190.643 113.631 190.626 113.656C190.676 113.589 190.801 113.531 190.876 113.489C190.993 113.414 191.177 113.281 191.318 113.256C191.227 113.297 191.035 113.306 191.318 113.256C191.427 113.222 191.544 113.189 191.66 113.164C192.344 112.997 192.812 112.188 192.595 111.512C192.361 110.803 191.677 110.403 190.943 110.578L190.968 110.545Z" fill="#ECA5BB"/>
<path d="M220.806 115.265C220.197 117.092 220.789 119.178 221.79 120.763C222.324 121.597 223.025 122.331 223.968 122.673C224.835 122.99 225.87 122.865 226.637 122.339C228.414 121.121 228.622 118.927 228.013 117.009C227.73 116.108 227.363 115.199 226.954 114.348C226.545 113.497 225.97 112.579 225.135 112.087C222.691 110.652 220.931 113.889 220.447 115.808C220.281 116.483 220.664 117.292 221.382 117.459C222.099 117.626 222.85 117.251 223.033 116.525C223.092 116.283 223.217 115.874 223.275 115.741C223.334 115.591 223.542 115.19 223.684 114.957C223.767 114.815 223.859 114.673 223.959 114.548C223.834 114.715 224.034 114.481 224.084 114.431C224.143 114.373 224.151 114.314 224.143 114.381C224.143 114.423 223.901 114.49 224.068 114.423C224.21 114.373 224.034 114.44 224.009 114.431C223.934 114.431 223.868 114.406 223.801 114.398C223.767 114.398 223.684 114.256 223.784 114.373C223.834 114.44 223.909 114.49 223.968 114.548C224.018 114.598 224.059 114.648 224.101 114.698C224.084 114.673 224.018 114.581 224.101 114.707C224.293 114.973 224.451 115.265 224.602 115.557C224.677 115.708 224.743 115.858 224.81 116.008C224.743 115.866 224.877 116.175 224.894 116.216C225.027 116.542 225.152 116.867 225.269 117.192C225.503 117.835 225.694 118.46 225.686 119.011C225.686 119.044 225.669 119.361 225.686 119.194C225.703 119.069 225.678 119.253 225.669 119.261C225.636 119.378 225.611 119.486 225.569 119.603C225.644 119.37 225.519 119.687 225.477 119.762C225.444 119.812 225.411 119.862 225.386 119.912C225.461 119.803 225.461 119.828 225.377 119.912C225.327 119.962 225.261 120.02 225.211 120.07C225.227 120.054 225.386 119.97 225.261 120.037C225.202 120.062 224.944 120.187 225.077 120.145C225.236 120.095 224.71 120.179 225.052 120.145C225.035 120.145 224.835 120.145 224.994 120.154C225.152 120.162 224.902 120.12 224.877 120.12C224.702 120.104 225.019 120.22 224.869 120.12C224.818 120.087 224.76 120.062 224.71 120.029C224.51 119.912 224.76 120.104 224.593 119.937C224.493 119.837 224.385 119.728 224.293 119.62C224.201 119.511 224.293 119.62 224.31 119.637C224.26 119.57 224.21 119.495 224.168 119.428C223.976 119.128 223.809 118.811 223.659 118.485C223.659 118.494 223.576 118.277 223.617 118.377C223.642 118.444 223.567 118.227 223.559 118.202C223.492 118.018 223.442 117.835 223.392 117.651C223.35 117.493 223.317 117.326 223.292 117.167C223.3 117.234 223.309 117.376 223.292 117.101C223.292 117.009 223.284 116.917 223.284 116.817C223.284 116.392 223.284 116.383 223.442 115.941C223.667 115.274 223.183 114.448 222.508 114.289C221.765 114.123 221.098 114.515 220.856 115.224L220.806 115.265Z" fill="#ECA5BB"/>
</g>
<path d="M203.238 98.3309C203.238 98.3309 208.619 89.7806 210.279 87.3865C215.159 80.346 222.416 75.683 226.754 72.9719C237.156 69.1764 246.365 75.3576 246.365 75.3576C246.365 75.3576 226.103 88.7962 219.922 94.7523C213.749 100.708 206.375 110.793 206.375 110.793L203.23 98.3309H203.238Z" fill="#6EB8B6"/>
<path d="M205.84 81.2061C205.84 81.2061 206.491 85.7607 204.431 98.3317C197.34 102.936 190.433 106.815 190.884 106.999L192.619 96.4882C192.619 96.4882 197.39 86.4113 205.84 81.2061Z" fill="#6EB8B6"/>
</g>
</g>
<defs>
<linearGradient id="paint0_linear_2010_6317" x1="226.203" y1="68.9611" x2="265.167" y2="68.9611" gradientUnits="userSpaceOnUse">
<stop stop-color="white"/>
<stop offset="1" stop-color="#DDDEE0"/>
</linearGradient>
<linearGradient id="paint1_linear_2010_6317" x1="197.282" y1="68.9611" x2="158.326" y2="68.9611" gradientUnits="userSpaceOnUse">
<stop stop-color="white"/>
<stop offset="1" stop-color="#DDDEE0"/>
</linearGradient>
<linearGradient id="paint2_linear_2010_6317" x1="145.087" y1="107.792" x2="281.292" y2="107.792" gradientUnits="userSpaceOnUse">
<stop offset="0.01" stop-color="white"/>
<stop offset="0.48" stop-color="#BBBCBE"/>
<stop offset="1" stop-color="white"/>
</linearGradient>
<clipPath id="clip0_2010_6317">
<rect width="292" height="130" fill="white"/>
</clipPath>
</defs>
</svg>
