<svg width="29" height="29" viewBox="0 0 29 29" fill="none" xmlns="http://www.w3.org/2000/svg">
<path d="M14.4475 0.678711C6.63127 0.678711 0.283203 7.01843 0.283203 14.843C0.283203 22.6676 6.63127 29.0073 14.4475 29.0073C22.2637 29.0073 28.612 22.6592 28.612 14.843C28.612 7.02677 22.2637 0.678711 14.4475 0.678711ZM22.8477 15.7189C22.8477 15.7189 22.7978 15.7773 22.7728 15.8106L17.1254 21.458C16.9168 21.6582 16.6581 21.7583 16.3828 21.7583C16.1076 21.7583 15.8574 21.6582 15.6489 21.458C15.2485 21.0493 15.2485 20.3903 15.6489 19.9899L19.7529 15.8857H6.30593C5.73035 15.8857 5.27156 15.4186 5.27156 14.8514C5.27156 14.2841 5.73869 13.817 6.30593 13.817H19.7529L15.6489 9.7128C15.2485 9.30405 15.2485 8.64505 15.6489 8.24464C16.0576 7.8359 16.7166 7.8359 17.1254 8.24464L22.7728 13.892C22.7728 13.892 22.831 13.9504 22.8477 13.9838C23.1397 14.1673 23.3232 14.4843 23.3232 14.8514C23.3232 15.2184 23.1397 15.5437 22.8477 15.7189Z" fill="#FFA451"/>
</svg>
