<svg width="292" height="130" viewBox="0 0 292 130" fill="none" xmlns="http://www.w3.org/2000/svg">
<g clip-path="url(#clip0_2010_7191)">
<path d="M291.527 84.768V523.344C291.527 532.078 284.453 539.152 275.719 539.152H15.3643C6.63045 539.152 -0.443359 532.078 -0.443359 523.344V84.7764C-0.443359 76.0426 6.63879 68.9604 15.3726 68.9604H147.781C149.516 68.9604 150.926 70.3285 151.01 72.0636C152.62 104.204 179.196 129.772 211.746 129.772C244.296 129.772 270.864 104.204 272.482 72.0636C272.566 70.3285 273.976 68.9604 275.711 68.9604C284.444 68.9604 291.527 76.0426 291.527 84.7764V84.768Z" fill="white"/>
<path d="M265.167 68.9607C265.167 39.5059 241.201 15.54 211.746 15.54C182.292 15.54 158.334 39.5059 158.334 68.9607C158.334 98.4155 182.3 122.381 211.746 122.381C241.193 122.381 265.167 98.4238 265.167 68.9607Z" fill="white"/>
<path d="M211.754 119.77C183.734 119.77 160.944 96.9806 160.944 68.9606C160.944 40.9406 183.734 18.1509 211.754 18.1509C239.774 18.1509 262.564 40.9406 262.564 68.9606C262.564 96.9806 239.766 119.77 211.754 119.77Z" fill="#F2F2F2"/>
<path d="M265.166 68.9612C265.166 44.5115 248.658 23.8572 226.202 17.5342V20.2536C247.198 26.4932 262.556 45.9713 262.556 68.9612C262.556 91.951 247.198 111.429 226.202 117.669V120.388C248.658 114.065 265.166 93.4108 265.166 68.9612Z" fill="url(#paint0_linear_2010_7191)"/>
<path d="M158.325 68.9612C158.325 44.5115 174.834 23.8572 197.29 17.5342V20.2536C176.293 26.4932 160.936 45.9713 160.936 68.9612C160.936 91.951 176.293 111.429 197.29 117.677V120.396C174.834 114.073 158.325 93.4192 158.325 68.9695V68.9612Z" fill="url(#paint1_linear_2010_7191)"/>
<path d="M256.399 93.2026C247.774 109.019 230.999 119.771 211.754 119.771C192.51 119.771 175.726 109.019 167.109 93.2026H164.165C173.015 110.512 191.025 122.382 211.754 122.382C232.484 122.382 250.502 110.512 259.352 93.2026H256.408H256.399Z" fill="url(#paint2_linear_2010_7191)"/>
<mask id="mask0_2010_7191" style="mask-type:luminance" maskUnits="userSpaceOnUse" x="160" y="-5" width="103" height="125">
<path d="M211.755 119.771C183.735 119.771 160.945 96.981 160.945 68.961C160.945 40.941 183.743 -4.39648 211.755 -4.39648C239.767 -4.39648 262.565 40.9494 262.565 68.961C262.565 96.9726 239.767 119.771 211.755 119.771Z" fill="white"/>
</mask>
<g mask="url(#mask0_2010_7191)">
<path d="M282.293 59.7762C281.96 57.4322 281.526 54.9963 280.717 52.7607C279.958 50.667 278.631 49.0737 276.955 47.6472C275.236 46.1874 273.451 44.8027 271.649 43.4513C269.747 42.0165 267.787 40.6569 265.71 39.4807C263.624 38.2962 261.456 37.2701 259.295 36.2274C257.66 35.4349 256.042 34.6174 254.465 33.7165C252.013 32.0315 249.435 29.8543 246.666 26.7428C236.23 14.981 223.968 1.40056 206.909 10.6766C206.909 10.6766 189.516 -0.751602 170.464 37.1784C169.071 39.7727 167.16 44.3439 163.749 49.057C159.77 52.3604 155.282 55.1549 151.286 58.3498C147.908 61.0525 144.754 64.139 142.636 67.9428C140.267 72.1971 139.374 77.1354 139.724 81.9652C140.125 87.4625 142.068 92.8179 145.205 97.3475C145.38 97.6061 145.805 97.3642 145.622 97.1056C140.033 89.0391 138.098 77.8361 142.694 68.8604C146.765 60.9023 154.981 56.3977 161.838 51.1758C162.089 50.9839 162.339 50.7921 162.581 50.5919C160.512 53.2029 157.951 55.7888 154.714 58.0494C137.489 70.0865 146.097 94.1609 146.097 94.1609C146.097 94.1609 183.702 94.3778 205.733 87.3123C227.763 80.2469 235.329 77.3689 235.329 77.3689L275.086 74.4994C275.086 74.4994 284.704 57.8158 272.984 45.4533C272.392 44.8277 271.799 44.2605 271.207 43.7433C272.2 44.4858 273.176 45.2532 274.143 46.0206C275.845 47.372 277.705 48.69 278.982 50.4751C280.3 52.327 280.783 54.6209 281.242 56.8065C281.751 59.2339 282.101 61.7032 282.143 64.189C282.227 69.119 280.967 74.1908 277.614 77.9279C277.405 78.1614 277.747 78.5035 277.956 78.2699C280.75 75.1584 282.177 71.1127 282.535 66.9918C282.744 64.5811 282.602 62.1536 282.26 59.7595L282.293 59.7762Z" fill="#411504"/>
<path d="M189.833 67.468C191.943 65.6078 192.193 62.6548 191.151 60.1773C190.967 59.7519 190.784 59.3348 190.517 58.9511C190.266 58.5924 189.999 58.2587 189.716 57.9251C189.407 57.558 189.949 58.3255 189.799 58.0335C189.766 57.9918 189.741 57.9417 189.716 57.8917C189.616 57.7082 189.649 57.7999 189.816 58.1753C189.841 58.1252 189.724 57.8249 189.707 57.7749C189.616 57.4996 189.716 58.459 189.741 57.9251C189.741 57.8166 189.741 57.6998 189.741 57.583C189.749 57.0158 189.582 58.2087 189.741 57.6248C189.899 57.0409 190.099 56.4736 190.325 55.9063C190.575 55.2807 190.366 54.3297 190.049 53.7791C189.732 53.2286 189.057 52.6614 188.398 52.5113C187.689 52.3528 186.896 52.3861 186.271 52.7865C185.645 53.1869 185.286 53.7291 185.003 54.4382C184.527 55.6227 184.127 56.8823 184.227 58.1753C184.302 59.0845 184.502 59.9688 184.978 60.7529C185.195 61.1116 185.478 61.4453 185.753 61.7706C186.029 62.0959 185.778 61.8457 185.678 61.6538C185.72 61.7289 185.778 61.7956 185.829 61.8707C185.92 62.0125 186.004 62.1627 186.079 62.3129C186.112 62.3796 186.145 62.463 186.179 62.5297C185.795 61.8624 185.987 62.0375 186.062 62.2628C186.12 62.4379 186.179 62.6215 186.229 62.805C186.254 62.9051 186.262 63.0135 186.296 63.1136C186.379 63.4306 186.254 62.3796 186.246 62.8217C186.246 62.9802 186.196 63.6391 186.271 63.0969C186.346 62.5547 186.212 63.222 186.179 63.3722C186.07 63.8143 186.421 62.9301 186.271 63.147C186.246 63.1804 186.104 63.4557 186.095 63.4473C186.07 63.4306 186.554 62.9385 186.254 63.2304C186.145 63.3389 186.037 63.4473 185.92 63.5558C184.836 64.5151 184.869 66.492 185.92 67.4597C187.08 68.5191 188.665 68.4857 189.824 67.4597L189.833 67.468Z" fill="#00BA6B"/>
<path d="M233.811 66.125L223.809 70.3209L219.671 88.873L233.811 66.125Z" fill="#FBE69C"/>
<path d="M225.635 53.8623L226.353 79.1545L208.96 105.164L200.51 103.896L205.206 86.003L202.111 67.451L225.635 53.8623Z" fill="#FAAF86"/>
<path d="M201.886 67.9429C201.886 68.1264 204.205 68.4683 205.748 68.827C212.872 70.487 225.293 63.6885 226.294 54.6377C217.235 58.5667 201.886 67.9429 201.886 67.9429Z" fill="#411504"/>
<path d="M185.437 31.4641C185.437 31.4641 181.241 61.6029 200.46 68.2263C209.52 71.0958 223.65 63.9219 226.086 53.0943C228.931 40.4148 226.971 28.3693 226.971 28.3693C226.971 28.3693 209.077 22.0045 202.946 22.7219C198.091 23.2892 185.445 31.4641 185.445 31.4641H185.437Z" fill="#FAAF86"/>
<path d="M181.841 34.5424L192.294 33.8417L193.119 28.9534L193.161 33.6081L198.074 33.166L198.408 31.1806L198.708 33.1409L210.887 32.0065L211.012 27.2183L211.663 32.0065L219.287 31.3975L219.796 29.8209L220.447 31.2307L231.825 30.4049C231.825 30.4049 223.609 11.4774 203.897 13.8381C190.742 15.106 182.842 27.9774 181.85 34.5424H181.841Z" fill="#411504"/>
<path d="M231.075 42.5167C229.114 44.2435 226.003 44.5688 224.126 42.5334C223.233 41.5574 222.908 40.3062 223.158 39.0132C223.192 38.8297 223.233 38.6462 223.283 38.4627C223.317 39.2301 223.542 40.0809 224.201 41.0569C226.462 44.427 230.774 42.4417 230.774 42.4417C230.774 42.4417 231.433 33.3825 229.723 30.1292C225.419 29.4119 221.882 29.3535 221.882 29.3535C221.882 29.3535 221.673 29.6704 221.623 30.2377C221.59 29.9874 221.206 29.9041 221.156 30.1877C220.964 31.3722 220.797 32.7152 221.673 33.6828C222.09 34.1416 222.666 34.2918 223.25 34.4002C223.333 34.4169 223.417 34.4253 223.5 34.442C223.617 34.8257 223.642 35.2011 223.609 35.5848C223.342 36.9779 222.658 38.2708 222.583 39.6972C222.516 41.0069 223.091 42.2665 224.051 43.1507C226.17 45.1027 229.356 44.6773 231.417 42.8671C231.65 42.6586 231.308 42.3165 231.075 42.5251V42.5167ZM222.057 33.3742C221.281 32.5734 221.456 31.3555 221.615 30.3545C221.582 31.0886 221.832 32.1897 223.041 33.5411C223.133 33.6579 223.208 33.7829 223.275 33.8997C222.833 33.8163 222.391 33.7079 222.065 33.3742H222.057Z" fill="#411504"/>
<path d="M185.161 48.4567C185.161 48.4567 188.306 39.5144 186.537 33.7169C182.725 33.5 182.066 33.5 182.066 33.5C182.066 33.5 180.907 43.7186 185.161 48.4651V48.4567Z" fill="#411504"/>
<path d="M203.539 37.028C202.88 39.8392 202.212 42.642 201.603 45.4615C201.295 46.8713 201.011 48.2811 200.736 49.6992C200.669 50.0662 200.477 50.5584 200.803 50.8504C201.161 51.1757 201.812 51.2591 202.271 51.3258C202.729 51.3925 202.896 50.7251 202.454 50.6584C202.221 50.625 201.637 50.6001 201.47 50.4249C201.27 50.208 201.411 49.8576 201.462 49.624C201.578 49.0067 201.703 48.3895 201.829 47.7638C202.062 46.6127 202.312 45.4699 202.563 44.327C203.088 41.9496 203.647 39.5806 204.206 37.2115C204.306 36.7777 203.639 36.5942 203.539 37.028Z" fill="#411504"/>
<path opacity="0.14" d="M209.661 40.164C210.687 39.505 211.955 39.113 213.473 39.113C214.583 39.113 215.559 39.3298 216.409 39.6969C216.034 37.9785 214.474 36.6938 212.597 36.6938C210.445 36.6938 208.702 38.3956 208.702 40.4894C208.702 40.6062 208.702 40.723 208.718 40.8314C209.002 40.5812 209.319 40.3643 209.653 40.1724L209.661 40.164Z" fill="#FC3827"/>
<path d="M209.244 40.8235C211.129 39.7391 213.307 40.0311 215.425 40.5065C216.727 40.7985 216.852 39.5138 215.751 39.0133C213.532 38.0123 210.996 38.4544 209.152 39.9309C208.368 40.5565 208.702 41.1405 209.244 40.8319V40.8235Z" fill="#411504"/>
<path d="M213.607 40.9155C213.607 41.5661 213.081 42.0999 212.422 42.0999C211.763 42.0999 211.246 41.5745 211.246 40.9155C211.246 40.2565 211.772 39.7393 212.422 39.7393C213.073 39.7393 213.607 40.2648 213.607 40.9155Z" fill="#411504"/>
<path d="M217.903 37.254C217.945 37.3707 217.986 37.4876 218.036 37.596C218.111 37.7712 218.245 37.8879 218.42 37.9546C218.52 37.9963 218.62 38.0297 218.72 38.0631C218.662 38.0798 218.595 38.0965 218.537 38.1215C218.42 38.1632 218.303 38.2133 218.203 38.2967C218.095 38.3884 218.028 38.5136 217.986 38.6471C217.961 38.7221 217.936 38.7971 217.911 38.8806C217.895 38.8305 217.886 38.7889 217.87 38.7472C217.828 38.6304 217.786 38.5136 217.711 38.4051C217.611 38.2717 217.477 38.1965 217.319 38.1381C217.244 38.1131 217.169 38.0881 217.094 38.0631C217.119 38.0631 217.144 38.0464 217.169 38.038C217.261 38.0047 217.352 37.9796 217.444 37.9379C217.636 37.8545 217.753 37.7044 217.828 37.5125C217.861 37.4291 217.886 37.3457 217.911 37.2623C217.911 37.2623 217.911 37.2539 217.911 37.2456L217.903 37.254Z" fill="white"/>
<path d="M215.309 37.0867C215.384 37.0867 215.45 37.0867 215.526 37.0783C215.592 37.0783 215.659 37.0616 215.726 37.0449C215.826 37.0199 215.893 36.9532 215.909 36.8531C215.934 36.7697 215.934 36.6778 215.943 36.5861C215.943 36.536 215.943 36.486 215.943 36.4443C215.943 36.5194 215.943 36.5862 215.951 36.6612C215.951 36.7196 215.968 36.7863 215.976 36.8447C216.001 36.9615 216.076 37.0282 216.193 37.0533C216.31 37.0783 216.418 37.0783 216.535 37.0867C216.552 37.0867 216.56 37.0867 216.577 37.0867C216.527 37.0867 216.476 37.0867 216.426 37.0867C216.351 37.0867 216.268 37.0949 216.193 37.1116C216.051 37.1366 215.984 37.2034 215.968 37.3536C215.951 37.462 215.951 37.5705 215.943 37.6789C215.943 37.6872 215.943 37.704 215.943 37.7123C215.943 37.6372 215.943 37.5705 215.934 37.4954C215.934 37.437 215.918 37.3702 215.909 37.3118C215.884 37.195 215.817 37.1283 215.701 37.1033C215.626 37.0866 215.542 37.0867 215.459 37.0783C215.409 37.0783 215.359 37.0783 215.3 37.0783L215.309 37.0867Z" fill="white"/>
<path d="M220.722 34.7595C220.722 34.7595 214.483 31.2809 208.018 33.6583C206.583 34.2088 206.308 35.8689 210.17 35.2016C214.032 34.5426 218.287 34.3757 220.714 34.7595H220.722Z" fill="#411504"/>
<path opacity="0.14" d="M197.466 41.0238C196.39 40.4565 195.089 40.1729 193.571 40.3064C192.461 40.3982 191.51 40.6985 190.701 41.1406C190.926 39.3972 192.37 37.979 194.238 37.8205C196.382 37.637 198.267 39.1802 198.442 41.2656C198.451 41.3824 198.459 41.4992 198.451 41.6077C198.142 41.3824 197.817 41.1906 197.458 41.0321L197.466 41.0238Z" fill="#FC3827"/>
<path d="M197.942 41.6329C195.973 40.7153 193.829 41.1991 191.752 41.8498C190.476 42.2502 190.242 40.9822 191.302 40.39C193.42 39.1971 195.99 39.4307 197.95 40.732C198.784 41.2909 198.509 41.8998 197.933 41.6329H197.942Z" fill="#411504"/>
<path d="M193.329 41.9671C193.387 42.6178 193.954 43.1015 194.605 43.0431C195.255 42.9848 195.739 42.4176 195.681 41.7669C195.622 41.1163 195.055 40.6324 194.405 40.6908C193.754 40.7492 193.27 41.3165 193.329 41.9671Z" fill="#411504"/>
<path d="M189.008 38.8306C188.974 38.9474 188.949 39.0724 188.907 39.1892C188.849 39.3727 188.724 39.4979 188.557 39.573C188.465 39.623 188.365 39.6647 188.265 39.7064C188.324 39.7231 188.39 39.7315 188.449 39.7481C188.574 39.7815 188.691 39.8149 188.799 39.89C188.916 39.9734 188.991 40.0901 189.049 40.2236C189.083 40.2987 189.108 40.3654 189.141 40.4488C189.149 40.3988 189.158 40.3571 189.174 40.3071C189.199 40.1819 189.233 40.0651 189.3 39.9567C189.383 39.8149 189.516 39.7231 189.667 39.6564C189.742 39.623 189.808 39.598 189.892 39.5646C189.867 39.5646 189.842 39.5563 189.817 39.5479C189.725 39.5229 189.633 39.4979 189.541 39.4729C189.341 39.4062 189.208 39.2726 189.124 39.0808C189.091 39.0057 189.058 38.9223 189.024 38.8389V38.8306H189.008Z" fill="white"/>
<path d="M191.577 38.4385C191.502 38.4385 191.435 38.4385 191.36 38.4385C191.293 38.4385 191.227 38.4385 191.16 38.4301C191.052 38.4134 190.993 38.355 190.96 38.2549C190.935 38.1715 190.918 38.0798 190.91 37.9963C190.91 37.9463 190.901 37.9045 190.893 37.8545C190.893 37.9296 190.893 37.9963 190.893 38.0714C190.893 38.1298 190.893 38.1965 190.885 38.2549C190.876 38.38 190.801 38.4468 190.684 38.4801C190.576 38.5135 190.459 38.5219 190.343 38.5386C190.326 38.5386 190.317 38.5386 190.301 38.5386C190.351 38.5386 190.401 38.5386 190.451 38.5386C190.526 38.5386 190.609 38.5386 190.684 38.5386C190.826 38.5553 190.901 38.6137 190.926 38.7555C190.951 38.8639 190.968 38.9723 190.985 39.0807C190.985 39.089 190.985 39.1058 190.985 39.1141C190.985 39.039 190.985 38.9723 190.985 38.8972C190.985 38.8388 190.985 38.7721 190.993 38.7137C191.002 38.5969 191.077 38.5218 191.185 38.4885C191.26 38.4718 191.343 38.4552 191.419 38.4385C191.469 38.4301 191.519 38.4218 191.569 38.4218L191.577 38.4385Z" fill="white"/>
<path d="M186.872 36.503C186.872 36.503 192.753 32.4489 199.409 34.209C200.894 34.6261 201.32 36.2444 197.407 35.9524C193.495 35.6605 189.249 35.8941 186.863 36.503H186.872Z" fill="#411504"/>
<path d="M197.524 57.5068C197.524 57.5068 199.459 59.9677 202.746 59.9093C205.207 59.8008 208.293 57.5318 208.293 57.5318L197.524 57.5068Z" fill="#D32E20"/>
<path d="M202.279 56.1304C202.279 56.1304 201.228 54.8625 199.96 55.9135C198.692 56.9646 197.858 57.3483 197.416 57.5152C201.169 58.1241 206.583 58.0157 208.402 57.5152C207.025 57.2983 205.474 56.5224 204.865 56.0803C204.256 55.6382 203.538 54.9793 202.27 56.1388L202.279 56.1304Z" fill="#FC3827"/>
<path opacity="0.14" d="M213.24 55.0216C216.455 55.0216 219.062 52.4147 219.062 49.199C219.062 45.9833 216.455 43.3765 213.24 43.3765C210.024 43.3765 207.417 45.9833 207.417 49.199C207.417 52.4147 210.024 55.0216 213.24 55.0216Z" fill="#FC3827"/>
<path opacity="0.14" d="M192.861 55.1888C195.924 55.1888 198.408 52.7052 198.408 49.6415C198.408 46.5779 195.924 44.0942 192.861 44.0942C189.797 44.0942 187.313 46.5779 187.313 49.6415C187.313 52.7052 189.797 55.1888 192.861 55.1888Z" fill="#FC3827"/>
<path d="M232.752 64.8479C234.862 62.9877 235.112 60.0347 234.069 57.5572C233.886 57.1318 233.702 56.7147 233.436 56.331C233.185 55.9723 232.918 55.6386 232.635 55.305C232.326 54.9379 232.868 55.7054 232.718 55.4134C232.685 55.3717 232.66 55.3216 232.635 55.2716C232.535 55.088 232.568 55.1798 232.735 55.5552C232.76 55.5051 232.643 55.2048 232.626 55.1548C232.535 54.8795 232.635 55.8388 232.66 55.305C232.66 55.1965 232.66 55.0797 232.66 54.9629C232.668 54.3957 232.501 55.5886 232.66 55.0047C232.818 54.4207 233.018 53.8535 233.244 53.2862C233.494 52.6606 233.285 51.7097 232.968 51.1591C232.651 50.6086 231.976 50.0413 231.317 49.8912C230.608 49.7327 229.815 49.766 229.19 50.1664C228.564 50.5668 228.205 51.109 227.922 51.8181C227.446 53.0026 227.046 54.2622 227.146 55.5552C227.221 56.4644 227.421 57.3487 227.897 58.1328C228.113 58.4915 228.397 58.8252 228.672 59.1505C228.948 59.4758 228.697 59.2256 228.597 59.0337C228.639 59.1088 228.697 59.1755 228.747 59.2506C228.839 59.3924 228.923 59.5426 228.998 59.6927C229.031 59.7595 229.064 59.8429 229.098 59.9096C228.714 59.2423 228.906 59.4174 228.981 59.6426C229.039 59.8178 229.098 60.0014 229.148 60.1849C229.173 60.285 229.181 60.3934 229.215 60.4935C229.298 60.8105 229.173 59.7595 229.165 60.2016C229.165 60.3601 229.114 61.019 229.19 60.4768C229.265 59.9346 229.131 60.602 229.098 60.7522C228.989 61.1943 229.34 60.31 229.19 60.5269C229.165 60.5603 229.023 60.8355 229.014 60.8272C228.989 60.8105 229.473 60.3183 229.173 60.6103C229.064 60.7188 228.956 60.8272 228.839 60.9356C227.755 61.895 227.788 63.8719 228.839 64.8395C229.999 65.8989 231.584 65.8656 232.743 64.8395L232.752 64.8479Z" fill="#00BA6B"/>
<path d="M234.32 46.0034C234.32 48.2473 232.501 50.0742 230.249 50.0742C227.997 50.0742 226.178 48.2557 226.178 46.0034C226.178 43.7511 227.997 41.9326 230.249 41.9326C232.501 41.9326 234.32 43.7511 234.32 46.0034Z" fill="#FAAF86"/>
<path d="M227.68 49.2315C229.607 48.2972 231.5 47.3046 233.369 46.2452C233.703 46.0533 233.402 45.5362 233.069 45.728C231.208 46.7791 229.307 47.78 227.38 48.7143C227.029 48.8812 227.338 49.3983 227.68 49.2315Z" fill="#411504"/>
<path d="M230.683 51.9849C231.475 51.9849 232.118 51.3424 232.118 50.55C232.118 49.7576 231.475 49.1152 230.683 49.1152C229.89 49.1152 229.248 49.7576 229.248 50.55C229.248 51.3424 229.89 51.9849 230.683 51.9849Z" fill="#00713E"/>
<path d="M183.226 102.569C183.226 102.569 172.407 106.765 166.659 117.593C160.92 128.412 155.615 152.053 151.861 158.017C148.107 163.981 150.092 175.91 150.092 175.91L170.413 182.759L183.226 102.578V102.569Z" fill="#071521"/>
<path d="M181.9 104.78C181.9 104.78 179.03 120.905 176.603 128.412C174.176 135.92 162.247 176.119 161.58 188.49C160.921 200.86 163.79 199.309 162.239 211.463C160.695 223.608 157.817 243.053 157.817 243.053L239.542 245.706C239.542 245.706 249.043 256.091 260.963 246.59C272.892 237.089 272.008 237.531 277.972 226.928C283.936 216.326 288.791 212.572 292.77 207.267C296.749 201.961 300.945 191.584 297.634 182.525C294.322 173.466 286.147 143.869 285.705 137.463C285.263 131.057 284.379 110.736 279.966 104.33C275.545 97.923 271.574 92.8429 263.624 89.9734C255.675 87.1038 244.405 77.6025 244.405 77.6025L207.96 104.33L193.604 130.614L197.14 101.235L181.9 104.772V104.78Z" fill="#071521"/>
<mask id="mask1_2010_7191" style="mask-type:luminance" maskUnits="userSpaceOnUse" x="136" y="77" width="163" height="174">
<path d="M297.658 182.584C294.347 173.525 286.172 143.928 285.73 137.522C285.288 131.115 284.403 110.795 279.991 104.388C275.569 97.9817 271.599 92.9016 263.649 90.032C255.699 87.1625 244.43 77.6611 244.43 77.6611L207.985 104.388L193.628 130.673L197.165 101.293L182.934 104.597L183.251 102.62C183.251 102.62 172.432 106.816 166.684 117.643C160.945 128.462 155.64 152.103 151.886 158.067C148.132 164.032 150.118 175.96 150.118 175.96L150.552 176.102C149.042 178.396 147.665 180.865 145.53 182.517C139.223 187.389 136.07 188.231 136.462 196.339C136.854 204.456 147.565 219.404 150.768 228.797C153.521 226.895 157.759 226.27 160.311 226.061C159.052 235.045 157.859 243.103 157.859 243.103L239.583 245.756C239.583 245.756 249.084 256.141 261.005 246.64C272.933 237.139 272.049 237.581 278.014 226.979C283.978 216.376 288.833 212.623 292.812 207.317C296.791 202.012 300.987 191.635 297.675 182.575L297.658 182.584Z" fill="white"/>
</mask>
<g mask="url(#mask1_2010_7191)">
<path d="M252.38 79.4967C251.913 79.4967 251.462 79.5967 251.045 79.7385C251.17 79.3548 251.254 78.9461 251.254 78.5206C251.254 76.3101 249.46 74.5083 247.241 74.5083C245.022 74.5083 243.229 76.3017 243.229 78.5206C243.229 79.0795 243.346 79.6051 243.546 80.0889C243.146 79.9554 242.728 79.8636 242.286 79.8636C240.076 79.8636 238.274 81.6572 238.274 83.8761C238.274 86.095 240.067 87.8884 242.286 87.8884C242.803 87.8884 243.287 87.78 243.746 87.6048C243.663 87.9302 243.604 88.2555 243.604 88.6058C243.604 90.8164 245.398 92.6182 247.617 92.6182C249.836 92.6182 251.629 90.8248 251.629 88.6058C251.629 88.1721 251.546 87.7716 251.421 87.3796C251.729 87.4547 252.046 87.5131 252.38 87.5131C254.59 87.5131 256.392 85.7195 256.392 83.5006C256.392 81.2817 254.599 79.4883 252.38 79.4883V79.4967ZM246.165 84.8771C246.249 84.5517 246.307 84.2264 246.307 83.8761C246.307 83.3172 246.19 82.7916 245.99 82.3078C246.39 82.4413 246.808 82.5331 247.25 82.5331C247.717 82.5331 248.167 82.4329 248.584 82.2911C248.459 82.6748 248.376 83.0836 248.376 83.509C248.376 83.9344 248.459 84.3432 248.584 84.7353C248.276 84.6602 247.959 84.6018 247.625 84.6018C247.108 84.6018 246.624 84.7102 246.165 84.8854V84.8771Z" fill="#00BA6B"/>
<path d="M249.936 83.6925C249.936 85.1273 248.768 86.2951 247.334 86.2951C245.899 86.2951 244.731 85.1273 244.731 83.6925C244.731 82.2577 245.899 81.0898 247.334 81.0898C248.768 81.0898 249.936 82.2577 249.936 83.6925Z" fill="#F6D04C"/>
<path d="M277.613 100.358C279.248 98.8486 279.273 97.0551 278.531 95.27C277.797 93.5099 276.487 92.3838 274.41 92.6257C274.135 88.4131 269.13 86.5362 266.519 89.2139C263.04 86.6947 259.462 88.2129 258.511 92.6507C256.367 92.5422 255.132 93.8269 254.398 95.6203C253.664 97.3971 253.856 99.0822 255.466 100.409C253.856 101.902 253.823 103.67 254.54 105.48C255.257 107.282 256.567 108.358 258.753 108.175C258.778 110.477 259.995 111.745 261.814 112.462C263.541 113.146 265.184 112.98 266.502 111.503C269.664 114.147 274.343 112.287 274.543 108.1C276.612 108.233 277.864 107.032 278.631 105.313C279.432 103.512 279.282 101.768 277.63 100.358H277.613Z" fill="#FCA346"/>
<path d="M217.219 119.161C217.219 121.163 215.593 122.79 213.591 122.79C211.589 122.79 209.962 121.163 209.962 119.161C209.962 117.159 211.589 115.532 213.591 115.532C215.593 115.532 217.219 117.159 217.219 119.161Z" fill="#F6D04C"/>
<path d="M231.8 94.0025C233.435 92.4926 233.46 90.6991 232.718 88.914C231.984 87.1539 230.674 86.0278 228.597 86.2697C228.322 82.0571 223.317 80.1802 220.706 82.8579C217.227 80.3387 213.649 81.8569 212.698 86.2947C210.554 86.1863 209.319 87.4709 208.585 89.2643C207.851 91.0411 208.043 92.7262 209.653 94.0525C208.043 95.5457 208.01 97.3141 208.727 99.1243C209.444 100.926 210.754 102.002 212.94 101.819C212.965 104.121 214.182 105.389 216.001 106.106C217.728 106.79 219.371 106.624 220.689 105.147C223.851 107.791 228.53 105.931 228.73 101.744C230.799 101.877 232.05 100.676 232.818 98.9575C233.619 97.1556 233.469 95.4122 231.817 94.0025H231.8Z" fill="#FCA346"/>
<path d="M224.442 94.0109C224.442 96.063 222.782 97.723 220.73 97.723C218.678 97.723 217.018 96.063 217.018 94.0109C217.018 91.9588 218.678 90.2988 220.73 90.2988C222.782 90.2988 224.442 91.9588 224.442 94.0109Z" fill="#FF5843"/>
<path d="M240.819 108.609C240.819 110.82 239.025 112.621 236.806 112.621C234.587 112.621 232.794 110.828 232.794 108.609C232.794 106.39 234.587 104.597 236.806 104.597C239.025 104.597 240.819 106.39 240.819 108.609Z" fill="#F6D04C"/>
<path d="M237.182 122.706C239.398 122.706 241.194 120.91 241.194 118.694C241.194 116.478 239.398 114.682 237.182 114.682C234.966 114.682 233.169 116.478 233.169 118.694C233.169 120.91 234.966 122.706 237.182 122.706Z" fill="#F6D04C"/>
<path d="M231.86 117.977C234.076 117.977 235.872 116.181 235.872 113.965C235.872 111.749 234.076 109.952 231.86 109.952C229.644 109.952 227.847 111.749 227.847 113.965C227.847 116.181 229.644 117.977 231.86 117.977Z" fill="#F6D04C"/>
<path d="M241.945 117.601C244.161 117.601 245.957 115.805 245.957 113.589C245.957 111.373 244.161 109.577 241.945 109.577C239.729 109.577 237.933 111.373 237.933 113.589C237.933 115.805 239.729 117.601 241.945 117.601Z" fill="#F6D04C"/>
<path d="M239.501 113.774C239.501 115.208 238.333 116.376 236.898 116.376C235.463 116.376 234.295 115.208 234.295 113.774C234.295 112.339 235.455 111.171 236.898 111.171C238.341 111.171 239.501 112.33 239.501 113.774Z" fill="#00BA6B"/>
<path d="M170.372 120.83C169.304 122.765 166.86 123.474 164.925 122.398C162.989 121.33 162.28 118.886 163.357 116.951C164.424 115.015 166.868 114.306 168.804 115.382C170.739 116.45 171.448 118.894 170.372 120.83Z" fill="#F6D04C"/>
<path d="M161.88 117.676C163.815 118.744 164.524 121.188 163.448 123.124C162.38 125.059 159.936 125.768 158.001 124.692C156.066 123.624 155.357 121.18 156.433 119.245C157.5 117.309 159.945 116.6 161.88 117.676Z" fill="#F6D04C"/>
<path d="M195.18 105.523C196.815 104.013 196.84 102.22 196.098 100.435C195.364 98.6744 194.054 97.5483 191.977 97.7902C191.702 93.5776 186.697 91.7007 184.086 94.3784C180.607 91.8592 177.028 93.3774 176.078 97.8152C173.934 97.7068 172.699 98.9914 171.965 100.785C171.231 102.562 171.423 104.247 173.033 105.573C171.423 107.066 171.389 108.835 172.107 110.645C172.824 112.447 174.134 113.523 176.319 113.339C176.344 115.642 177.562 116.91 179.381 117.627C181.108 118.311 182.751 118.144 184.069 116.668C187.23 119.312 191.91 117.452 192.11 113.264C194.179 113.398 195.43 112.196 196.198 110.478C196.999 108.676 196.848 106.933 195.197 105.523H195.18Z" fill="#FCA346"/>
<path d="M187.823 105.523C187.823 107.575 186.163 109.235 184.111 109.235C182.059 109.235 180.399 107.575 180.399 105.523C180.399 103.471 182.059 101.811 184.111 101.811C186.163 101.811 187.823 103.471 187.823 105.523Z" fill="#FF5843"/>
</g>
<path d="M209.286 103.896L200.235 103.012L192.502 133.718L209.286 103.896Z" fill="#FF5843"/>
<path d="M233.811 66.125C234.028 66.784 246.399 79.3801 246.399 79.3801L216.802 113.398L205.983 103.012L233.811 66.125Z" fill="#F6D04C"/>
<path d="M188.749 105.882L203.438 77.7197L175.827 106.107L188.749 105.882Z" fill="#F6D04C"/>
<path d="M193.161 131.507L205.749 87.3295L203.43 77.5029L188.74 105.89C188.74 105.89 193.82 124.334 193.161 131.516V131.507Z" fill="#FBE69C"/>
</g>
</g>
<defs>
<linearGradient id="paint0_linear_2010_7191" x1="226.21" y1="68.9611" x2="265.167" y2="68.9611" gradientUnits="userSpaceOnUse">
<stop stop-color="white"/>
<stop offset="1" stop-color="#DDDEE0"/>
</linearGradient>
<linearGradient id="paint1_linear_2010_7191" x1="197.29" y1="68.9611" x2="158.325" y2="68.9611" gradientUnits="userSpaceOnUse">
<stop stop-color="white"/>
<stop offset="1" stop-color="#DDDEE0"/>
</linearGradient>
<linearGradient id="paint2_linear_2010_7191" x1="145.095" y1="107.792" x2="281.3" y2="107.792" gradientUnits="userSpaceOnUse">
<stop offset="0.01" stop-color="white"/>
<stop offset="0.48" stop-color="#BBBCBE"/>
<stop offset="1" stop-color="white"/>
</linearGradient>
<clipPath id="clip0_2010_7191">
<rect width="292" height="130" fill="white"/>
</clipPath>
</defs>
</svg>
