<svg width="292" height="130" viewBox="0 0 292 130" fill="none" xmlns="http://www.w3.org/2000/svg">
<g clip-path="url(#clip0_2010_5791)">
<path d="M291.527 84.7671V303.989C291.527 312.722 284.453 319.796 275.719 319.796H15.3642C6.63041 319.796 -0.443359 312.722 -0.443359 303.989V84.7671C-0.443359 76.0333 6.63876 68.9512 15.3726 68.9512H147.781C149.516 68.9512 150.926 70.3192 151.01 72.0543C152.62 104.195 179.196 129.763 211.746 129.763C244.295 129.763 270.864 104.195 272.482 72.0543C272.566 70.3192 273.975 68.9512 275.711 68.9512C284.444 68.9512 291.527 76.0333 291.527 84.7671Z" fill="white"/>
<path d="M265.167 68.9607C265.167 39.5059 241.201 15.54 211.747 15.54C182.292 15.54 158.334 39.5059 158.334 68.9607C158.334 98.4155 182.3 122.381 211.747 122.381C241.193 122.381 265.167 98.4238 265.167 68.9607Z" fill="white"/>
<path d="M211.747 119.77C183.727 119.77 160.937 96.9806 160.937 68.9606C160.937 40.9406 183.727 18.1509 211.747 18.1509C239.767 18.1509 262.556 40.9406 262.556 68.9606C262.556 96.9806 239.758 119.77 211.747 119.77Z" fill="#F2F2F2"/>
<path d="M265.167 68.9612C265.167 44.5115 248.659 23.8572 226.203 17.5342V20.2536C247.199 26.4932 262.556 45.9713 262.556 68.9612C262.556 91.951 247.199 111.429 226.203 117.669V120.388C248.659 114.065 265.167 93.4108 265.167 68.9612Z" fill="url(#paint0_linear_2010_5791)"/>
<path d="M158.326 68.9612C158.326 44.5115 174.834 23.8572 197.29 17.5342V20.2536C176.294 26.4932 160.937 45.9713 160.937 68.9612C160.937 91.951 176.294 111.429 197.29 117.677V120.396C174.834 114.073 158.326 93.4192 158.326 68.9695V68.9612Z" fill="url(#paint1_linear_2010_5791)"/>
<path d="M256.4 93.2026C247.775 109.019 230.999 119.771 211.755 119.771C192.51 119.771 175.727 109.019 167.11 93.2026H164.165C173.016 110.512 191.025 122.382 211.755 122.382C232.484 122.382 250.502 110.512 259.353 93.2026H256.408H256.4Z" fill="url(#paint2_linear_2010_5791)"/>
<mask id="mask0_2010_5791" style="mask-type:luminance" maskUnits="userSpaceOnUse" x="160" y="-5" width="103" height="125">
<path d="M211.747 119.771C183.727 119.771 160.937 96.981 160.937 68.961C160.937 40.941 183.735 -4.39648 211.747 -4.39648C239.758 -4.39648 262.556 40.9494 262.556 68.961C262.556 96.9726 239.758 119.771 211.747 119.771Z" fill="white"/>
</mask>
<g mask="url(#mask0_2010_5791)">
<path d="M256.717 82.2496C253.055 75.8097 260.212 68.1854 257.818 59.9021C255.424 51.6187 243.813 51.1682 238.841 43.1935C233.869 35.2188 237.523 28.4619 234.845 19.7948C229.631 2.65249 207.417 5.45537 207.417 5.45537C206.783 5.63054 206.174 5.83072 205.599 6.05595C201.82 6.21444 197.024 7.00692 192.144 9.401C178.722 15.8075 181.942 32.6745 181.283 43.4104C180.624 54.1462 169.888 64.3149 168.678 72.9402C167.469 81.5656 175.635 87.2797 175.652 93.2024C175.669 99.125 169.512 101.986 168.545 112.505C167.577 123.032 178.188 130.607 178.188 130.607L221.757 128.763L218.979 89.2317C219.847 94.3035 221.123 98.441 222.966 100.843C232.117 112.789 259.712 107.859 259.712 107.859C259.712 107.859 264.608 104.314 267.053 97.7236C269.497 91.1336 260.371 88.6645 256.709 82.233L256.717 82.2496Z" fill="#F2C15F"/>
<path d="M201.945 62.1465L208.085 81.5745L226.929 78.7216L224.96 42.2598L223.5 42.5183L201.945 62.1465Z" fill="#F79262"/>
<path d="M192.219 57.4835C188.49 56.9579 185.045 59.5605 184.527 63.281C184.002 67.0097 186.605 70.4549 190.325 70.9721C194.054 71.4977 197.499 68.895 198.016 65.1746C198.542 61.4458 195.939 58.0007 192.219 57.4835ZM190.917 67.4269C189.165 67.185 187.948 65.5666 188.198 63.8148C188.448 62.0631 190.058 60.8452 191.81 61.0954C193.562 61.3373 194.779 62.9557 194.529 64.7075C194.287 66.4592 192.669 67.6771 190.917 67.4269Z" fill="#00BA6B"/>
<path d="M193.971 57.0495C193.845 57.9671 192.995 58.601 192.077 58.4759C191.159 58.3508 190.525 57.5 190.651 56.5824C190.776 55.6648 191.627 55.0308 192.544 55.1559C193.462 55.281 194.096 56.1319 193.971 57.0495Z" fill="#00713E"/>
<mask id="mask1_2010_5791" style="mask-type:luminance" maskUnits="userSpaceOnUse" x="184" y="57" width="15" height="14">
<path d="M192.169 57.4161C188.44 56.8906 184.995 59.4932 184.478 63.2136C183.952 66.9423 186.555 70.3875 190.275 70.9047C194.004 71.4302 197.449 68.8276 197.966 65.1072C198.492 61.3784 195.889 57.9333 192.169 57.4161ZM190.876 67.3594C189.124 67.1175 187.906 65.4992 188.156 63.7475C188.398 61.9957 190.017 60.7778 191.768 61.028C193.52 61.2699 194.738 62.8882 194.488 64.64C194.246 66.3918 192.628 67.6097 190.876 67.3594Z" fill="white"/>
</mask>
<g mask="url(#mask1_2010_5791)">
<path d="M196.006 58.017C196.006 58.017 193.211 58.6426 194.88 61.2452C196.548 63.8479 194.171 66.901 196.031 67.5016C197.891 68.1022 200.786 63.7728 199.201 60.5862C197.616 57.3997 196.006 58.0253 196.006 58.0253V58.017Z" fill="#00713E"/>
<path d="M187.881 58.0586C187.881 58.0586 189.133 60.0106 187.439 61.804C185.746 63.5975 185.571 62.4714 184.369 65.5996C183.168 68.7277 178.981 58.1587 187.881 58.0586Z" fill="#00713E"/>
<path d="M185.504 68.9774C185.504 68.9774 186.964 66.3915 188.357 67.943C189.75 69.4946 191.961 69.97 191.185 71.3047C190.409 72.631 184.862 74.141 185.504 68.9858V68.9774Z" fill="#00713E"/>
</g>
<path d="M231.508 41.8755C231.183 44.2196 229.022 45.8546 226.695 45.5292C224.368 45.2039 222.749 43.035 223.075 40.6993C223.4 38.3553 225.561 36.7203 227.888 37.0456C230.215 37.371 231.834 39.5399 231.508 41.8755Z" fill="#F79262"/>
<path d="M225.069 44.812C226.77 43.5107 228.48 42.2011 230.182 40.8998C230.466 40.6829 230.182 40.1991 229.898 40.416C228.197 41.7173 226.487 43.0269 224.785 44.3282C224.501 44.5451 224.785 45.0289 225.069 44.812Z" fill="#411504"/>
<path d="M202.729 64.4896C202.729 64.4896 219.037 68.1767 225.068 45.7207C225.293 42.8178 224.618 41.2495 224.618 41.2495L202.837 64.0392" fill="#411504"/>
<path d="M183.743 39.19C183.743 39.19 183.96 63.5814 200.735 64.5824C217.511 65.5834 224.426 47.0897 225.185 38.0639C225.277 28.938 214.091 9.77701 195.338 14.4234C189.115 16.5922 182.1 26.7775 183.743 39.19Z" fill="#F79262"/>
<path d="M216.426 13.6557C202.395 8.13349 192.894 12.5547 192.894 12.5547C192.894 12.5547 179.214 16.7839 183.71 31.7991C185.729 23.3989 193.428 15.8997 194.537 14.857C197.148 18.0185 203.096 23.6659 214.099 26.6189C219.755 28.5124 216.501 36.0117 224.735 37.6717C229.464 37.7384 232.234 31.2819 232.234 31.2819C232.234 31.2819 230.465 19.1863 216.435 13.6724L216.426 13.6557Z" fill="#F2C15F"/>
<path d="M193.378 53.6221C193.378 53.6221 195.538 55.9328 198.842 55.5908C201.311 55.2654 204.231 52.7129 204.231 52.7129L193.378 53.6221Z" fill="#D32E20"/>
<path d="M198.041 51.8202C198.041 51.8202 196.873 50.6273 195.689 51.7952C194.496 52.963 193.695 53.4219 193.27 53.6304C197.107 53.914 202.554 53.3384 204.339 52.6794C202.929 52.5793 201.303 51.9287 200.652 51.5366C200.001 51.1445 199.217 50.5356 198.041 51.8202Z" fill="#FC3827"/>
<path d="M197.849 32.9012C197.19 35.6123 196.473 38.3066 195.697 40.9843C195.505 41.6516 195.305 42.319 195.105 42.9863C194.921 43.5953 194.646 44.2293 194.554 44.8632C194.396 45.9226 195.563 46.2813 196.314 46.7151C196.731 46.957 197.107 46.3147 196.69 46.0728C196.239 45.8142 195.313 45.4972 195.313 44.8716C195.313 44.6547 195.455 44.3961 195.522 44.1875C195.622 43.8538 195.722 43.5202 195.83 43.1865C196.156 42.1021 196.473 41.0177 196.781 39.9249C197.424 37.6559 198.016 35.3787 198.575 33.093C198.692 32.6259 197.966 32.4257 197.858 32.8928L197.849 32.9012Z" fill="#411504"/>
<path d="M201.036 32.308L200.827 30.7564C200.827 30.7564 206.867 29.3216 210.195 29.7054C212.447 29.9389 215.459 31.3737 215.459 31.3737C215.459 31.3737 211.229 30.7815 210.195 30.8899C209.161 30.9984 201.027 32.308 201.027 32.308H201.036Z" fill="#411504"/>
<path d="M208.327 35.7782C209.253 35.9116 210.07 36.1619 210.779 36.5206C210.529 34.9941 209.194 33.7094 207.426 33.4591C205.299 33.1588 203.347 34.4769 203.08 36.4038C203.055 36.5957 203.047 36.7958 203.055 36.9877C204.406 35.995 206.175 35.4779 208.327 35.7782Z" fill="#FC3827"/>
<path d="M208.569 35.7703C209.444 35.8954 210.229 36.129 210.921 36.4544C210.437 35.4367 209.119 34.5858 207.484 34.3606C205.282 34.0519 203.33 34.9779 203.13 36.4377C203.105 36.6379 203.113 36.8464 203.155 37.0466C204.531 36.0122 206.35 35.47 208.577 35.7786L208.569 35.7703Z" fill="white"/>
<path d="M203.555 37.0709C205.524 36.0949 207.701 36.5203 209.82 37.1292C211.121 37.5046 211.321 36.2116 210.237 35.6444C208.06 34.4932 205.474 34.7935 203.522 36.1616C202.688 36.7455 202.988 37.3545 203.563 37.0709H203.555Z" fill="#411504"/>
<path d="M208.969 37.3724C208.928 38.0314 208.36 38.5319 207.701 38.4902C207.042 38.4485 206.542 37.8812 206.583 37.2222C206.625 36.5632 207.192 36.0628 207.851 36.1045C208.51 36.1462 209.011 36.7134 208.969 37.3724Z" fill="#411504"/>
<path opacity="0.32" d="M211.722 45.755C211.346 48.4244 208.885 50.2764 206.216 49.901C203.555 49.5256 201.695 47.0647 202.07 44.3953C202.446 41.726 204.906 39.8741 207.576 40.2495C210.245 40.6249 212.097 43.0857 211.722 45.755Z" fill="#FC3827"/>
<path opacity="0.32" d="M188.69 41.6094C186.847 41.3508 185.095 42.1599 184.077 43.5697C184.177 44.1035 184.269 44.6374 184.361 45.1713C184.761 47.0565 185.17 48.9417 185.787 50.7602C186.263 51.0022 186.78 51.1774 187.339 51.2608C190.008 51.6362 192.469 49.7759 192.844 47.1149C193.22 44.4455 191.359 41.9847 188.698 41.6094H188.69Z" fill="#FC3827"/>
<path d="M195.639 30.9241C195.639 30.9241 189.524 29.8646 186.221 30.4485C185.37 30.5904 184.427 30.9157 183.585 31.2577C183.543 31.5079 183.493 31.7498 183.435 31.9918C184.569 31.7916 185.795 31.6081 186.296 31.6331C187.33 31.6748 195.53 32.484 195.53 32.484L195.639 30.9241Z" fill="#411504"/>
<path d="M188.498 36.863C187.597 37.1049 186.822 37.4636 186.154 37.9057C186.213 36.3541 187.381 34.9193 189.107 34.4522C191.184 33.8933 193.278 34.961 193.787 36.8379C193.837 37.0298 193.87 37.2216 193.879 37.4134C192.411 36.5959 190.592 36.3041 188.498 36.8713V36.863Z" fill="#FC3827"/>
<path d="M188.265 36.8795C187.406 37.113 186.663 37.4466 186.021 37.847C186.371 36.7793 187.573 35.7699 189.166 35.3362C191.31 34.7522 193.362 35.4363 193.745 36.8544C193.796 37.0546 193.812 37.2548 193.796 37.4634C192.302 36.6041 190.425 36.2955 188.257 36.8795H188.265Z" fill="white"/>
<path d="M193.436 37.5888C191.393 36.7796 189.257 37.3885 187.205 38.1643C185.937 38.6398 185.629 37.3802 186.663 36.7129C188.732 35.3865 191.343 35.47 193.403 36.6712C194.279 37.1884 194.029 37.814 193.445 37.5804L193.436 37.5888Z" fill="#411504"/>
<path d="M190.258 38.2226C190.35 38.8733 190.959 39.3237 191.61 39.2319C192.261 39.1402 192.711 38.5312 192.619 37.8806C192.527 37.2299 191.918 36.7795 191.268 36.8712C190.617 36.963 190.167 37.5719 190.258 38.2226Z" fill="#411504"/>
<path d="M196.573 36.195C196.573 36.195 197.399 35.3274 198.842 36.3118" stroke="#474134" stroke-width="0.992669" stroke-miterlimit="10"/>
<path opacity="0.15" d="M196.173 37.739C196.173 37.739 196.915 33.001 190.951 32.0584C184.986 31.1157 178.421 32.5004 177.737 36.6296C177.053 40.7588 182.15 46.0975 187.163 45.7055C191.952 45.3301 195.238 42.8525 196.173 37.739Z" fill="#FFB836"/>
<path d="M196.331 37.7138C196.331 37.7138 197.074 32.9756 191.109 32.033C185.145 31.0903 178.58 32.4751 177.896 36.6042C177.212 40.7334 182.309 46.0721 187.322 45.6801C192.11 45.3047 195.397 42.8273 196.331 37.7138Z" stroke="#474134" stroke-width="0.992669" stroke-miterlimit="10"/>
<path opacity="0.15" d="M199.268 37.4791C199.268 37.4791 198.317 32.7743 204.239 31.5815C210.162 30.3802 216.777 31.4814 217.636 35.5772C218.504 39.673 213.632 45.2286 208.61 45.0534C203.814 44.8866 200.419 42.5509 199.268 37.4791Z" fill="#FFB836"/>
<path d="M199.101 37.4551C199.101 37.4551 198.15 32.7504 204.072 31.5576C209.995 30.3563 216.61 31.4574 217.469 35.5532C218.337 39.649 213.465 45.2046 208.443 45.0294C203.647 44.8626 200.252 42.5269 199.101 37.4551Z" stroke="#474134" stroke-width="0.992669" stroke-miterlimit="10"/>
<path d="M217.444 35.571C218.996 35.5877 220.247 36.0298 221.757 36.28C223.267 36.5553 225.569 36.7221 227.037 37.2393C227.02 37.6898 223.851 37.6147 221.84 37.1559C214.883 36.1966 217.945 35.5126 217.444 35.5626V35.571Z" fill="#474134"/>
<path d="M227.138 46.6304C223.409 46.1049 219.964 48.7075 219.447 52.4279C218.921 56.1567 221.524 59.6019 225.244 60.1191C228.973 60.6446 232.418 58.042 232.935 54.3215C233.461 50.5928 230.858 47.1476 227.138 46.6304ZM225.845 56.5739C224.093 56.332 222.875 54.7136 223.126 52.9618C223.367 51.21 224.986 49.9921 226.738 50.2424C228.489 50.4926 229.707 52.1027 229.457 53.8544C229.215 55.6062 227.597 56.8241 225.845 56.5739Z" fill="#00BA6B"/>
<path d="M228.889 46.1964C228.764 47.114 227.914 47.748 226.996 47.6229C226.078 47.4977 225.444 46.647 225.569 45.7294C225.695 44.8118 226.545 44.1777 227.463 44.3029C228.381 44.428 229.015 45.2789 228.889 46.1964Z" fill="#00713E"/>
<mask id="mask2_2010_5791" style="mask-type:luminance" maskUnits="userSpaceOnUse" x="219" y="46" width="14" height="15">
<path d="M227.096 46.5723C223.367 46.0468 219.922 48.6494 219.405 52.3698C218.879 56.0986 221.482 59.5437 225.202 60.0609C228.931 60.5864 232.376 57.9838 232.894 54.2634C233.411 50.543 230.816 47.0895 227.096 46.5723ZM225.795 56.5073C224.043 56.2654 222.825 54.6471 223.075 52.8954C223.317 51.1436 224.935 49.9257 226.687 50.1759C228.439 50.4178 229.657 52.0361 229.407 53.7879C229.165 55.5397 227.546 56.7576 225.795 56.5073Z" fill="white"/>
</mask>
<g mask="url(#mask2_2010_5791)">
<path d="M230.933 47.163C230.933 47.163 228.138 47.7886 229.807 50.3912C231.475 52.9939 229.098 56.0469 230.958 56.6476C232.818 57.2482 235.713 52.9188 234.128 49.7322C232.543 46.5457 230.933 47.1713 230.933 47.1713V47.163Z" fill="#00713E"/>
<path d="M222.8 47.2046C222.8 47.2046 224.051 49.1567 222.358 50.9501C220.664 52.7436 220.489 51.6174 219.288 54.7456C218.087 57.8737 213.899 47.3047 222.8 47.2046Z" fill="#00713E"/>
<path d="M220.422 58.1244C220.422 58.1244 221.882 55.5384 223.275 57.09C224.668 58.6416 226.879 59.117 226.103 60.4517C225.327 61.7863 219.78 63.2879 220.422 58.1327V58.1244Z" fill="#00713E"/>
</g>
<path d="M206.824 77.3696C205.99 77.3696 196.439 81.2235 196.439 81.2235C196.439 81.2235 198.116 95.805 201.294 98.3158C204.647 87.2547 206.991 80.8898 206.991 80.8898L208.501 80.0557L206.824 77.378V77.3696Z" fill="#B994D1"/>
<path d="M201.186 97.8665C201.687 96.8571 206.049 80.9411 206.884 80.4406C207.718 79.9401 213.081 78.2634 213.081 78.2634L242.903 71.5649L231.508 140.426L181.408 138.416C181.408 138.416 179.564 112.281 182.584 106.917C185.604 101.554 195.489 84.1276 196.323 80.7825C197.999 90.0002 201.178 97.8748 201.178 97.8748L201.186 97.8665Z" fill="#DAC1E6"/>
<mask id="mask3_2010_5791" style="mask-type:luminance" maskUnits="userSpaceOnUse" x="180" y="71" width="63" height="70">
<path d="M201.019 98.1165C201.52 97.1072 205.874 81.1911 206.717 80.6906C207.551 80.1901 212.914 78.5134 212.914 78.5134L242.736 71.8149L231.341 140.676L181.241 138.666C181.241 138.666 179.397 112.531 182.417 107.167C185.437 101.804 195.322 84.3777 196.156 81.0326C197.833 90.2503 201.019 98.1249 201.019 98.1249V98.1165Z" fill="white"/>
</mask>
<g mask="url(#mask3_2010_5791)">
<path d="M185.895 55.949C184.319 69.5211 182.909 83.1181 181.624 96.7235C180.34 110.329 179.18 124.034 178.113 137.698C177.037 151.454 176.061 165.218 175.135 178.982C174.217 192.679 173.358 206.376 172.515 220.073C171.673 233.737 170.855 247.409 170.021 261.073C169.921 262.775 169.813 264.485 169.704 266.186C169.671 266.704 170.472 266.695 170.505 266.186C171.339 252.523 172.165 238.867 172.999 225.203C173.833 211.506 174.693 197.809 175.593 184.12C176.503 170.348 177.462 156.584 178.513 142.828C179.556 129.156 180.69 115.492 181.95 101.837C183.201 88.2232 184.577 74.6178 186.121 61.0291C186.313 59.3357 186.504 57.6424 186.705 55.949C186.763 55.4402 185.962 55.4402 185.904 55.949H185.895Z" fill="white"/>
<path d="M191.542 53.7889C189.966 67.3609 188.556 80.958 187.272 94.5634C185.987 108.211 184.827 121.874 183.76 135.538C182.684 149.294 181.708 163.058 180.782 176.822C179.864 190.519 179.005 204.216 178.162 217.913C177.32 231.577 176.502 245.249 175.668 258.913C175.568 260.614 175.46 262.325 175.351 264.026C175.318 264.543 176.119 264.535 176.152 264.026C176.986 250.362 177.812 236.707 178.646 223.043C179.48 209.379 180.339 195.649 181.24 181.96C182.15 168.188 183.109 154.424 184.16 140.668C185.203 126.996 186.337 113.332 187.597 99.6769C188.848 86.0632 190.224 72.4578 191.768 58.8691C191.96 57.1757 192.151 55.4822 192.352 53.7889C192.41 53.28 191.609 53.28 191.551 53.7889H191.542Z" fill="white"/>
<path d="M198.024 56.3665C196.447 69.9385 195.038 83.5356 193.753 97.141C192.468 110.788 191.309 124.452 190.241 138.116C189.165 151.871 188.189 165.635 187.263 179.399C186.345 193.096 185.486 206.793 184.644 220.491C183.801 234.154 182.984 247.827 182.15 261.49C182.049 263.192 181.941 264.902 181.833 266.604C181.799 267.121 182.6 267.113 182.633 266.604C183.468 252.94 184.293 239.285 185.128 225.621C185.962 211.957 186.821 198.226 187.722 184.538C188.631 170.765 189.59 157.001 190.641 143.246C191.684 129.574 192.819 115.91 194.078 102.254C195.338 88.599 196.706 75.0353 198.249 61.4466C198.441 59.7532 198.633 58.0599 198.833 56.3665C198.891 55.8577 198.091 55.8577 198.032 56.3665H198.024Z" fill="white"/>
<path d="M205.615 55.3328C204.039 68.9049 202.629 82.5019 201.344 96.1073C200.06 109.754 198.9 123.418 197.832 137.082C196.756 150.838 195.78 164.601 194.854 178.365C193.937 192.063 193.078 205.76 192.235 219.457C191.393 233.121 190.575 246.793 189.741 260.457C189.641 262.158 189.532 263.868 189.424 265.57C189.39 266.087 190.191 266.079 190.225 265.57C191.059 251.906 191.885 238.251 192.719 224.587C193.553 210.89 194.412 197.193 195.313 183.504C196.222 169.732 197.182 155.968 198.233 142.212C199.284 128.457 200.41 114.876 201.67 101.221C202.921 87.607 204.297 74.0016 205.84 60.4129C206.032 58.7195 206.224 57.0262 206.424 55.3328C206.483 54.824 205.682 54.824 205.624 55.3328H205.615Z" fill="white"/>
<path d="M211.205 54.5647C209.628 68.1368 208.218 81.7339 206.934 95.3393C205.649 108.986 204.489 122.65 203.422 136.314C202.346 150.07 201.37 163.833 200.444 177.597C199.526 191.295 198.667 204.992 197.824 218.689C196.982 232.353 196.164 246.025 195.33 259.689C195.23 261.39 195.122 263.1 195.013 264.802C194.98 265.319 195.781 265.311 195.814 264.802C196.648 251.138 197.474 237.483 198.308 223.819C199.142 210.122 200.002 196.425 200.903 182.736C201.812 168.964 202.771 155.2 203.822 141.444C204.865 127.772 205.999 114.108 207.259 100.453C208.51 86.839 209.887 73.2336 211.43 59.6448C211.622 57.9515 211.814 56.2581 212.014 54.5647C212.072 54.0559 211.271 54.0559 211.213 54.5647H211.205Z" fill="white"/>
<path d="M217.677 55.3328C216.101 68.9049 214.691 82.5019 213.406 96.1073C212.122 109.754 210.962 123.418 209.894 137.082C208.818 150.838 207.842 164.601 206.916 178.365C205.999 192.063 205.14 205.76 204.297 219.457C203.455 233.121 202.637 246.793 201.803 260.457C201.703 262.158 201.594 263.868 201.486 265.57C201.453 266.087 202.253 266.079 202.287 265.57C203.121 251.906 203.947 238.251 204.781 224.587C205.615 210.89 206.474 197.193 207.375 183.504C208.284 169.732 209.244 155.968 210.295 142.212C211.346 128.457 212.472 114.876 213.732 101.221C214.983 87.607 216.359 74.0016 217.902 60.4129C218.094 58.7195 218.286 57.0262 218.486 55.3328C218.545 54.824 217.744 54.824 217.686 55.3328H217.677Z" fill="white"/>
<path d="M222.816 55.5901C221.24 69.1622 219.83 82.7592 218.545 96.3647C217.261 109.97 216.101 123.676 215.033 137.339C213.966 151.003 212.981 164.859 212.055 178.623C211.138 192.32 210.279 206.017 209.436 219.714C208.594 233.378 207.776 247.05 206.942 260.714C206.842 262.416 206.733 264.126 206.625 265.828C206.592 266.345 207.392 266.336 207.426 265.828C208.26 252.164 209.086 238.508 209.92 224.844C210.754 211.147 211.613 197.45 212.514 183.761C213.424 169.989 214.383 156.225 215.434 142.47C216.477 128.797 217.611 115.134 218.871 101.478C220.122 87.8644 221.498 74.259 223.042 60.6702C223.233 58.9769 223.425 57.2835 223.625 55.5901C223.684 55.0813 222.883 55.0813 222.825 55.5901H222.816Z" fill="white"/>
</g>
<path d="M209.844 79.3804L216.543 88.8482L247.124 76.444L247.966 66.5591L209.844 79.3804Z" fill="#CEABE8"/>
<mask id="mask4_2010_5791" style="mask-type:luminance" maskUnits="userSpaceOnUse" x="209" y="66" width="39" height="23">
<path d="M209.844 79.5054L216.543 88.9732L247.124 76.569L247.966 66.6841L209.844 79.5054Z" fill="white"/>
</mask>
<g mask="url(#mask4_2010_5791)">
<path d="M207.092 82.9589C221.732 77.7704 236.513 73.0072 251.245 68.0939C251.695 67.9437 251.503 67.2263 251.044 67.3765C236.313 72.2898 221.531 77.0529 206.892 82.2415C206.441 82.4 206.633 83.1174 207.092 82.9589Z" fill="white"/>
<path d="M206.257 86.02C218.52 82.0744 230.699 77.8619 242.928 73.7911C246.339 72.6566 249.751 71.5304 253.18 70.4293C253.63 70.2792 253.438 69.5618 252.979 69.7119C240.717 73.6576 228.538 77.8701 216.309 81.9409C212.897 83.0754 209.486 84.2015 206.057 85.3026C205.607 85.4528 205.798 86.1702 206.257 86.02Z" fill="white"/>
<path d="M206.257 89.04C221.031 84.4771 235.595 79.1884 250.135 73.9414C251.512 73.4492 252.888 72.9487 254.264 72.4482C254.715 72.2897 254.515 71.564 254.064 71.7308C242.21 76.0435 230.323 80.2645 218.37 84.3019C214.282 85.6866 210.178 87.0463 206.057 88.3226C205.598 88.4644 205.799 89.1818 206.257 89.04Z" fill="white"/>
</g>
<path d="M181.415 134.328C181.415 134.328 190.8 126.728 199.067 124.276C207.333 121.815 224.309 116.459 224.309 116.459L263.965 137.798C263.965 137.798 273.85 172.816 272.341 182.868C270.831 192.92 276.136 258.77 276.136 258.77H162.254L180.348 175.828C180.348 175.828 172.807 171.807 172.807 167.786C172.807 163.766 173.307 158.736 170.296 157.734C167.276 156.725 179.956 151.645 181.407 134.336L181.415 134.328Z" fill="#F0412F"/>
<path d="M169.795 156.625C169.795 156.625 172.64 155.616 175.993 156.959C178.004 158.135 181.524 156.291 185.378 153.772C189.232 151.261 193.252 149.418 197.106 151.261C200.96 153.105 201.794 151.428 204.647 148.917C207.5 146.406 213.189 146.573 218.386 145.23C223.583 143.887 224.417 142.044 224.417 142.044L223.75 116.243C223.75 116.243 201.636 122.107 195.263 125.794C188.898 129.481 181.415 134.228 181.415 134.228C181.415 134.228 179.514 147.741 169.795 156.625Z" fill="#D93124"/>
<path d="M213.031 232.36C213.031 232.36 211.521 95.1301 234.644 77.0368C245.706 69.9964 265.309 81.0576 265.309 112.222C265.309 143.387 253.747 241.411 253.747 241.411L213.031 232.36Z" fill="#B994D1"/>
<mask id="mask5_2010_5791" style="mask-type:luminance" maskUnits="userSpaceOnUse" x="213" y="75" width="53" height="167">
<path d="M213.056 232.61C213.056 232.61 211.546 95.3796 234.67 77.2863C245.731 70.2459 265.334 81.307 265.334 112.472C265.334 143.637 253.772 241.661 253.772 241.661L213.056 232.61Z" fill="white"/>
</mask>
<g mask="url(#mask5_2010_5791)">
<path d="M230.048 55.2889C228.472 68.8609 227.062 82.458 225.777 96.0634C224.493 109.711 223.333 123.374 222.265 137.038C221.189 150.794 220.213 164.558 219.287 178.321C218.37 192.019 217.511 205.716 216.668 219.413C215.826 233.077 215.008 246.749 214.174 260.413C214.074 262.114 213.965 263.824 213.857 265.526C213.824 266.043 214.624 266.035 214.658 265.526C215.492 251.862 216.318 238.207 217.152 224.543C217.986 210.846 218.845 197.149 219.746 183.46C220.656 169.688 221.615 155.924 222.666 142.168C223.717 128.413 224.843 114.832 226.103 101.177C227.354 87.5631 228.73 73.9577 230.274 60.369C230.465 58.6756 230.657 56.9822 230.857 55.2889C230.916 54.78 230.115 54.78 230.057 55.2889H230.048Z" fill="white"/>
<path d="M235.687 53.1287C234.111 66.7007 232.701 80.2978 231.416 93.9032C230.132 107.55 228.972 121.214 227.905 134.878C226.829 148.633 225.853 162.397 224.927 176.161C224.009 189.858 223.15 203.556 222.307 217.253C221.465 230.917 220.647 244.589 219.813 258.253C219.713 259.954 219.605 261.664 219.496 263.366C219.463 263.883 220.264 263.875 220.297 263.366C221.131 249.702 221.957 236.047 222.791 222.383C223.625 208.686 224.485 194.989 225.385 181.3C226.295 167.528 227.254 153.764 228.305 140.008C229.348 126.336 230.482 112.672 231.742 99.0167C232.993 85.4029 234.369 71.7975 235.913 58.2088C236.105 56.5154 236.296 54.8221 236.497 53.1287C236.555 52.6199 235.754 52.6199 235.696 53.1287H235.687Z" fill="white"/>
<path d="M242.169 55.7059C240.592 69.2779 239.183 82.875 237.898 96.4804C236.613 110.128 235.454 123.791 234.386 137.455C233.318 151.119 232.334 164.975 231.408 178.738C230.482 192.502 229.631 206.133 228.789 219.83C227.946 233.527 227.129 247.166 226.295 260.83C226.194 262.531 226.086 264.241 225.978 265.943C225.944 266.46 226.745 266.452 226.778 265.943C227.613 252.279 228.438 238.624 229.273 224.96C230.107 211.296 230.966 197.566 231.867 183.877C232.776 170.105 233.735 156.341 234.786 142.585C235.829 128.913 236.964 115.249 238.223 101.594C239.475 87.9801 240.851 74.3747 242.394 60.786C242.586 59.0926 242.778 57.3992 242.978 55.7059C243.036 55.197 242.236 55.197 242.177 55.7059H242.169Z" fill="white"/>
<path d="M249.769 54.6727C248.192 68.2447 246.782 81.8418 245.498 95.4472C244.213 109.094 243.053 122.758 241.986 136.422C240.91 150.177 239.934 163.941 239.008 177.705C238.09 191.402 237.231 205.1 236.388 218.797C235.546 232.461 234.728 246.133 233.894 259.797C233.794 261.498 233.686 263.208 233.577 264.91C233.544 265.427 234.345 265.419 234.378 264.91C235.212 251.246 236.038 237.591 236.872 223.927C237.706 210.23 238.566 196.533 239.466 182.844C240.376 169.072 241.335 155.308 242.386 141.552C243.429 127.88 244.563 114.216 245.823 100.561C247.074 86.9469 248.451 73.3415 249.994 59.7528C250.186 58.0594 250.377 56.366 250.578 54.6727C250.636 54.1638 249.835 54.1638 249.777 54.6727H249.769Z" fill="white"/>
<path d="M255.349 53.9046C253.772 67.4766 252.362 81.0737 251.078 94.6791C249.793 108.326 248.633 121.99 247.566 135.654C246.49 149.409 245.514 163.173 244.588 176.937C243.67 190.634 242.811 204.332 241.968 218.029C241.126 231.693 240.308 245.365 239.474 259.028C239.374 260.73 239.266 262.44 239.157 264.142C239.124 264.659 239.925 264.651 239.958 264.142C240.792 250.478 241.618 236.823 242.452 223.159C243.286 209.462 244.146 195.765 245.047 182.076C245.947 168.387 246.915 154.54 247.966 140.784C249.009 127.112 250.143 113.448 251.403 99.7926C252.654 86.1789 254.031 72.5735 255.574 58.9848C255.766 57.2914 255.958 55.598 256.158 53.9046C256.216 53.3957 255.415 53.3957 255.357 53.9046H255.349Z" fill="white"/>
<path d="M261.831 54.6727C260.254 68.2447 258.844 81.8418 257.56 95.4472C256.275 109.094 255.115 122.758 254.048 136.422C252.972 150.177 251.996 163.941 251.07 177.705C250.152 191.402 249.293 205.1 248.45 218.797C247.608 232.461 246.79 246.133 245.956 259.797C245.856 261.498 245.748 263.208 245.639 264.91C245.606 265.427 246.407 265.419 246.44 264.91C247.274 251.246 248.1 237.591 248.934 223.927C249.768 210.23 250.628 196.533 251.528 182.844C252.438 169.072 253.397 155.308 254.448 141.552C255.491 127.88 256.625 114.216 257.885 100.561C259.136 86.9469 260.513 73.3415 262.056 59.7528C262.248 58.0594 262.44 56.366 262.64 54.6727C262.698 54.1638 261.897 54.1638 261.839 54.6727H261.831Z" fill="white"/>
<path d="M266.969 54.93C265.392 68.502 263.982 82.0991 262.698 95.7046C261.413 109.352 260.254 123.015 259.186 136.679C258.11 150.435 257.134 164.199 256.208 177.963C255.282 191.727 254.431 205.357 253.589 219.054C252.746 232.751 251.929 246.39 251.094 260.054C250.994 261.756 250.886 263.466 250.777 265.167C250.744 265.685 251.545 265.676 251.578 265.167C252.412 251.504 253.238 237.848 254.072 224.184C254.907 210.487 255.766 196.79 256.667 183.101C257.576 169.329 258.535 155.565 259.586 141.809C260.629 128.137 261.763 114.474 263.023 100.818C264.283 87.1626 265.651 73.5989 267.194 60.0102C267.386 58.3168 267.578 56.6234 267.778 54.93C267.836 54.4211 267.035 54.4211 266.977 54.93H266.969Z" fill="white"/>
</g>
</g>
</g>
<defs>
<linearGradient id="paint0_linear_2010_5791" x1="226.211" y1="68.9611" x2="265.167" y2="68.9611" gradientUnits="userSpaceOnUse">
<stop stop-color="white"/>
<stop offset="1" stop-color="#DDDEE0"/>
</linearGradient>
<linearGradient id="paint1_linear_2010_5791" x1="197.29" y1="68.9611" x2="158.326" y2="68.9611" gradientUnits="userSpaceOnUse">
<stop stop-color="white"/>
<stop offset="1" stop-color="#DDDEE0"/>
</linearGradient>
<linearGradient id="paint2_linear_2010_5791" x1="145.096" y1="107.792" x2="281.292" y2="107.792" gradientUnits="userSpaceOnUse">
<stop offset="0.01" stop-color="white"/>
<stop offset="0.48" stop-color="#BBBCBE"/>
<stop offset="1" stop-color="white"/>
</linearGradient>
<clipPath id="clip0_2010_5791">
<rect width="292" height="130" fill="white"/>
</clipPath>
</defs>
</svg>
