<svg width="292" height="130" viewBox="0 0 292 130" fill="none" xmlns="http://www.w3.org/2000/svg">
<g clip-path="url(#clip0_2010_3982)">
<path d="M291.528 84.768V523.344C291.528 532.078 284.454 539.152 275.72 539.152H15.3657C6.63188 539.152 -0.441895 532.078 -0.441895 523.344V84.7764C-0.441895 76.0426 6.64023 68.9604 15.3741 68.9604H147.783C149.518 68.9604 150.928 70.3285 151.011 72.0636C152.621 104.204 179.198 129.772 211.747 129.772C244.297 129.772 270.865 104.204 272.484 72.0636C272.567 70.3285 273.977 68.9604 275.712 68.9604C284.446 68.9604 291.528 76.0426 291.528 84.7764V84.768Z" fill="white"/>
<path d="M265.168 68.9607C265.168 39.5059 241.202 15.54 211.748 15.54C182.293 15.54 158.335 39.5059 158.335 68.9607C158.335 98.4155 182.301 122.381 211.748 122.381C241.194 122.381 265.168 98.4238 265.168 68.9607Z" fill="white"/>
<path d="M211.748 119.77C183.728 119.77 160.938 96.9806 160.938 68.9606C160.938 40.9406 183.728 18.1509 211.748 18.1509C239.768 18.1509 262.557 40.9406 262.557 68.9606C262.557 96.9806 239.759 119.77 211.748 119.77Z" fill="#F2F2F2"/>
<path d="M265.168 68.9612C265.168 44.5115 248.659 23.8572 226.203 17.5342V20.2536C247.2 26.4932 262.557 45.9713 262.557 68.9612C262.557 91.951 247.2 111.429 226.203 117.669V120.388C248.659 114.065 265.168 93.4108 265.168 68.9612Z" fill="url(#paint0_linear_2010_3982)"/>
<path d="M158.327 68.9612C158.327 44.5115 174.835 23.8572 197.291 17.5342V20.2536C176.295 26.4932 160.938 45.9713 160.938 68.9612C160.938 91.951 176.295 111.429 197.291 117.677V120.396C174.835 114.073 158.327 93.4192 158.327 68.9695V68.9612Z" fill="url(#paint1_linear_2010_3982)"/>
<path d="M256.401 93.2026C247.775 109.019 231 119.771 211.756 119.771C192.511 119.771 175.727 109.019 167.11 93.2026H164.166C173.016 110.512 191.026 122.382 211.756 122.382C232.485 122.382 250.503 110.512 259.354 93.2026H256.409H256.401Z" fill="url(#paint2_linear_2010_3982)"/>
<mask id="mask0_2010_3982" style="mask-type:luminance" maskUnits="userSpaceOnUse" x="160" y="-5" width="103" height="125">
<path d="M211.747 119.771C183.727 119.771 160.938 96.981 160.938 68.961C160.938 40.941 183.735 -4.39648 211.747 -4.39648C239.759 -4.39648 262.557 40.9494 262.557 68.961C262.557 96.9726 239.759 119.771 211.747 119.771Z" fill="white"/>
</mask>
<g mask="url(#mask0_2010_3982)">
<path d="M216.502 5.72122C216.502 5.72122 204.39 -2.42034 193.321 4.05287C182.251 10.5261 184.553 26.1836 174.735 32.4483C164.925 38.7129 153.23 47.8972 153.856 57.5069C154.481 67.1083 160.329 74.6326 139.032 91.3328C125.669 103.028 127.963 115.349 129.431 121.822C130.891 128.295 125.46 135.185 126.303 145.421C127.137 155.656 148.225 161.078 157.209 152.311C166.185 143.544 187.698 147.089 197.925 150.434C208.16 153.779 236.764 163.589 248.877 158.367C260.989 153.145 276.855 159.201 283.954 146.255C291.052 133.308 282.911 126.001 283.954 119.111C284.996 112.221 287.082 101.777 280.825 95.0949C274.569 88.4131 266.211 87.996 266.002 79.6459C265.794 71.2958 272.267 63.3629 267.462 53.3361C262.657 43.3093 252.914 43.0757 245.957 33.2908C239.275 23.898 239.275 8.85773 229.04 4.8954C221.624 2.01749 216.51 5.72957 216.51 5.72957L216.502 5.72122Z" fill="#251202"/>
<path d="M231.333 53.7708C231.333 55.1138 230.241 56.2065 228.898 56.2065C227.555 56.2065 226.462 55.1138 226.462 53.7708C226.462 52.4278 227.555 51.335 228.898 51.335C230.241 51.335 231.333 52.4278 231.333 53.7708Z" fill="#FFA733"/>
<path d="M228.731 64.1556C230.399 64.1556 231.751 62.8037 231.751 61.1359C231.751 59.4682 230.399 58.1162 228.731 58.1162C227.063 58.1162 225.711 59.4682 225.711 61.1359C225.711 62.8037 227.063 64.1556 228.731 64.1556Z" fill="#FFA733"/>
<path d="M231.417 67.9855C231.417 69.3286 230.324 70.4214 228.981 70.4214C227.638 70.4214 226.545 69.3286 226.545 67.9855C226.545 66.6425 227.638 65.5498 228.981 65.5498C230.324 65.5498 231.417 66.6425 231.417 67.9855Z" fill="#FFA733"/>
<path d="M227.454 68.7769C227.454 68.7769 223.1 85.3769 222.466 89.0973L226.086 89.6146L226.712 87.1537L226.453 90.1734L237.064 89.8231L230.774 69.0604L227.446 68.7769H227.454Z" fill="#FFA733"/>
<path d="M228.722 48.5142L228.931 68.2508" stroke="#FFA733" stroke-width="0.909252" stroke-miterlimit="10"/>
<path d="M229.506 48.8317C229.506 49.2905 229.131 49.6659 228.672 49.6659C228.214 49.6659 227.838 49.2905 227.838 48.8317C227.838 48.3729 228.214 47.9976 228.672 47.9976C229.131 47.9976 229.506 48.3729 229.506 48.8317Z" fill="#FFA733"/>
<path d="M219.213 85.6936L222.308 62.6453L198.542 57.707C198.684 58.2659 200.561 83.1827 200.561 83.1827L197.083 83.041L225.895 138.58L233.202 90.0647L219.213 85.677V85.6936Z" fill="#FFB0A5"/>
<path d="M198.542 57.7148L221.582 63.7292C221.582 63.7292 216.018 67.0659 208.319 66.1317C200.62 65.189 197.616 59.8419 197.616 59.8419L198.551 57.7232L198.542 57.7148Z" fill="#251202"/>
<path d="M191.235 41.0571C191.736 44.4438 193.796 51.2341 197.225 56.4811C199.594 60.1014 208.503 68.685 221.583 63.7217C227.564 61.4527 234.979 48.0058 231.643 30.7717C227.464 16.5324 216.744 10.1592 205.333 16.157C193.921 22.1547 190.318 34.8759 191.235 41.0571Z" fill="#FFB0A5"/>
<path d="M237.182 32.4307C232.977 27.3589 231.918 13.0111 224.16 12.1436C220.899 11.7766 218.479 11.8599 216.769 12.0768C201.879 -0.185595 192.745 19.451 190.017 26.9502C187.231 34.6079 185.563 33.3567 176.654 38.2283C167.745 43.0999 170.948 51.7335 177.213 56.188C176.095 50.6157 178.881 46.7201 182.918 44.2176C195.031 40.4555 201.712 29.6029 204.916 24.0306C207.243 19.9848 212.949 15.9391 215.893 14.0288L218.388 15.1216C218.388 15.1216 220.748 20.8023 227.856 27.359C231.009 31.1962 234.562 38.8622 233.645 44.1842C232.727 49.5063 240.085 54.2027 243.638 53.8357C242.062 50.6158 242.846 47.6544 243.638 44.5597C244.431 41.4649 241.403 37.5108 237.198 32.4391L237.182 32.4307Z" fill="#251202"/>
<path d="M189.316 48.4221C192.237 48.4221 194.605 46.0543 194.605 43.1335C194.605 40.2126 192.237 37.8447 189.316 37.8447C186.395 37.8447 184.028 40.2126 184.028 43.1335C184.028 46.0543 186.395 48.4221 189.316 48.4221Z" fill="#FFB0A5"/>
<path d="M186.163 43.3412C188.599 44.2505 191.035 45.1513 193.47 46.0605C193.846 46.2024 194.013 45.5934 193.637 45.4516C191.201 44.5424 188.766 43.6414 186.33 42.7322C185.954 42.5904 185.788 43.1994 186.163 43.3412Z" fill="#251202"/>
<path d="M189.633 54.7519C190.979 54.7519 192.069 53.6614 192.069 52.3161C192.069 50.9708 190.979 49.8804 189.633 49.8804C188.288 49.8804 187.198 50.9708 187.198 52.3161C187.198 53.6614 188.288 54.7519 189.633 54.7519Z" fill="#FFA733"/>
<path d="M192.486 59.6833C192.486 61.3516 191.134 62.703 189.466 62.703C187.798 62.703 186.447 61.3516 186.447 59.6833C186.447 58.0149 187.798 56.6636 189.466 56.6636C191.134 56.6636 192.486 58.0149 192.486 59.6833Z" fill="#FFA733"/>
<path d="M192.152 66.531C192.152 67.8741 191.06 68.9669 189.716 68.9669C188.373 68.9669 187.281 67.8741 187.281 66.531C187.281 65.188 188.373 64.0952 189.716 64.0952C191.06 64.0952 192.152 65.188 192.152 66.531Z" fill="#FFA733"/>
<path d="M188.19 67.3232C188.19 67.3232 183.836 83.9233 183.202 87.6438L186.822 88.1609L187.448 85.7001L187.189 88.7198L197.8 88.3695L191.51 67.6068L188.182 67.3232H188.19Z" fill="#FFA733"/>
<path d="M189.458 47.0615L189.667 66.7982" stroke="#FFA733" stroke-width="0.909252" stroke-miterlimit="10"/>
<path d="M190.242 47.3786C190.242 47.8374 189.867 48.2128 189.408 48.2128C188.949 48.2128 188.574 47.8374 188.574 47.3786C188.574 46.9198 188.949 46.5444 189.408 46.5444C189.867 46.5444 190.242 46.9198 190.242 47.3786Z" fill="#FFA733"/>
<path d="M205.007 35.3848C204.549 35.6934 204.932 36.5692 205.391 36.2606C206.876 35.2512 208.536 34.559 210.146 35.5183C210.421 35.6768 210.98 36.0521 211.138 35.8853C211.289 35.7268 211.105 35.4598 210.688 35.1595C208.653 33.6997 206.767 34.1919 205.007 35.3931V35.3848Z" fill="#251202"/>
<path d="M208.894 37.0773C209.507 37.0773 210.004 36.5806 210.004 35.9678C210.004 35.3551 209.507 34.8584 208.894 34.8584C208.282 34.8584 207.785 35.3551 207.785 35.9678C207.785 36.5806 208.282 37.0773 208.894 37.0773Z" fill="#251202"/>
<path d="M211.897 31.6639C212.573 31.9059 213.19 31.1634 212.823 30.5461C212.556 30.0956 212.047 29.6202 211.105 29.2532C208.461 28.2104 203.556 28.0686 200.211 31.2551C203.973 30.7546 208.552 30.4626 211.897 31.6722V31.6639Z" fill="#251202"/>
<path d="M216.653 32.7075C217.136 35.6522 217.82 43.0513 217.887 46.0209C217.887 46.3046 217.887 46.6049 217.745 46.8635C217.487 47.3306 216.836 47.5308 216.252 47.6893" fill="#FFB0A5"/>
<path d="M216.327 32.7989C216.719 35.243 216.944 37.7205 217.161 40.1813C217.278 41.466 217.378 42.7506 217.453 44.0352C217.486 44.5441 217.511 45.0612 217.528 45.5701C217.536 45.837 217.578 46.1373 217.528 46.3959C217.386 47.0549 216.719 47.2051 216.16 47.3552C215.743 47.472 215.918 48.1227 216.335 48.0059C216.986 47.8224 217.745 47.5971 218.062 46.9381C218.312 46.421 218.212 45.7703 218.187 45.2114C218.129 43.8017 218.02 42.3919 217.904 40.9821C217.67 38.1876 217.42 35.3765 216.969 32.5987C216.902 32.1733 216.252 32.3568 216.318 32.7739L216.327 32.7989Z" fill="#FB7D70"/>
<path d="M211.172 53.2769C211.172 53.2769 213.558 56.0964 217.387 55.988C219.964 55.9212 221.774 53.7941 221.774 53.7941L211.18 53.2686L211.172 53.2769Z" fill="#C92B1D"/>
<path d="M217.545 52.9443C217.42 53.1278 217.336 51.4845 215.301 52.4187C213.941 53.0444 212.323 53.5866 211.072 53.2196C218.588 55.2383 221.824 53.7451 221.824 53.7451C221.824 53.7451 220.573 54.1455 219.739 52.9944C219.063 52.0684 218.204 51.985 217.545 52.9443Z" fill="#FC3827"/>
<path d="M228.572 35.4684C229.056 35.7354 228.764 36.6446 228.28 36.3777C226.704 35.5185 224.985 34.993 223.476 36.1024C223.217 36.2943 222.7 36.7114 222.525 36.5613C222.358 36.4195 222.525 36.1358 222.9 35.7938C224.785 34.1421 226.704 34.4424 228.581 35.4684H228.572Z" fill="#251202"/>
<path d="M225.136 36.5204C225.195 37.1293 225.737 37.5714 226.346 37.513C226.955 37.4546 227.397 36.9124 227.338 36.3035C227.28 35.6945 226.738 35.2524 226.129 35.3108C225.52 35.3692 225.078 35.9114 225.136 36.5204Z" fill="#251202"/>
<path d="M221.649 31.8818C220.957 32.082 220.39 31.2979 220.79 30.7056C221.082 30.2719 221.616 29.8297 222.583 29.5211C225.286 28.6452 230.191 28.8037 233.336 32.1904C229.616 31.4563 225.061 30.8808 221.649 31.8818Z" fill="#251202"/>
<path d="M251.162 91.7489C278.023 93.0002 285.614 145.62 278.657 174.649C271.725 203.545 198.192 187.179 198.192 187.179C198.192 187.179 197.633 185.227 196.24 179.663C170.906 186.903 162.272 174.374 157.543 163.513C134.436 107.548 151.136 86.5353 151.136 86.5353C160.879 75.8161 198.326 83.3321 198.326 83.3321L226.512 141.241L227.972 88.6208C227.972 88.6208 242.17 91.3318 251.154 91.7489H251.162Z" fill="white"/>
<path d="M251.262 91.6576C278.123 92.9088 285.714 145.529 278.757 174.558C271.825 203.454 198.292 187.087 198.292 187.087C198.292 187.087 197.733 185.135 196.34 179.571C171.006 186.812 162.372 174.283 157.643 163.422C134.536 107.457 151.236 86.444 151.236 86.444C160.979 75.7248 198.425 83.2408 198.425 83.2408L226.612 141.149L228.072 88.5294C228.072 88.5294 242.27 91.2405 251.254 91.6576H251.262Z" fill="#FC3827"/>
</g>
</g>
<defs>
<linearGradient id="paint0_linear_2010_3982" x1="226.212" y1="68.9611" x2="265.168" y2="68.9611" gradientUnits="userSpaceOnUse">
<stop stop-color="white"/>
<stop offset="1" stop-color="#DDDEE0"/>
</linearGradient>
<linearGradient id="paint1_linear_2010_3982" x1="197.291" y1="68.9611" x2="158.327" y2="68.9611" gradientUnits="userSpaceOnUse">
<stop stop-color="white"/>
<stop offset="1" stop-color="#DDDEE0"/>
</linearGradient>
<linearGradient id="paint2_linear_2010_3982" x1="145.096" y1="107.792" x2="281.293" y2="107.792" gradientUnits="userSpaceOnUse">
<stop offset="0.01" stop-color="white"/>
<stop offset="0.48" stop-color="#BBBCBE"/>
<stop offset="1" stop-color="white"/>
</linearGradient>
<clipPath id="clip0_2010_3982">
<rect width="292" height="130" fill="white"/>
</clipPath>
</defs>
</svg>
