<svg width="292" height="130" viewBox="0 0 292 130" fill="none" xmlns="http://www.w3.org/2000/svg">
<g clip-path="url(#clip0_2010_4554)">
<path d="M291.527 84.7671V392.411C291.527 401.145 284.453 408.219 275.719 408.219H15.3642C6.63041 408.219 -0.443359 401.145 -0.443359 392.411V84.7671C-0.443359 76.0333 6.63876 68.9512 15.3726 68.9512H147.781C149.516 68.9512 150.926 70.3192 151.01 72.0543C152.62 104.195 179.197 129.763 211.746 129.763C244.296 129.763 270.864 104.195 272.482 72.0543C272.566 70.3192 273.976 68.9512 275.711 68.9512C284.445 68.9512 291.527 76.0333 291.527 84.7671Z" fill="white"/>
<path d="M265.167 68.9607C265.167 39.5059 241.202 15.54 211.747 15.54C182.292 15.54 158.334 39.5059 158.334 68.9607C158.334 98.4155 182.3 122.381 211.747 122.381C241.193 122.381 265.167 98.4238 265.167 68.9607Z" fill="white"/>
<path d="M211.745 119.77C183.725 119.77 160.936 96.9806 160.936 68.9606C160.936 40.9406 183.725 18.1509 211.745 18.1509C239.765 18.1509 262.555 40.9406 262.555 68.9606C262.555 96.9806 239.757 119.77 211.745 119.77Z" fill="#F2F2F2"/>
<path d="M265.167 68.9612C265.167 44.5115 248.659 23.8572 226.203 17.5342V20.2536C247.199 26.4932 262.556 45.9713 262.556 68.9612C262.556 91.951 247.199 111.429 226.203 117.669V120.388C248.659 114.065 265.167 93.4108 265.167 68.9612Z" fill="url(#paint0_linear_2010_4554)"/>
<path d="M158.325 68.9612C158.325 44.5115 174.834 23.8572 197.29 17.5342V20.2536C176.293 26.4932 160.936 45.9713 160.936 68.9612C160.936 91.951 176.293 111.429 197.29 117.677V120.396C174.834 114.073 158.325 93.4192 158.325 68.9695V68.9612Z" fill="url(#paint1_linear_2010_4554)"/>
<path d="M256.4 93.2026C247.775 109.019 231 119.771 211.755 119.771C192.511 119.771 175.727 109.019 167.11 93.2026H164.166C173.016 110.512 191.026 122.382 211.755 122.382C232.485 122.382 250.503 110.512 259.353 93.2026H256.409H256.4Z" fill="url(#paint2_linear_2010_4554)"/>
<mask id="mask0_2010_4554" style="mask-type:luminance" maskUnits="userSpaceOnUse" x="160" y="-5" width="103" height="125">
<path d="M211.746 119.771C183.726 119.771 160.936 96.981 160.936 68.961C160.936 40.941 183.734 -4.39648 211.746 -4.39648C239.757 -4.39648 262.555 40.9494 262.555 68.961C262.555 96.9726 239.757 119.771 211.746 119.771Z" fill="white"/>
</mask>
<g mask="url(#mask0_2010_4554)">
<path d="M189.448 17.0171C189.448 17.0171 194.153 4.57946 209.235 6.33957C224.316 8.09968 241.359 19.1693 240.082 42.376C231.857 46.4885 231.173 47.4645 231.173 47.4645C231.173 47.4645 231.857 32.6745 225.784 28.4619C219.712 24.2493 196.013 15.3404 190.432 19.4529C188.964 19.0608 189.456 17.0004 189.456 17.0004L189.448 17.0171Z" fill="#3A2C01"/>
<path d="M209.817 67.1936L215.465 81.8168C215.465 81.8168 227.894 89.5245 235.927 78.8137C233.792 64.9747 230.405 43.6865 230.405 43.6865L209.817 67.1936Z" fill="#FFCEC9"/>
<path d="M230.973 49.1753C230.973 49.1753 227.186 62.8891 215.432 66.4093C226.009 62.3635 228.479 59.2771 231.598 52.9624C231.598 50.0928 230.973 49.1753 230.973 49.1753Z" fill="#251202"/>
<path d="M191.041 61.7541C191.332 61.654 201.101 61.8542 201.101 61.8542L196.171 76.4606L191.041 61.7541Z" stroke="#7D7B7B" stroke-width="0.70905" stroke-miterlimit="10"/>
<path d="M198.006 56.0235C198.006 57.183 197.063 58.1257 195.904 58.1257C194.744 58.1257 193.802 57.183 193.802 56.0235C193.802 54.864 194.744 53.9214 195.904 53.9214C197.063 53.9214 198.006 54.864 198.006 56.0235Z" fill="#606060"/>
<path d="M195.829 56.5327V61.4627" stroke="#606060" stroke-width="0.70905" stroke-miterlimit="10"/>
<path d="M232.532 37.8799C231.682 30.0803 229.955 26.9855 229.513 26.2848C229.045 26.5935 228.503 26.8103 227.878 26.9188C220.437 28.1534 214.214 25.0252 209.217 20.0201C208.033 19.4195 206.873 18.9274 205.864 18.7272C203.078 18.1516 202.01 15.9911 202.21 13.8223C198.565 13.9391 195.094 15.157 192.192 18.1016C184.751 27.1107 185.727 38.8642 187.879 43.7609C187.879 43.7609 196.496 67.4597 211.386 67.0677C226.276 66.6756 233.517 46.889 232.541 37.8799H232.532Z" fill="#FFCEC9"/>
<path d="M206.615 56.4904C206.615 56.4904 210.611 58.3506 213.405 56.2986C216.2 54.2381 216.275 51.2686 216.275 51.2686L206.615 56.4904Z" fill="#D93021"/>
<path d="M233.767 37.8138C236.849 37.8138 239.348 35.375 239.348 32.3666C239.348 29.3582 236.849 26.9194 233.767 26.9194C230.685 26.9194 228.187 29.3582 228.187 32.3666C228.187 35.375 230.685 37.8138 233.767 37.8138Z" fill="#FFCEC9"/>
<path d="M236.912 31.9162C234.343 32.8505 231.773 33.7848 229.204 34.7191C228.77 34.8776 228.954 35.5783 229.396 35.4198C231.965 34.4856 234.535 33.5512 237.104 32.6169C237.538 32.4584 237.354 31.7577 236.912 31.9162Z" fill="#251202"/>
<path d="M229.054 42.4421C229.346 42.342 239.114 42.5422 239.114 42.5422L234.184 57.1486L229.054 42.4421Z" stroke="#7D7B7B" stroke-width="0.70905" stroke-miterlimit="10"/>
<path d="M236.019 36.7115C236.019 37.871 235.077 38.8137 233.917 38.8137C232.758 38.8137 231.815 37.871 231.815 36.7115C231.815 35.552 232.758 34.6094 233.917 34.6094C235.077 34.6094 236.019 35.552 236.019 36.7115Z" fill="#606060"/>
<path d="M233.842 37.2207V42.1591" stroke="#606060" stroke-width="0.70905" stroke-miterlimit="10"/>
<path d="M192.868 43.6518C192.618 44.1106 193.319 44.6861 193.577 44.2273C194.395 42.7175 195.496 41.4162 197.281 41.5163C197.581 41.5329 198.215 41.608 198.282 41.3911C198.34 41.1909 198.065 41.0491 197.581 40.974C195.221 40.632 193.836 41.8667 192.868 43.6518Z" fill="#251202"/>
<path d="M197.014 42.1081C197.281 42.6253 197.08 43.2593 196.563 43.5263C196.046 43.7932 195.412 43.593 195.145 43.0758C194.878 42.5586 195.078 41.9247 195.596 41.6577C196.113 41.3908 196.747 41.5909 197.014 42.1081Z" fill="#251202"/>
<path d="M213.271 31.54C213.797 31.54 213.972 32.4242 213.446 32.4326C211.736 32.4492 210.06 32.8163 209.326 34.443C209.2 34.7182 208.967 35.3105 208.75 35.2688C208.541 35.2271 208.541 34.9185 208.708 34.4597C209.509 32.2074 211.244 31.5651 213.271 31.54Z" fill="#251202"/>
<path d="M210.352 34.218C210.686 34.6935 211.345 34.8103 211.82 34.4767C212.296 34.143 212.412 33.484 212.079 33.0085C211.745 32.533 211.086 32.4162 210.611 32.7499C210.135 33.0835 210.018 33.7426 210.352 34.218Z" fill="#251202"/>
<path d="M188.68 42.4846C188.68 42.4846 191.191 40.7327 193.752 39.3146C196.671 37.7047 198.707 37.0791 199.165 36.2032C199.624 35.3273 197.972 35.0771 195.737 36.0113C193.493 36.9456 189.355 38.8809 188.68 42.4846Z" fill="#251202"/>
<path d="M202.803 36.7037C203.262 39.4732 203.712 42.2427 204.171 45.0038C204.279 45.6378 204.379 46.2801 204.513 46.914C204.613 47.4145 204.68 48.0236 204.988 48.449C205.556 49.2248 206.573 48.9077 207.299 48.5824C207.608 48.4406 207.341 47.9902 207.032 48.1237C206.498 48.3572 205.789 48.6408 205.389 48.0652C205.089 47.6314 205.047 46.9391 204.947 46.4302C204.747 45.3708 204.58 44.303 204.405 43.2436C204.038 41.0164 203.67 38.7809 203.303 36.5536C203.245 36.22 202.736 36.3617 202.795 36.6954L202.803 36.7037Z" fill="#EB9690"/>
<path d="M216.984 25.6097C216.984 25.6097 213.723 27.0445 210.778 28.7462C207.425 30.6815 205.573 32.3248 204.422 32.2497C203.27 32.1746 204.021 30.3895 206.299 28.7212C208.576 27.0612 212.997 24.1082 216.984 25.6014V25.6097Z" fill="#251202"/>
<path d="M210.794 53.3545C210.794 53.3545 209.225 52.5704 208.508 53.7466C207.791 54.9228 207.591 55.8988 206.548 56.6829C212.229 54.7893 215.49 52.5704 216.274 51.2607C213.822 52.0782 212.487 51.4526 211.57 51.9781C210.652 52.5037 210.785 53.3462 210.785 53.3462L210.794 53.3545Z" fill="#FC3827"/>
<path d="M192.575 17.3088C192.575 17.3088 200.608 14.9564 205.305 20.8373C210.009 26.7099 218.693 32.4575 235.076 28.2782C237.17 27.7444 239.973 28.6703 239.973 28.6703C239.973 28.6703 235.01 23.1898 224.174 24.7497C217.776 25.6756 214.381 22.5307 211.77 18.877C207.899 13.4632 197.539 9.86794 192.575 17.3088Z" fill="#4C3C0F"/>
<path d="M188.672 46.088C188.672 46.088 182.115 29.8299 192.717 17.1004C192.192 15.7907 189.189 15.6656 185.794 18.9273C182.399 22.1889 174.174 34.4679 188.663 46.088H188.672Z" fill="#4C3C0F"/>
<path d="M292.085 137.639C283.076 121.598 285.036 102.028 280.331 92.2435C275.927 83.0842 257.792 72.2066 240.057 74.7175C240.091 74.6674 240.107 74.634 240.107 74.634C239.849 74.1085 238.873 68.8032 238.873 65.7501C238.873 60.9119 239.198 56.4824 239.198 56.4824C239.198 56.4824 219.353 66.8012 208.117 67.3184C208.459 69.0952 208.742 70.5883 208.968 71.8312C207.149 72.5069 192.451 77.8623 177.294 79.3221C161.103 80.8903 152.611 141.543 156.531 192.019C263.473 193.195 294.421 190.059 294.421 190.059C294.421 190.059 301.077 153.664 292.068 137.623L292.085 137.639Z" fill="#6EB8B6"/>
<path d="M256.608 191.877C255.499 177.729 261.989 164.341 264.75 150.819C267.786 137.222 265.3 122.841 268.328 109.168C266.994 123.174 269.822 137.364 266.819 151.253C263.991 164.75 257.175 177.921 256.608 191.877Z" fill="#060407"/>
<path d="M149.541 282.585C150.959 259.429 152.327 236.272 153.812 213.124C155.288 190.1 156.874 167.085 158.75 144.096C159.801 131.199 160.944 118.311 162.204 105.431C162.254 104.923 161.453 104.923 161.403 105.431C159.151 128.463 157.274 151.536 155.614 174.618C153.962 197.658 152.503 220.706 151.093 243.763C150.3 256.709 149.524 269.647 148.732 282.594C148.699 283.111 149.499 283.103 149.533 282.594L149.541 282.585Z" fill="white"/>
<path d="M155.189 280.417C156.757 254.983 158.25 229.549 159.902 204.115C161.553 178.731 163.355 153.355 165.557 128.013C166.784 113.873 168.135 99.7508 169.645 85.6365C169.703 85.1277 168.902 85.1277 168.844 85.6365C166.141 110.87 163.956 136.154 162.062 161.455C160.16 186.872 158.542 212.306 156.982 237.74C156.114 251.963 155.255 266.186 154.379 280.408C154.346 280.925 155.147 280.917 155.18 280.408L155.189 280.417Z" fill="white"/>
<path d="M161.669 282.995C163.296 256.443 164.848 229.891 166.591 203.348C168.334 176.838 170.253 150.328 172.63 123.868C173.957 109.036 175.433 94.2209 177.093 79.4227C177.152 78.9138 176.351 78.9138 176.293 79.4227C173.34 105.758 170.979 132.159 168.952 158.586C166.916 185.121 165.215 211.681 163.588 238.241C162.671 253.156 161.786 268.08 160.869 282.995C160.835 283.512 161.636 283.504 161.669 282.995Z" fill="white"/>
<path d="M169.261 281.968C170.887 255.357 172.456 228.739 174.208 202.137C175.951 175.669 177.87 149.209 180.239 122.782C181.565 107.967 183.041 93.1769 184.693 78.3953C184.751 77.8865 183.951 77.8865 183.892 78.3953C180.931 104.839 178.562 131.34 176.527 157.867C174.5 184.344 172.798 210.837 171.171 237.339C170.253 252.213 169.369 267.094 168.46 281.968C168.427 282.485 169.227 282.477 169.261 281.968Z" fill="white"/>
<path d="M174.85 281.192C176.477 254.573 178.037 227.955 179.789 201.344C181.54 174.759 183.467 148.182 185.853 121.647C187.188 106.857 188.656 92.0757 190.316 77.3191C190.374 76.8103 189.573 76.8103 189.515 77.3191C186.545 103.729 184.176 130.206 182.141 156.699C180.097 183.301 178.387 209.928 176.76 236.563C175.851 251.445 174.959 266.318 174.049 281.2C174.016 281.717 174.817 281.709 174.85 281.2V281.192Z" fill="white"/>
<path d="M181.323 281.968C182.975 254.974 184.559 227.98 186.344 200.994C188.121 174.117 190.073 147.257 192.509 120.43C193.861 105.498 195.37 90.5828 197.064 75.6844C197.122 75.1755 196.321 75.1755 196.263 75.6844C193.227 102.37 190.807 129.122 188.747 155.899C186.67 182.834 184.935 209.795 183.283 236.755C182.357 251.829 181.456 266.903 180.53 281.968C180.497 282.485 181.298 282.477 181.331 281.968H181.323Z" fill="white"/>
<path d="M186.461 282.219C188.129 255.008 189.731 227.789 191.525 200.578C193.31 173.592 195.278 146.615 197.731 119.679C199.115 104.489 200.659 89.3155 202.394 74.1585C202.452 73.6496 201.651 73.6496 201.593 74.1585C198.498 101.086 196.046 128.088 193.952 155.115C191.858 182.143 190.115 209.203 188.455 236.264C187.512 251.579 186.595 266.903 185.652 282.219C185.619 282.736 186.419 282.727 186.453 282.219H186.461Z" fill="white"/>
<path d="M194.561 268.737C196.188 242.293 197.739 215.842 199.474 189.398C201.193 163.08 203.103 136.779 205.447 110.51C206.74 96.0708 208.141 81.6311 209.76 67.2249C209.818 66.716 209.017 66.716 208.959 67.2249C206.039 93.1511 203.77 119.152 201.785 145.162C199.775 171.53 198.081 197.924 196.463 224.325C195.554 239.132 194.67 253.93 193.76 268.737C193.727 269.254 194.528 269.246 194.561 268.737Z" fill="white"/>
<path d="M200.2 266.577C201.819 240.301 203.37 214.016 205.08 187.748C206.782 161.722 208.659 135.704 210.961 109.719C212.246 95.196 213.672 80.6813 215.266 66.1917C215.324 65.6828 214.523 65.6828 214.465 66.1917C211.595 92.2013 209.301 118.269 207.316 144.362C205.339 170.439 203.67 196.532 202.069 222.633C201.168 237.281 200.292 251.929 199.391 266.577C199.358 267.095 200.159 267.086 200.192 266.577H200.2Z" fill="white"/>
<path d="M206.682 269.146C208.325 242.419 209.885 215.692 211.645 188.974C213.406 162.23 215.349 135.503 217.76 108.809C219.111 93.8607 220.605 78.9373 222.29 64.0223C222.348 63.5134 221.547 63.5134 221.489 64.0223C218.486 90.5908 216.092 117.226 214.04 143.895C211.979 170.63 210.261 197.39 208.618 224.151C207.7 239.149 206.799 254.148 205.881 269.146C205.848 269.663 206.649 269.655 206.682 269.146Z" fill="white"/>
<path d="M214.281 268.121C215.941 241.035 217.526 213.949 219.311 186.872C221.088 159.903 223.057 132.942 225.509 106.024C226.878 90.9751 228.396 75.9349 230.114 60.9197C230.173 60.4109 229.372 60.4109 229.313 60.9197C226.252 87.7135 223.816 114.574 221.739 141.459C219.654 168.47 217.91 195.514 216.25 222.558C215.316 237.748 214.415 252.939 213.481 268.129C213.447 268.646 214.248 268.638 214.281 268.129V268.121Z" fill="white"/>
<path d="M219.863 267.345C221.54 239.959 223.149 212.564 224.96 185.178C226.753 158.043 228.747 130.924 231.224 103.846C232.617 88.6475 234.169 73.4571 235.921 58.2918C235.979 57.7829 235.178 57.7829 235.12 58.2918C231.992 85.3775 229.514 112.538 227.404 139.716C225.293 166.893 223.541 194.096 221.865 221.307C220.922 236.647 220.005 251.996 219.062 267.345C219.029 267.862 219.829 267.854 219.863 267.345Z" fill="white"/>
<path d="M226.344 268.12C227.904 242.794 229.388 217.469 231.032 192.152C232.658 167.093 234.435 142.034 236.604 117.017C237.822 102.895 239.165 88.7888 240.667 74.6912C240.725 74.1824 239.924 74.1824 239.866 74.6912C237.196 99.7582 235.027 124.875 233.151 150.009C231.274 175.126 229.68 200.268 228.137 225.402C227.27 239.641 226.411 253.881 225.543 268.112C225.51 268.629 226.31 268.62 226.344 268.112V268.12Z" fill="white"/>
<path d="M231.483 268.379C233.035 243.087 234.519 217.795 236.171 192.511C237.823 167.252 239.6 141.993 241.785 116.776C243.011 102.62 244.354 88.4808 245.864 74.3499C245.923 73.841 245.122 73.841 245.063 74.3499C242.377 99.4753 240.208 124.651 238.323 149.851C236.43 175.127 234.82 200.427 233.268 225.728C232.4 239.951 231.55 254.165 230.674 268.388C230.64 268.905 231.441 268.896 231.475 268.388L231.483 268.379Z" fill="white"/>
<path d="M236.412 270.891C237.98 245.298 239.482 219.697 241.15 194.105C242.818 168.512 244.637 143.028 246.864 117.528C248.107 103.238 249.483 88.957 251.018 74.701C251.076 74.1921 250.276 74.1921 250.217 74.701C247.481 100.102 245.271 125.552 243.352 151.02C241.425 176.587 239.799 202.18 238.23 227.772C237.354 242.145 236.495 256.518 235.611 270.891C235.578 271.408 236.378 271.4 236.412 270.891Z" fill="white"/>
<path d="M242.05 268.73C243.602 243.48 245.087 218.221 246.722 192.979C248.348 167.92 250.134 142.861 252.294 117.836C253.504 103.789 254.838 89.741 256.332 75.7185C256.39 75.2097 255.589 75.2097 255.531 75.7185C252.878 100.719 250.726 125.761 248.849 150.828C246.972 175.945 245.37 201.087 243.836 226.221C242.968 240.385 242.117 254.558 241.25 268.722C241.216 269.239 242.017 269.231 242.05 268.722V268.73Z" fill="white"/>
<path d="M248.532 271.307C250.075 246.049 251.56 220.79 253.204 195.539C254.839 170.431 256.615 145.339 258.784 120.272C260.011 106.124 261.354 91.993 262.855 77.8787C262.914 77.3699 262.113 77.3699 262.054 77.8787C259.377 102.987 257.208 128.146 255.331 153.322C253.454 178.439 251.861 203.564 250.318 228.706C249.45 242.904 248.599 257.11 247.731 271.307C247.698 271.825 248.499 271.816 248.532 271.307Z" fill="white"/>
<path d="M256.123 270.274C257.641 245.582 259.092 220.882 260.694 196.191C262.287 171.666 264.006 147.141 266.083 122.65C267.251 108.927 268.527 95.2219 269.945 81.5247C269.995 81.0159 269.194 81.0159 269.144 81.5247C266.591 106.066 264.514 130.649 262.704 155.258C260.894 179.799 259.334 204.365 257.833 228.932C256.99 242.713 256.164 256.493 255.314 270.282C255.28 270.799 256.081 270.791 256.114 270.282L256.123 270.274Z" fill="white"/>
<path d="M261.712 269.497C263.189 245.431 264.607 221.357 266.159 197.299C267.693 173.417 269.362 149.534 271.355 125.685C272.482 112.213 273.708 98.7412 275.076 85.2859C275.126 84.7771 274.325 84.7771 274.275 85.2859C271.848 109.193 269.862 133.143 268.11 157.109C266.367 181.016 264.857 204.94 263.397 228.873C262.572 242.411 261.754 255.958 260.928 269.497C260.895 270.014 261.696 270.006 261.729 269.497H261.712Z" fill="white"/>
</g>
</g>
<defs>
<linearGradient id="paint0_linear_2010_4554" x1="226.211" y1="68.9611" x2="265.167" y2="68.9611" gradientUnits="userSpaceOnUse">
<stop stop-color="white"/>
<stop offset="1" stop-color="#DDDEE0"/>
</linearGradient>
<linearGradient id="paint1_linear_2010_4554" x1="197.29" y1="68.9611" x2="158.325" y2="68.9611" gradientUnits="userSpaceOnUse">
<stop stop-color="white"/>
<stop offset="1" stop-color="#DDDEE0"/>
</linearGradient>
<linearGradient id="paint2_linear_2010_4554" x1="145.096" y1="107.792" x2="281.292" y2="107.792" gradientUnits="userSpaceOnUse">
<stop offset="0.01" stop-color="white"/>
<stop offset="0.48" stop-color="#BBBCBE"/>
<stop offset="1" stop-color="white"/>
</linearGradient>
<clipPath id="clip0_2010_4554">
<rect width="292" height="130" fill="white"/>
</clipPath>
</defs>
</svg>
