<svg width="292" height="130" viewBox="0 0 292 130" fill="none" xmlns="http://www.w3.org/2000/svg">
<g clip-path="url(#clip0_2010_7818)">
<path d="M291.528 84.8086V435.021C291.528 443.755 284.454 450.828 275.72 450.828H15.3653C6.63144 450.828 -0.442383 443.755 -0.442383 435.021V84.8086C-0.442383 76.0748 6.63979 68.9927 15.3736 68.9927H147.782C149.517 68.9927 150.927 70.3607 151.011 72.0958C152.621 104.237 179.197 129.804 211.747 129.804C244.297 129.804 270.865 104.237 272.483 72.0958C272.567 70.3607 273.977 68.9927 275.712 68.9927C284.445 68.9927 291.528 76.0748 291.528 84.8086Z" fill="white"/>
<path d="M265.168 69.0022C265.168 39.5475 241.202 15.5815 211.747 15.5815C182.292 15.5815 158.335 39.5475 158.335 69.0022C158.335 98.457 182.301 122.423 211.747 122.423C241.194 122.423 265.168 98.4653 265.168 69.0022Z" fill="white"/>
<path d="M211.747 119.812C183.727 119.812 160.938 97.0221 160.938 69.0021C160.938 40.9821 183.727 18.1924 211.747 18.1924C239.767 18.1924 262.557 40.9821 262.557 69.0021C262.557 97.0221 239.759 119.812 211.747 119.812Z" fill="#F2F2F2"/>
<path d="M265.168 69.0027C265.168 44.553 248.66 23.8987 226.204 17.5757V20.2951C247.2 26.5347 262.557 46.0128 262.557 69.0027C262.557 91.9925 247.2 111.471 226.204 117.71V120.43C248.66 114.107 265.168 93.4524 265.168 69.0027Z" fill="url(#paint0_linear_2010_7818)"/>
<path d="M158.326 69.0027C158.326 44.553 174.835 23.8987 197.291 17.5757V20.2951C176.294 26.5347 160.937 46.0128 160.937 69.0027C160.937 91.9925 176.294 111.471 197.291 117.719V120.438C174.835 114.115 158.326 93.4607 158.326 69.011V69.0027Z" fill="url(#paint1_linear_2010_7818)"/>
<path d="M256.392 93.2441C247.767 109.06 230.991 119.813 211.747 119.813C192.503 119.813 175.719 109.06 167.102 93.2441H164.157C173.008 110.553 191.018 122.424 211.747 122.424C232.476 122.424 250.494 110.553 259.345 93.2441H256.4H256.392Z" fill="url(#paint2_linear_2010_7818)"/>
<mask id="mask0_2010_7818" style="mask-type:luminance" maskUnits="userSpaceOnUse" x="160" y="-5" width="103" height="125">
<path d="M211.746 119.812C183.726 119.812 160.937 97.0225 160.937 69.0025C160.937 40.9825 183.735 -4.35498 211.746 -4.35498C239.758 -4.35498 262.556 40.9909 262.556 69.0025C262.556 97.0141 239.758 119.812 211.746 119.812Z" fill="white"/>
</mask>
<g mask="url(#mask0_2010_7818)">
<path d="M217.252 8.65774C217.252 8.65774 205.14 0.516186 194.07 6.98939C183.001 13.4626 185.303 29.12 175.485 35.3847C165.675 41.6493 153.98 50.8336 154.606 60.4434C155.231 70.0447 161.079 77.569 139.782 94.2692C126.419 105.964 128.713 118.285 130.181 124.758C131.641 131.232 126.21 138.122 127.053 148.357C127.887 158.593 148.975 164.015 157.959 155.247C166.935 146.48 188.448 150.025 198.675 153.371C208.91 156.716 237.514 166.526 249.627 161.304C261.739 156.082 277.605 162.138 284.704 149.191C291.802 136.245 283.661 128.938 284.704 122.047C285.746 115.157 287.832 104.713 281.575 98.0313C275.319 91.3496 266.961 90.9325 266.752 82.5824C266.544 74.2323 273.017 66.2993 268.212 56.2725C263.407 46.2457 253.664 46.0121 246.707 36.2272C240.025 26.8344 240.025 11.7942 229.79 7.83182C222.374 4.95391 217.26 8.66599 217.26 8.66599L217.252 8.65774Z" fill="#251202"/>
<path d="M232.083 56.7058C232.083 58.0489 230.991 59.1416 229.648 59.1416C228.305 59.1416 227.212 58.0489 227.212 56.7058C227.212 55.3628 228.305 54.27 229.648 54.27C230.991 54.27 232.083 55.3628 232.083 56.7058Z" fill="#FFA733"/>
<path d="M229.481 67.0922C231.149 67.0922 232.501 65.7402 232.501 64.0724C232.501 62.4047 231.149 61.0527 229.481 61.0527C227.813 61.0527 226.461 62.4047 226.461 64.0724C226.461 65.7402 227.813 67.0922 229.481 67.0922Z" fill="#FFA733"/>
<path d="M232.167 70.9206C232.167 72.2636 231.074 73.3564 229.731 73.3564C228.388 73.3564 227.295 72.2636 227.295 70.9206C227.295 69.5776 228.388 68.4849 229.731 68.4849C231.074 68.4849 232.167 69.5776 232.167 70.9206Z" fill="#FFA733"/>
<path d="M228.205 71.7134C228.205 71.7134 223.85 88.3135 223.216 92.0339L226.837 92.5511L227.462 90.0902L227.204 93.11L237.814 92.7596L231.525 71.997L228.196 71.7134H228.205Z" fill="#FFA733"/>
<path d="M229.473 51.4507L229.681 71.1873" stroke="#FFA733" stroke-width="0.909252" stroke-miterlimit="10"/>
<path d="M230.257 51.7683C230.257 52.2271 229.881 52.6024 229.423 52.6024C228.964 52.6024 228.588 52.2271 228.588 51.7683C228.588 51.3095 228.964 50.9341 229.423 50.9341C229.881 50.9341 230.257 51.3095 230.257 51.7683Z" fill="#FFA733"/>
<path d="M219.963 88.6301L223.058 65.5819L199.292 60.6436C199.434 61.2025 201.311 86.1193 201.311 86.1193L197.833 85.9775L226.645 141.517L233.952 93.0012L219.963 88.6135V88.6301Z" fill="#FFB0A5"/>
<path d="M199.292 60.6514L222.332 66.6657C222.332 66.6657 216.768 70.0025 209.069 69.0682C201.369 68.1256 198.366 62.7786 198.366 62.7786L199.3 60.6597L199.292 60.6514Z" fill="#251202"/>
<path d="M191.985 44.0015C192.486 47.3883 194.546 54.1785 197.974 59.4254C200.343 63.0458 209.252 71.6294 222.332 66.666C228.313 64.3971 235.729 50.9502 232.393 33.7161C228.213 19.4767 217.494 13.1036 206.083 19.1013C194.671 25.099 191.067 37.8203 191.985 44.0015Z" fill="#FFB0A5"/>
<path d="M237.931 35.3671C233.727 30.2954 232.667 15.9476 224.91 15.08C221.648 14.713 219.229 14.7964 217.519 15.0133C202.629 2.75094 193.495 22.3874 190.767 29.8867C187.981 37.5444 186.312 36.2931 177.403 41.1647C168.494 46.0363 171.698 54.6701 177.962 59.1246C176.844 53.5523 179.631 49.6566 183.668 47.1541C195.78 43.3919 202.462 32.5393 205.665 26.967C207.993 22.9213 213.698 18.8755 216.643 16.9653L219.137 18.058C219.137 18.058 221.498 23.7388 228.605 30.2954C231.758 34.1326 235.312 41.7987 234.394 47.1208C233.477 52.4428 240.834 57.1392 244.388 56.7721C242.811 53.5522 243.595 50.5909 244.388 47.4961C245.18 44.4013 242.152 40.4473 237.948 35.3755L237.931 35.3671Z" fill="#251202"/>
<path d="M190.066 51.3586C192.987 51.3586 195.355 48.9909 195.355 46.07C195.355 43.1491 192.987 40.7812 190.066 40.7812C187.145 40.7812 184.777 43.1491 184.777 46.07C184.777 48.9909 187.145 51.3586 190.066 51.3586Z" fill="#FFB0A5"/>
<path d="M186.913 46.2786C189.349 47.1879 191.785 48.0888 194.221 48.998C194.596 49.1399 194.763 48.5309 194.387 48.3891C191.952 47.4799 189.516 46.5789 187.08 45.6697C186.705 45.5279 186.538 46.1368 186.913 46.2786Z" fill="#251202"/>
<path d="M190.383 57.6914C191.728 57.6914 192.819 56.6009 192.819 55.2557C192.819 53.9104 191.728 52.8198 190.383 52.8198C189.038 52.8198 187.947 53.9104 187.947 55.2557C187.947 56.6009 189.038 57.6914 190.383 57.6914Z" fill="#FFA733"/>
<path d="M193.236 62.6286C193.236 64.297 191.885 65.6483 190.216 65.6483C188.548 65.6483 187.197 64.297 187.197 62.6286C187.197 60.9602 188.548 59.6089 190.216 59.6089C191.885 59.6089 193.236 60.9602 193.236 62.6286Z" fill="#FFA733"/>
<path d="M192.903 69.4699C192.903 70.8129 191.81 71.9057 190.467 71.9057C189.124 71.9057 188.031 70.8129 188.031 69.4699C188.031 68.1269 189.124 67.0342 190.467 67.0342C191.81 67.0342 192.903 68.1269 192.903 69.4699Z" fill="#FFA733"/>
<path d="M188.94 70.2622C188.94 70.2622 184.586 86.8623 183.952 90.5827L187.572 91.0999L188.198 88.6391L187.939 91.6588L198.55 91.3085L192.26 70.5458L188.932 70.2622H188.94Z" fill="#FFA733"/>
<path d="M190.208 50L190.417 69.7366" stroke="#FFA733" stroke-width="0.909252" stroke-miterlimit="10"/>
<path d="M190.992 50.3161C190.992 50.7749 190.617 51.1503 190.158 51.1503C189.699 51.1503 189.324 50.7749 189.324 50.3161C189.324 49.8573 189.699 49.4819 190.158 49.4819C190.617 49.4819 190.992 49.8573 190.992 50.3161Z" fill="#FFA733"/>
<path d="M205.757 38.3213C205.298 38.6299 205.682 39.5059 206.14 39.1972C207.625 38.1879 209.285 37.4955 210.895 38.4548C211.17 38.6133 211.729 38.9886 211.888 38.8218C212.038 38.6633 211.854 38.3963 211.437 38.096C209.402 36.6362 207.517 37.1284 205.757 38.3296V38.3213Z" fill="#251202"/>
<path d="M209.644 40.0148C210.257 40.0148 210.754 39.5181 210.754 38.9053C210.754 38.2926 210.257 37.7959 209.644 37.7959C209.031 37.7959 208.535 38.2926 208.535 38.9053C208.535 39.5181 209.031 40.0148 209.644 40.0148Z" fill="#251202"/>
<path d="M212.647 34.6009C213.323 34.8428 213.94 34.1003 213.573 33.4831C213.306 33.0326 212.797 32.5572 211.855 32.1901C209.21 31.1474 204.305 31.0056 200.96 34.1922C204.723 33.6917 209.302 33.3997 212.647 34.6093V34.6009Z" fill="#251202"/>
<path d="M217.402 35.6426C217.886 38.5872 218.57 45.9863 218.636 48.956C218.636 49.2396 218.636 49.5399 218.495 49.7985C218.236 50.2657 217.585 50.4659 217.001 50.6243" fill="#FFB0A5"/>
<path d="M217.077 35.734C217.469 38.1781 217.694 40.6556 217.911 43.1164C218.028 44.401 218.128 45.6857 218.203 46.9703C218.236 47.4791 218.261 47.9963 218.278 48.5051C218.286 48.7721 218.328 49.0724 218.278 49.331C218.136 49.99 217.469 50.1401 216.91 50.2903C216.493 50.4071 216.668 51.0578 217.085 50.941C217.736 50.7575 218.495 50.5322 218.812 49.8732C219.062 49.356 218.962 48.7054 218.937 48.1465C218.879 46.7367 218.77 45.3269 218.653 43.9172C218.42 41.1227 218.17 38.3116 217.719 35.5338C217.652 35.1083 217.002 35.2918 217.069 35.7089L217.077 35.734Z" fill="#FB7D70"/>
<path d="M211.921 56.2133C211.921 56.2133 214.307 59.0328 218.136 58.9244C220.714 58.8577 222.524 56.7306 222.524 56.7306L211.93 56.2051L211.921 56.2133Z" fill="#C92B1D"/>
<path d="M218.295 55.8808C218.169 56.0643 218.086 54.421 216.051 55.3553C214.691 55.9809 213.073 56.5231 211.821 56.156C219.337 58.1747 222.574 56.6816 222.574 56.6816C222.574 56.6816 221.323 57.0819 220.488 55.9308C219.813 55.0049 218.954 54.9215 218.295 55.8808Z" fill="#FC3827"/>
<path d="M229.322 38.405C229.806 38.6719 229.514 39.5812 229.03 39.3143C227.454 38.4551 225.735 37.9295 224.226 39.0389C223.967 39.2308 223.45 39.6479 223.275 39.4978C223.108 39.356 223.275 39.0723 223.65 38.7303C225.535 37.0786 227.454 37.3789 229.331 38.405H229.322Z" fill="#251202"/>
<path d="M225.886 39.4564C225.944 40.0653 226.486 40.5075 227.095 40.4491C227.704 40.3907 228.146 39.8484 228.088 39.2395C228.029 38.6305 227.487 38.1885 226.878 38.2469C226.269 38.3053 225.827 38.8474 225.886 39.4564Z" fill="#251202"/>
<path d="M222.399 34.8179C221.707 35.0181 221.139 34.2339 221.54 33.6417C221.832 33.2079 222.366 32.7657 223.333 32.4571C226.036 31.5812 230.941 31.7398 234.086 35.1265C230.365 34.3924 225.811 33.8169 222.399 34.8179Z" fill="#251202"/>
<path d="M194.904 37.0527H200.402" stroke="#FFA733" stroke-width="0.458797" stroke-miterlimit="10"/>
<path d="M214.708 38.3795C214.708 38.3795 217.911 37.1282 220.205 38.6214" stroke="#FFA733" stroke-width="0.458797" stroke-miterlimit="10"/>
<path opacity="0.23" d="M200.252 37.8369C200.252 37.8369 200.527 34.2165 204.014 33.1738C207.492 32.131 213.982 33.8495 214.666 37.695C215.258 41.0151 214.041 46.6708 208.468 46.7458C202.896 46.8126 199.768 43.1256 200.252 37.8369Z" fill="#060407"/>
<path d="M200.268 37.8881C200.268 37.8881 200.543 34.2678 204.03 33.225C207.509 32.1823 213.999 33.9008 214.683 37.7463C215.275 41.0663 214.057 46.722 208.485 46.7971C202.913 46.8638 199.784 43.1767 200.268 37.8881Z" stroke="#FFA733" stroke-width="0.458797" stroke-miterlimit="10"/>
<path opacity="0.23" d="M234.645 40.006C234.645 40.006 235.062 36.4024 231.851 34.709C228.631 33.0157 221.941 33.4661 220.531 37.1115C219.313 40.2647 219.43 46.0454 224.885 47.1799C230.341 48.3144 234.12 45.2864 234.654 40.006H234.645Z" fill="#060407"/>
<path d="M234.719 40.1487C234.719 40.1487 235.136 36.545 231.925 34.8516C228.705 33.1582 222.015 33.6087 220.605 37.254C219.387 40.4072 219.504 46.1881 224.96 47.3226C230.415 48.4571 234.194 45.429 234.728 40.1487H234.719Z" stroke="#FFA733" stroke-width="0.458797" stroke-miterlimit="10"/>
<path d="M251.912 94.6869C278.772 95.9381 286.363 148.558 279.406 177.587C272.474 206.483 198.942 190.117 198.942 190.117C198.942 190.117 198.383 188.165 196.99 182.601C171.656 189.841 163.022 177.312 158.292 166.451C135.186 110.486 151.886 89.4733 151.886 89.4733C161.629 78.7541 199.075 86.27 199.075 86.27L227.262 144.179L228.722 91.5587C228.722 91.5587 242.92 94.2698 251.904 94.6869H251.912Z" fill="white"/>
<mask id="mask1_2010_7818" style="mask-type:luminance" maskUnits="userSpaceOnUse" x="146" y="83" width="136" height="112">
<path d="M252.012 94.5951C278.872 95.8464 286.463 148.466 279.506 177.496C272.574 206.391 199.041 190.025 199.041 190.025C199.041 190.025 198.483 188.073 197.089 182.509C171.756 189.75 163.122 177.22 158.392 166.359C135.285 110.394 151.986 89.3815 151.986 89.3815C161.729 78.6623 199.175 86.1782 199.175 86.1782L227.362 144.087L228.822 91.4669C228.822 91.4669 243.019 94.178 252.003 94.5951H252.012Z" fill="white"/>
</mask>
<g mask="url(#mask1_2010_7818)">
<path d="M230.24 98.9495C230.907 99.8421 231.341 100.426 231.858 101.118C232.559 99.6753 233.193 98.2989 233.877 96.9475C234.694 95.3459 235.495 93.7276 236.413 92.1844C236.73 91.6505 237.347 91.2668 237.906 90.9331C238.114 90.808 238.757 90.9665 238.807 91.1166C239.024 91.8007 239.341 92.5848 239.182 93.2271C238.823 94.6869 238.198 96.08 237.689 97.4981C237.589 97.7733 237.547 98.0737 237.689 98.4657C238.49 97.0143 239.324 95.5794 240.083 94.103C240.659 92.9768 241.101 91.7756 241.676 90.6495C242.419 89.2147 244.721 88.9644 246.014 89.9488C246.514 90.3242 247.399 90.199 248.383 90.3408C248.358 90.516 248.308 90.8997 248.233 91.3835C248.9 91.1166 249.593 91.0165 250.001 90.6245C250.477 90.174 250.702 89.4649 251.269 88.9478C251.228 89.2147 251.244 89.5067 251.144 89.7486C250.619 90.9998 250.06 92.2344 249.526 93.4773C249.459 93.6275 249.442 93.8027 249.442 93.9695C249.417 95.3459 249.568 96.739 249.359 98.082C248.909 100.918 248.258 103.729 247.707 106.557C247.499 107.617 247.424 108.734 246.047 108.985C246.047 108.784 246.047 108.534 246.047 108.267C245.947 108.292 245.847 108.284 245.822 108.326C245.28 109.151 244.679 109.952 244.229 110.82C243.837 111.571 243.603 112.405 243.32 113.214C242.877 114.482 242.369 114.765 241.751 114.065C241.101 114.949 240.45 115.825 239.733 116.801C239.024 116.484 238.732 116.893 238.732 117.752C238.732 118.803 238.615 119.862 238.632 120.913C238.632 121.214 238.999 121.489 239.124 121.798C239.249 122.098 239.391 122.473 239.307 122.749C239.24 122.949 238.84 123.082 238.565 123.174C237.314 123.599 235.971 123.85 234.828 124.467C233.918 124.959 233.159 125.81 232.509 126.644C231.674 127.712 230.932 127.795 230.206 126.886C229.764 127.245 229.406 127.62 228.972 127.887C228.246 128.338 227.479 128.73 226.711 129.113C226.311 129.314 225.769 129.664 225.468 129.53C225.151 129.389 224.909 128.78 224.868 128.354C224.667 126.294 224.542 124.233 224.4 122.165C224.375 121.739 224.4 121.314 224.125 120.88C223.875 121.572 223.65 122.273 223.374 122.957C223.082 123.691 222.549 123.833 222.123 123.166C221.731 122.54 221.272 121.739 221.339 121.064C222.006 114.023 224.342 107.533 228.071 101.544C228.63 100.651 229.439 99.9088 230.248 98.9495H230.24Z" fill="#3DC4E8"/>
<path d="M202.453 124.617C202.236 125.468 202.028 126.319 201.794 127.245C201.561 127.094 201.386 126.986 201.394 126.994C200.802 127.203 200.359 127.47 199.909 127.478C199.709 127.478 199.492 126.969 199.283 126.677C198.911 126.916 198.249 126.739 197.298 126.144C197.031 126.961 196.764 127.762 196.481 128.629C196.172 128.504 195.938 128.412 195.713 128.321C194.454 127.787 194.245 126.777 195.146 125.726C195.346 125.493 195.513 125.167 195.563 124.867C195.897 122.807 196.28 120.738 196.481 118.661C196.664 116.784 196.597 114.882 196.731 112.997C196.973 109.652 197.281 106.307 197.548 102.962C197.657 101.635 197.682 100.292 197.865 98.9744C197.957 98.282 198.316 97.6314 198.549 96.9557C198.666 96.9807 198.783 97.0057 198.9 97.0307C198.966 97.6981 199.025 98.3738 199.092 99.0244C199.534 98.7909 200.109 98.6657 200.334 98.3154C200.618 97.8816 200.718 97.2643 200.702 96.7305C200.676 95.6377 200.802 94.6116 201.444 93.694C201.536 93.5606 201.644 93.4521 201.894 93.1602C202.161 94.9119 202.395 96.4885 202.628 98.0651C202.704 98.0568 202.77 98.0485 202.845 98.0401C202.879 97.6481 202.904 97.256 202.945 96.7138C203.312 96.8556 203.588 96.964 203.863 97.0724C203.838 96.989 203.821 96.8973 203.796 96.8139C204.255 96.7054 204.881 96.3634 205.131 96.5469C205.59 96.8806 205.832 97.5146 206.165 98.0234C206.441 97.5229 206.841 97.6814 207.25 98.3321C207.5 97.9066 207.684 97.5813 207.976 97.0808C208.142 97.4061 208.318 97.598 208.334 97.8149C208.418 98.8075 208.551 99.8086 208.493 100.801C208.092 106.991 207.675 113.172 207.183 119.353C207 121.672 206.658 123.983 206.282 126.277C206.19 126.802 205.74 127.47 205.281 127.687C204.747 127.937 203.513 126.936 203.329 126.36C203.146 125.793 202.912 125.243 202.704 124.692C202.62 124.675 202.545 124.667 202.462 124.65L202.453 124.617Z" fill="#EEC2CF"/>
<path d="M244.546 129.088C244.329 129.939 244.12 130.79 243.887 131.716C243.653 131.566 243.478 131.457 243.486 131.466C242.894 131.674 242.452 131.941 242.001 131.949C241.801 131.949 241.584 131.44 241.376 131.149C241.003 131.388 240.341 131.21 239.39 130.615C239.123 131.432 238.857 132.233 238.573 133.1C238.264 132.975 238.031 132.884 237.805 132.792C236.546 132.258 236.337 131.249 237.238 130.198C237.438 129.964 237.605 129.639 237.655 129.338C237.989 127.278 238.373 125.209 238.573 123.132C238.756 121.255 238.69 119.353 238.823 117.468C239.065 114.123 239.374 110.778 239.641 107.433C239.749 106.107 239.774 104.764 239.958 103.446C240.049 102.753 240.408 102.103 240.65 101.427C240.767 101.452 240.884 101.477 241 101.502C241.067 102.169 241.125 102.845 241.192 103.496C241.634 103.262 242.21 103.137 242.435 102.787C242.719 102.353 242.819 101.735 242.802 101.202C242.777 100.109 242.902 99.0828 243.545 98.1652C243.636 98.0401 243.745 97.9233 243.995 97.6313C244.262 99.3831 244.496 100.96 244.729 102.536C244.804 102.528 244.871 102.52 244.946 102.511C244.979 102.119 245.004 101.727 245.046 101.185C245.413 101.327 245.688 101.435 245.964 101.544C245.939 101.46 245.922 101.368 245.897 101.285C246.356 101.177 246.981 100.835 247.232 101.018C247.69 101.352 247.932 101.986 248.266 102.495C248.541 101.994 248.942 102.153 249.35 102.803C249.601 102.378 249.784 102.052 250.076 101.552C250.243 101.877 250.418 102.069 250.435 102.286C250.518 103.279 250.652 104.28 250.593 105.272C250.193 111.462 249.776 117.643 249.284 123.824C249.1 126.143 248.758 128.454 248.383 130.748C248.291 131.274 247.841 131.941 247.382 132.158C246.848 132.408 245.613 131.407 245.43 130.832C245.246 130.264 245.013 129.714 244.804 129.163C244.721 129.147 244.646 129.138 244.562 129.121L244.546 129.088Z" fill="#009BD9"/>
<path d="M148.757 124.301C149.867 124.259 150.593 124.234 151.46 124.209C150.668 122.808 149.9 121.506 149.183 120.172C148.332 118.587 147.456 117.01 146.714 115.375C146.455 114.816 146.497 114.082 146.538 113.44C146.555 113.198 147.047 112.756 147.206 112.806C147.89 113.014 148.716 113.206 149.149 113.698C150.142 114.825 150.935 116.134 151.81 117.361C151.986 117.602 152.211 117.803 152.603 117.911C151.869 116.426 151.16 114.916 150.384 113.457C149.783 112.339 149.049 111.296 148.457 110.178C147.698 108.752 148.807 106.716 150.351 106.208C150.951 106.016 151.343 105.215 152.019 104.489C152.152 104.606 152.436 104.873 152.795 105.207C152.953 104.498 153.27 103.88 153.178 103.313C153.078 102.671 152.62 102.078 152.528 101.319C152.728 101.503 152.97 101.661 153.112 101.878C153.837 103.021 154.538 104.181 155.256 105.332C155.339 105.474 155.481 105.59 155.614 105.682C156.732 106.483 157.967 107.159 158.951 108.093C161.028 110.078 162.963 112.214 164.974 114.274C165.733 115.05 166.6 115.751 166.025 117.027C165.858 116.91 165.658 116.768 165.441 116.618C165.407 116.71 165.341 116.793 165.366 116.843C165.733 117.761 166.05 118.712 166.509 119.579C166.901 120.33 167.451 120.998 167.952 121.69C168.744 122.774 168.686 123.358 167.751 123.467C168.11 124.509 168.461 125.544 168.853 126.678C168.185 127.079 168.36 127.546 169.061 128.046C169.92 128.655 170.73 129.348 171.605 129.932C171.856 130.098 172.281 129.957 172.615 130.032C172.932 130.107 173.324 130.199 173.507 130.424C173.641 130.591 173.507 130.999 173.432 131.283C173.074 132.551 172.506 133.802 172.365 135.095C172.248 136.121 172.523 137.231 172.832 138.24C173.232 139.533 172.882 140.184 171.714 140.267C171.764 140.834 171.864 141.343 171.831 141.852C171.781 142.703 171.672 143.554 171.547 144.404C171.48 144.847 171.464 145.489 171.188 145.664C170.896 145.848 170.254 145.698 169.879 145.489C168.077 144.48 166.308 143.412 164.532 142.352C164.165 142.136 163.831 141.869 163.314 141.844C163.739 142.444 164.181 143.028 164.59 143.637C165.032 144.296 164.84 144.822 164.048 144.78C163.305 144.747 162.388 144.663 161.871 144.221C156.465 139.658 152.461 134.044 149.667 127.571C149.249 126.603 149.099 125.519 148.774 124.301H148.757Z" fill="#F5E5AF"/>
<path d="M258.669 99.6512C258.727 100.761 258.769 101.486 258.811 102.354C260.195 101.536 261.488 100.744 262.806 100.002C264.375 99.1173 265.934 98.2164 267.553 97.4489C268.112 97.182 268.837 97.207 269.488 97.2404C269.73 97.2487 270.18 97.7409 270.139 97.8911C269.938 98.5751 269.763 99.4093 269.279 99.8514C268.17 100.861 266.877 101.678 265.667 102.579C265.434 102.754 265.234 102.98 265.125 103.38C266.602 102.612 268.095 101.887 269.538 101.078C270.648 100.46 271.674 99.7012 272.783 99.0839C274.193 98.2998 276.253 99.3759 276.787 100.911C276.996 101.503 277.796 101.887 278.539 102.554C278.422 102.688 278.163 102.98 277.838 103.338C278.547 103.488 279.173 103.789 279.732 103.689C280.374 103.572 280.958 103.113 281.717 102.996C281.533 103.196 281.383 103.447 281.166 103.588C280.04 104.339 278.889 105.057 277.755 105.791C277.621 105.882 277.504 106.016 277.413 106.158C276.637 107.284 275.978 108.535 275.06 109.536C273.108 111.647 271.015 113.624 268.987 115.667C268.228 116.435 267.544 117.319 266.26 116.768C266.368 116.602 266.51 116.393 266.66 116.176C266.56 116.143 266.485 116.084 266.435 116.101C265.526 116.485 264.583 116.818 263.724 117.294C262.981 117.703 262.322 118.262 261.638 118.779C260.571 119.588 259.987 119.538 259.862 118.612C258.827 118.987 257.801 119.363 256.667 119.771C256.25 119.113 255.791 119.296 255.307 120.005C254.715 120.881 254.039 121.69 253.472 122.583C253.313 122.833 253.463 123.258 253.388 123.592C253.322 123.909 253.238 124.309 253.013 124.485C252.846 124.618 252.437 124.501 252.154 124.426C250.878 124.084 249.618 123.55 248.325 123.425C247.299 123.325 246.189 123.625 245.188 123.951C243.904 124.368 243.245 124.034 243.136 122.875C242.569 122.933 242.06 123.041 241.56 123.025C240.709 122.991 239.85 122.9 239.007 122.791C238.565 122.733 237.923 122.725 237.739 122.449C237.547 122.157 237.689 121.515 237.889 121.14C238.865 119.313 239.9 117.528 240.934 115.734C241.143 115.367 241.401 115.025 241.418 114.508C240.826 114.95 240.25 115.4 239.641 115.818C238.991 116.268 238.465 116.093 238.482 115.3C238.498 114.558 238.565 113.64 238.999 113.115C243.462 107.634 249.001 103.522 255.424 100.602C256.383 100.168 257.468 99.9932 258.677 99.6512H258.669Z" fill="#060407"/>
<path d="M228.755 134.461C227.645 134.594 226.928 134.686 226.069 134.786C226.978 136.112 227.854 137.347 228.688 138.606C229.672 140.108 230.682 141.609 231.566 143.169C231.866 143.703 231.9 144.437 231.908 145.08C231.908 145.322 231.458 145.805 231.299 145.772C230.598 145.622 229.764 145.505 229.289 145.046C228.204 144.012 227.303 142.777 226.319 141.626C226.127 141.401 225.885 141.217 225.485 141.142C226.352 142.56 227.178 143.995 228.088 145.388C228.78 146.448 229.606 147.424 230.298 148.491C231.174 149.851 230.248 151.97 228.755 152.612C228.179 152.863 227.846 153.688 227.237 154.472C227.095 154.364 226.786 154.122 226.402 153.822C226.302 154.539 226.044 155.19 226.186 155.74C226.344 156.374 226.845 156.925 227.011 157.676C226.803 157.509 226.544 157.375 226.386 157.167C225.56 156.091 224.767 154.998 223.95 153.914C223.85 153.78 223.708 153.68 223.566 153.597C222.382 152.896 221.097 152.329 220.038 151.478C217.794 149.676 215.683 147.716 213.498 145.839C212.68 145.13 211.746 144.504 212.213 143.186C212.388 143.286 212.605 143.411 212.83 143.545C212.855 143.445 212.914 143.361 212.889 143.32C212.438 142.435 212.046 141.518 211.512 140.692C211.054 139.983 210.445 139.357 209.886 138.715C209.01 137.706 209.01 137.113 209.927 136.93C209.485 135.929 209.043 134.928 208.551 133.827C209.185 133.368 208.968 132.917 208.226 132.484C207.317 131.958 206.457 131.332 205.531 130.832C205.273 130.69 204.856 130.865 204.514 130.824C204.188 130.782 203.788 130.724 203.596 130.507C203.454 130.348 203.538 129.931 203.596 129.647C203.846 128.346 204.297 127.061 204.33 125.76C204.355 124.734 203.988 123.641 203.596 122.665C203.087 121.414 203.379 120.73 204.53 120.547C204.43 119.988 204.288 119.487 204.272 118.978C204.247 118.127 204.28 117.268 204.33 116.409C204.355 115.959 204.322 115.316 204.58 115.124C204.856 114.916 205.506 115.008 205.898 115.183C207.784 116.034 209.636 116.943 211.504 117.844C211.888 118.027 212.238 118.261 212.755 118.244C212.28 117.685 211.788 117.135 211.329 116.568C210.837 115.95 210.979 115.408 211.771 115.375C212.513 115.341 213.431 115.35 213.99 115.742C219.771 119.821 224.242 125.068 227.595 131.274C228.096 132.2 228.338 133.268 228.763 134.452L228.755 134.461Z" fill="#060407"/>
<path d="M175.009 105.315C175.677 106.207 176.11 106.791 176.628 107.484C177.328 106.041 177.962 104.664 178.646 103.313C179.464 101.711 180.264 100.093 181.182 98.5496C181.499 98.0157 182.116 97.632 182.675 97.2983C182.884 97.1732 183.526 97.3317 183.576 97.4818C183.793 98.1658 184.11 98.95 183.952 99.5923C183.593 101.052 182.967 102.445 182.458 103.863C182.358 104.139 182.317 104.439 182.458 104.831C183.259 103.379 184.093 101.945 184.852 100.468C185.428 99.3421 185.87 98.1408 186.446 97.0147C187.188 95.5799 189.49 95.3297 190.783 96.314C191.284 96.6894 192.168 96.5642 193.153 96.706C193.128 96.8812 193.077 97.2649 193.002 97.7488C193.67 97.4818 194.362 97.3818 194.771 96.9897C195.246 96.5392 195.472 95.8302 196.039 95.313C195.997 95.5799 196.014 95.8719 195.914 96.1138C195.388 97.3651 194.829 98.5996 194.295 99.8426C194.229 99.9927 194.212 100.168 194.212 100.335C194.187 101.711 194.337 103.104 194.129 104.447C193.678 107.283 193.027 110.095 192.477 112.922C192.268 113.982 192.193 115.1 190.817 115.35C190.817 115.15 190.817 114.899 190.817 114.632C190.717 114.658 190.617 114.649 190.592 114.691C190.049 115.517 189.449 116.318 188.998 117.185C188.606 117.936 188.373 118.77 188.089 119.579C187.647 120.847 187.138 121.131 186.521 120.43C185.87 121.314 185.22 122.19 184.502 123.166C183.793 122.849 183.501 123.258 183.501 124.117C183.501 125.168 183.384 126.228 183.401 127.279C183.401 127.579 183.768 127.854 183.893 128.163C184.018 128.463 184.16 128.839 184.077 129.114C184.01 129.314 183.61 129.447 183.334 129.539C182.083 129.965 180.74 130.215 179.597 130.832C178.688 131.324 177.929 132.175 177.278 133.009C176.444 134.077 175.702 134.161 174.976 133.251C174.534 133.61 174.175 133.985 173.741 134.252C173.016 134.703 172.248 135.095 171.481 135.479C171.08 135.679 170.538 136.029 170.238 135.896C169.921 135.754 169.679 135.145 169.637 134.719C169.437 132.659 169.312 130.599 169.17 128.53C169.145 128.104 169.17 127.679 168.895 127.245C168.644 127.938 168.419 128.638 168.144 129.322C167.852 130.056 167.318 130.198 166.893 129.531C166.501 128.905 166.042 128.104 166.109 127.429C166.776 120.388 169.112 113.898 172.84 107.909C173.399 107.016 174.208 106.274 175.018 105.315H175.009Z" fill="#3DC4E8"/>
<path d="M189.315 135.453C189.098 136.304 188.89 137.155 188.656 138.081C188.423 137.93 188.247 137.822 188.256 137.83C187.663 138.039 187.221 138.306 186.771 138.314C186.571 138.314 186.354 137.805 186.145 137.513C185.773 137.752 185.111 137.574 184.16 136.979C183.893 137.797 183.626 138.598 183.342 139.465C183.034 139.34 182.8 139.248 182.575 139.157C181.315 138.623 181.107 137.613 182.008 136.562C182.208 136.329 182.375 136.003 182.425 135.703C182.758 133.643 183.142 131.574 183.342 129.497C183.526 127.62 183.459 125.718 183.593 123.833C183.835 120.488 184.143 117.143 184.41 113.798C184.519 112.471 184.544 111.128 184.727 109.81C184.819 109.118 185.178 108.467 185.411 107.792C185.528 107.817 185.645 107.842 185.762 107.867C185.828 108.534 185.887 109.21 185.953 109.86C186.395 109.627 186.971 109.502 187.196 109.151C187.48 108.718 187.58 108.1 187.563 107.566C187.538 106.474 187.663 105.448 188.306 104.53C188.398 104.397 188.506 104.288 188.756 103.996C189.023 105.748 189.257 107.324 189.49 108.901C189.565 108.893 189.632 108.884 189.707 108.876C189.741 108.484 189.766 108.092 189.807 107.55C190.174 107.692 190.45 107.8 190.725 107.908C190.7 107.825 190.683 107.733 190.658 107.65C191.117 107.541 191.743 107.199 191.993 107.383C192.452 107.717 192.693 108.351 193.027 108.859C193.302 108.359 193.703 108.517 194.112 109.168C194.362 108.743 194.545 108.417 194.837 107.917C195.004 108.242 195.179 108.434 195.196 108.651C195.279 109.643 195.413 110.645 195.355 111.637C194.954 117.827 194.537 124.008 194.045 130.189C193.861 132.508 193.519 134.819 193.144 137.113C193.052 137.638 192.602 138.306 192.143 138.523C191.609 138.773 190.375 137.772 190.191 137.196C190.007 136.629 189.774 136.079 189.565 135.528C189.482 135.511 189.407 135.503 189.323 135.486L189.315 135.453Z" fill="#009BD9"/>
<path d="M161.437 80.5316C161.495 81.641 161.537 82.3667 161.579 83.2343C162.963 82.4168 164.256 81.6244 165.574 80.8819C167.143 79.9977 168.702 79.0968 170.321 78.3293C170.88 78.0624 171.605 78.0874 172.256 78.1208C172.498 78.1291 172.948 78.6213 172.907 78.7715C172.707 79.4555 172.531 80.2896 172.048 80.7317C170.938 81.7411 169.645 82.5586 168.436 83.4595C168.202 83.6347 168.002 83.86 167.893 84.2604C169.37 83.493 170.863 82.7672 172.306 81.9581C173.416 81.3408 174.442 80.5817 175.551 79.9644C176.961 79.1802 179.021 80.2563 179.555 81.7912C179.764 82.3834 180.564 82.7671 181.307 83.4345C181.19 83.5679 180.932 83.8599 180.606 84.2186C181.315 84.3688 181.941 84.6691 182.5 84.569C183.142 84.4606 183.726 83.9934 184.485 83.8766C184.302 84.0768 184.151 84.3271 183.935 84.4689C182.808 85.2197 181.657 85.937 180.523 86.6711C180.389 86.7628 180.273 86.8964 180.181 87.0382C179.397 88.1726 178.746 89.4156 177.828 90.4166C175.876 92.527 173.783 94.504 171.756 96.5477C170.996 97.3152 170.312 98.1994 169.028 97.6489C169.136 97.482 169.278 97.2735 169.428 97.0566C169.328 97.0233 169.253 96.9648 169.203 96.9815C168.294 97.3652 167.351 97.6989 166.492 98.1744C165.749 98.5831 165.09 99.1421 164.406 99.6593C163.339 100.468 162.755 100.418 162.63 99.4924C161.595 99.8678 160.569 100.243 159.435 100.652C159.018 99.9929 158.559 100.176 158.075 100.885C157.483 101.761 156.807 102.571 156.24 103.463C156.081 103.713 156.232 104.139 156.156 104.472C156.09 104.789 156.006 105.19 155.781 105.365C155.614 105.498 155.205 105.382 154.922 105.307C153.646 104.965 152.386 104.431 151.093 104.306C150.067 104.206 148.958 104.506 147.957 104.831C146.672 105.248 146.013 104.915 145.904 103.755C145.337 103.813 144.828 103.922 144.328 103.905C143.477 103.872 142.618 103.78 141.775 103.672C141.333 103.613 140.691 103.605 140.507 103.33C140.315 103.038 140.457 102.395 140.657 102.02C141.633 100.193 142.668 98.408 143.702 96.6145C143.911 96.2475 144.169 95.9055 144.186 95.3883C143.594 95.8304 143.018 96.2808 142.409 96.6979C141.759 97.1483 141.233 96.9732 141.25 96.1807C141.266 95.4383 141.333 94.5207 141.767 93.9952C146.23 88.5146 151.769 84.4021 158.192 81.4825C159.151 81.0488 160.236 80.8736 161.445 80.5316H161.437Z" fill="#FF4434"/>
<path d="M270.122 101.018C270.856 101.502 271.59 101.978 272.391 102.503C272.174 102.678 272.016 102.803 272.024 102.795C272.024 103.421 272.133 103.93 271.991 104.355C271.924 104.547 271.373 104.58 271.023 104.689C271.123 105.122 270.737 105.69 269.864 106.39C270.548 106.916 271.215 107.425 271.941 107.975C271.724 108.226 271.565 108.417 271.39 108.601C270.473 109.61 269.455 109.485 268.754 108.292C268.596 108.025 268.354 107.758 268.078 107.617C266.235 106.624 264.416 105.59 262.514 104.714C260.804 103.921 258.978 103.371 257.243 102.628C254.156 101.31 251.103 99.9172 248.025 98.5658C246.807 98.0319 245.547 97.5647 244.363 96.9641C243.737 96.6471 243.237 96.0966 242.678 95.6545C242.745 95.5544 242.803 95.4459 242.87 95.3458C243.529 95.5043 244.179 95.6628 244.813 95.813C244.738 95.3208 244.805 94.7369 244.546 94.4032C244.229 93.9945 243.679 93.6942 243.17 93.5357C242.127 93.202 241.201 92.7432 240.542 91.8423C240.451 91.7172 240.375 91.5754 240.184 91.2417C241.927 91.567 243.495 91.859 245.064 92.151C245.08 92.0842 245.097 92.0092 245.105 91.9424C244.747 91.7839 244.388 91.6254 243.879 91.4085C244.129 91.1082 244.321 90.883 244.521 90.6578C244.43 90.6578 244.346 90.6411 244.254 90.6328C244.304 90.1656 244.188 89.4649 244.438 89.2814C244.897 88.9561 245.581 88.931 246.165 88.7892C245.781 88.3721 246.056 88.0385 246.807 87.8633C246.482 87.4879 246.24 87.2042 245.856 86.7705C246.215 86.7204 246.457 86.6203 246.665 86.6704C247.633 86.9206 248.625 87.1125 249.535 87.4962C255.249 89.8986 260.955 92.3178 266.635 94.8036C268.762 95.7379 270.84 96.814 272.883 97.9235C273.35 98.1821 273.834 98.8244 273.893 99.3332C273.959 99.9171 272.608 100.76 271.999 100.743C271.407 100.735 270.806 100.768 270.214 100.785C270.172 100.86 270.139 100.926 270.097 101.002L270.122 101.018Z" fill="#FF4434"/>
<path d="M262.364 146.973C262.147 147.824 261.938 148.675 261.705 149.601C261.471 149.451 261.296 149.342 261.305 149.351C260.712 149.559 260.27 149.826 259.82 149.835C259.619 149.835 259.403 149.326 259.194 149.034C258.821 149.273 258.16 149.095 257.209 148.5C256.942 149.317 256.675 150.118 256.391 150.986C256.083 150.861 255.849 150.769 255.624 150.677C254.364 150.143 254.156 149.134 255.057 148.083C255.257 147.849 255.424 147.524 255.474 147.224C255.807 145.163 256.191 143.094 256.391 141.017C256.575 139.14 256.508 137.239 256.641 135.353C256.883 132.008 257.192 128.663 257.459 125.318C257.567 123.992 257.592 122.649 257.776 121.331C257.868 120.638 258.226 119.988 258.46 119.312C258.577 119.337 258.694 119.362 258.81 119.387C258.877 120.054 258.935 120.73 259.002 121.381C259.444 121.147 260.02 121.022 260.245 120.672C260.529 120.238 260.629 119.621 260.612 119.087C260.587 117.994 260.712 116.968 261.355 116.05C261.446 115.925 261.555 115.809 261.805 115.517C262.072 117.268 262.306 118.845 262.539 120.422C262.614 120.413 262.681 120.405 262.756 120.397C262.789 120.004 262.814 119.612 262.856 119.07C263.223 119.212 263.498 119.32 263.774 119.429C263.749 119.345 263.732 119.254 263.707 119.17C264.166 119.062 264.791 118.72 265.042 118.903C265.5 119.237 265.742 119.871 266.076 120.38C266.351 119.879 266.752 120.038 267.16 120.688C267.411 120.263 267.594 119.938 267.886 119.437C268.053 119.763 268.228 119.954 268.245 120.171C268.328 121.164 268.462 122.165 268.403 123.158C268.003 129.347 267.586 135.528 267.094 141.71C266.91 144.029 266.568 146.339 266.193 148.633C266.101 149.159 265.651 149.826 265.192 150.043C264.658 150.293 263.423 149.292 263.24 148.717C263.056 148.15 262.823 147.599 262.614 147.048C262.531 147.032 262.456 147.023 262.372 147.007L262.364 146.973Z" fill="#EEC2CF"/>
<path d="M177.578 87.1717C177.637 88.2811 177.679 89.0068 177.72 89.8744C179.105 89.0569 180.398 88.2644 181.716 87.522C183.284 86.6377 184.844 85.7369 186.462 84.9695C187.021 84.7025 187.747 84.7275 188.398 84.7609C188.64 84.7692 189.09 85.2613 189.048 85.4115C188.848 86.0955 188.673 86.9298 188.189 87.3719C187.08 88.3812 185.787 89.1987 184.577 90.0996C184.344 90.2748 184.143 90.5 184.035 90.9004C185.511 90.133 187.005 89.4072 188.448 88.5981C189.557 87.9808 190.583 87.2217 191.693 86.6044C193.102 85.8203 195.163 86.8964 195.697 88.4313C195.905 89.0236 196.706 89.4073 197.448 90.0746C197.332 90.2081 197.073 90.5 196.748 90.8587C197.457 91.0088 198.082 91.3092 198.641 91.2091C199.284 91.0923 199.868 90.6335 200.627 90.5167C200.443 90.7169 200.293 90.9672 200.076 91.109C198.95 91.8597 197.799 92.5771 196.664 93.3112C196.531 93.4029 196.414 93.5364 196.322 93.6782C195.538 94.8127 194.888 96.0556 193.97 97.0567C192.018 99.1671 189.924 101.144 187.897 103.188C187.138 103.955 186.446 104.84 185.169 104.289C185.278 104.122 185.42 103.914 185.57 103.697C185.47 103.663 185.395 103.605 185.345 103.622C184.435 104.005 183.493 104.339 182.634 104.814C181.891 105.223 181.232 105.782 180.548 106.299C179.48 107.108 178.896 107.058 178.771 106.132C177.737 106.508 176.711 106.883 175.576 107.292C175.159 106.633 174.701 106.817 174.217 107.526C173.624 108.401 172.949 109.211 172.381 110.103C172.223 110.353 172.373 110.779 172.298 111.112C172.231 111.429 172.148 111.83 171.923 112.005C171.756 112.139 171.347 112.022 171.064 111.947C169.787 111.605 168.528 111.071 167.235 110.946C166.209 110.846 165.099 111.146 164.098 111.471C162.813 111.888 162.155 111.555 162.046 110.395C161.479 110.454 160.97 110.562 160.469 110.545C159.619 110.512 158.759 110.42 157.917 110.312C157.475 110.253 156.832 110.245 156.649 109.97C156.457 109.678 156.599 109.035 156.799 108.66C157.775 106.833 158.809 105.048 159.844 103.255C160.052 102.888 160.311 102.545 160.328 102.028C159.735 102.47 159.16 102.921 158.551 103.338C157.9 103.788 157.375 103.613 157.391 102.821C157.408 102.078 157.475 101.161 157.909 100.635C162.371 95.1547 167.91 91.0422 174.333 88.1226C175.293 87.6888 176.377 87.5137 177.587 87.1717H177.578Z" fill="#060407"/>
<path d="M229.564 88.0978C229.989 87.3303 230.406 86.5629 230.874 85.7204C231.065 85.9206 231.207 86.079 231.191 86.0623C231.816 86.0123 232.317 85.8705 232.75 85.9789C232.951 86.029 233.017 86.5795 233.151 86.9132C233.574 86.7797 234.169 87.1217 234.936 87.9392C235.403 87.2135 235.862 86.5128 236.362 85.7453C236.629 85.9455 236.83 86.0873 237.03 86.2458C238.114 87.0883 238.056 88.1061 236.921 88.8985C236.663 89.0737 236.421 89.3406 236.296 89.6243C235.445 91.5345 234.552 93.4365 233.827 95.3884C233.168 97.1569 232.759 99.0171 232.15 100.802C231.074 103.98 229.923 107.134 228.805 110.295C228.363 111.555 227.996 112.839 227.487 114.066C227.22 114.708 226.711 115.25 226.311 115.842C226.202 115.784 226.094 115.734 225.985 115.676C226.094 115.008 226.202 114.349 226.311 113.699C225.827 113.815 225.234 113.79 224.926 114.074C224.542 114.424 224.284 114.992 224.167 115.517C223.917 116.585 223.524 117.544 222.674 118.27C222.557 118.37 222.415 118.453 222.106 118.67C222.298 116.91 222.465 115.325 222.64 113.74C222.565 113.732 222.498 113.724 222.423 113.715C222.298 114.091 222.165 114.458 221.981 114.975C221.664 114.741 221.431 114.566 221.189 114.391C221.189 114.483 221.189 114.574 221.189 114.658C220.722 114.641 220.029 114.816 219.829 114.574C219.462 114.141 219.395 113.457 219.203 112.889C218.811 113.298 218.461 113.048 218.236 112.322C217.885 112.673 217.627 112.939 217.218 113.348C217.143 112.99 217.018 112.756 217.06 112.547C217.235 111.563 217.352 110.562 217.669 109.619C219.629 103.739 221.606 97.8659 223.65 92.01C224.417 89.8161 225.335 87.6639 226.286 85.5368C226.502 85.0446 227.111 84.5191 227.612 84.4274C228.188 84.3189 229.13 85.6035 229.163 86.2042C229.197 86.7964 229.28 87.3887 229.339 87.981C229.414 88.0143 229.489 88.0477 229.564 88.0811V88.0978Z" fill="#007ACB"/>
</g>
</g>
</g>
<defs>
<linearGradient id="paint0_linear_2010_7818" x1="226.204" y1="69.0026" x2="265.168" y2="69.0026" gradientUnits="userSpaceOnUse">
<stop stop-color="white"/>
<stop offset="1" stop-color="#DDDEE0"/>
</linearGradient>
<linearGradient id="paint1_linear_2010_7818" x1="197.282" y1="69.0026" x2="158.326" y2="69.0026" gradientUnits="userSpaceOnUse">
<stop stop-color="white"/>
<stop offset="1" stop-color="#DDDEE0"/>
</linearGradient>
<linearGradient id="paint2_linear_2010_7818" x1="145.096" y1="107.834" x2="281.292" y2="107.834" gradientUnits="userSpaceOnUse">
<stop offset="0.01" stop-color="white"/>
<stop offset="0.48" stop-color="#BBBCBE"/>
<stop offset="1" stop-color="white"/>
</linearGradient>
<clipPath id="clip0_2010_7818">
<rect width="292" height="130" fill="white"/>
</clipPath>
</defs>
</svg>
